M48
; DRILL file {KiCad 7.0.1-0} date 2023 April 16, Sunday 11:58:17
; FORMAT={-:-/ absolute / inch / decimal}
; #@! TF.CreationDate,2023-04-16T11:58:17-05:00
; #@! TF.GenerationSoftware,Kicad,Pcbnew,7.0.1-0
; #@! TF.FileFunction,NonPlated,1,2,NPTH
FMAT,2
INCH
; #@! TA.AperFunction,NonPlated,NPTH,ComponentDrill
T1C0.0670
; #@! TA.AperFunction,NonPlated,NPTH,ComponentDrill
T2C0.1181
; #@! TA.AperFunction,NonPlated,NPTH,ComponentDrill
T3C0.1350
%
G90
G05
T1
X2.1923Y-5.4131
X2.4212Y-4.7842
X2.5993Y-5.5612
X2.6501Y-4.1553
X2.8282Y-4.9323
X2.8582Y-5.6555
X2.879Y-3.5263
X3.0571Y-4.3034
X3.0871Y-5.0266
X3.2652Y-5.8036
X3.286Y-3.6744
X3.3161Y-4.3976
X3.3626Y-6.3418
X3.4941Y-5.1747
X3.545Y-3.7687
X3.5915Y-5.7129
X3.723Y-4.5458
X3.7695Y-6.4899
X3.8204Y-5.084
X3.9519Y-3.9168
X3.9984Y-5.861
X4.0493Y-4.455
X4.0622Y-6.4917
X4.2273Y-5.2321
X4.2782Y-3.8261
X4.2911Y-5.8628
X4.4563Y-4.6031
X4.4691Y-6.6398
X4.52Y-5.2338
X4.6852Y-3.9742
X4.6944Y-6.8266
X4.698Y-6.0109
X4.7489Y-4.6049
X4.9233Y-6.1976
X4.9269Y-5.382
X4.9778Y-3.976
X5.1014Y-6.9747
X5.1522Y-5.5687
X5.1558Y-4.753
X5.3303Y-6.3458
X5.3812Y-4.9398
X5.3848Y-4.1241
X5.3998Y-7.2122
X5.5556Y-6.5325
X5.5592Y-5.7168
X5.6101Y-4.3109
X5.7546Y-7.4606
X5.7845Y-5.9036
X5.7881Y-5.0879
X5.9625Y-6.6806
X6.0134Y-5.2746
X6.017Y-4.459
X6.1495Y-7.9168
X6.1915Y-6.0517
X6.2423Y-4.6457
X6.4204Y-5.4228
X6.4812Y-7.6385
X6.6493Y-4.7938
X7.6596Y-4.7938
X7.8277Y-7.6385
X7.8886Y-5.4228
X8.0666Y-4.6457
X8.1175Y-6.0517
X8.1594Y-7.9168
X8.2919Y-4.459
X8.2955Y-5.2746
X8.3464Y-6.6806
X8.5208Y-5.0879
X8.5244Y-5.9036
X8.5543Y-7.4606
X8.6989Y-4.3109
X8.7497Y-5.7168
X8.7533Y-6.5325
X8.9091Y-7.2122
X8.9242Y-4.1241
X8.9278Y-4.9398
X8.9786Y-6.3458
X9.1531Y-4.753
X9.1567Y-5.5687
X9.2076Y-6.9747
X9.3311Y-3.976
X9.382Y-5.382
X9.3856Y-6.1976
X9.56Y-4.6049
X9.6109Y-6.0109
X9.6145Y-6.8266
X9.6238Y-3.9742
X9.7889Y-5.2338
X9.8398Y-6.6398
X9.8527Y-4.6031
X10.0179Y-5.8628
X10.0307Y-3.8261
X10.0816Y-5.2321
X10.2468Y-6.4917
X10.2596Y-4.455
X10.3105Y-5.861
X10.357Y-3.9168
X10.4885Y-5.084
X10.5394Y-6.4899
X10.5859Y-4.5458
X10.7174Y-5.7129
X10.764Y-3.7687
X10.8148Y-5.1747
X10.9464Y-6.3418
X10.9929Y-4.3976
X11.0229Y-3.6744
X11.0437Y-5.8036
X11.2218Y-5.0266
X11.2518Y-4.3034
X11.4299Y-3.5263
X11.4507Y-5.6555
X11.4808Y-4.9323
X11.6588Y-4.1553
X11.7097Y-5.5612
X11.8877Y-4.7842
X12.1166Y-5.4131
T2
X2.4759Y-5.267
X2.6313Y-5.4158
X2.7048Y-4.6381
X2.8602Y-4.7868
X2.9337Y-4.0092
X3.0891Y-4.1579
X3.1418Y-5.5094
X3.1626Y-3.3803
X3.2972Y-5.6581
X3.318Y-3.529
X3.3707Y-4.8805
X3.5261Y-5.0292
X3.5996Y-4.2516
X3.6462Y-6.1957
X3.755Y-4.4003
X3.8015Y-6.3445
X3.8286Y-3.6226
X3.8751Y-5.5668
X3.9839Y-3.7714
X4.0304Y-5.7155
X4.104Y-4.9379
X4.2593Y-5.0866
X4.3329Y-4.309
X4.3458Y-6.3456
X4.4883Y-4.4577
X4.5011Y-6.4944
X4.5618Y-3.68
X4.5747Y-5.7167
X4.7172Y-3.8288
X4.73Y-5.8654
X4.8036Y-5.0878
X4.9589Y-5.2365
X4.978Y-6.6805
X5.0325Y-4.4589
X5.1334Y-6.8292
X5.1878Y-4.6076
X5.2069Y-6.0516
X5.2614Y-3.8299
X5.3623Y-6.2003
X5.4168Y-3.9786
X5.4358Y-5.4226
X5.5912Y-5.5714
X5.6647Y-4.7937
X5.7116Y-7.1445
X5.8201Y-4.9424
X5.8231Y-7.3284
X5.8392Y-6.3864
X5.8937Y-4.1648
X5.9945Y-6.5352
X6.049Y-4.3135
X6.0681Y-5.7575
X6.1648Y-7.5982
X6.2235Y-5.9062
X6.297Y-5.1286
X6.3713Y-7.538
X6.4524Y-5.2773
X6.5259Y-4.4997
X6.6813Y-4.6484
X7.783Y-4.4997
X7.9976Y-4.5137
X8.0119Y-5.1286
X8.1441Y-7.5982
X8.2265Y-5.1426
X8.2393Y-7.7911
X8.2408Y-5.7575
X8.4153Y-4.1648
X8.4554Y-5.7716
X8.4697Y-6.3864
X8.5973Y-7.1445
X8.6299Y-4.1789
X8.6442Y-4.7937
X8.6843Y-6.4005
X8.8083Y-7.1026
X8.8588Y-4.8078
X8.8731Y-5.4226
X9.0475Y-3.8299
X9.0877Y-5.4367
X9.102Y-6.0516
X9.2621Y-3.844
X9.2764Y-4.4589
X9.3166Y-6.0656
X9.3309Y-6.6805
X9.491Y-4.4729
X9.5053Y-5.0878
X9.5455Y-6.6946
X9.72Y-5.1018
X9.7343Y-5.7167
X9.7471Y-3.68
X9.9489Y-5.7308
X9.9617Y-3.6941
X9.9632Y-6.3456
X9.976Y-4.309
X10.1778Y-6.3597
X10.1906Y-4.323
X10.2049Y-4.9379
X10.4195Y-4.952
X10.4338Y-5.5668
X10.4804Y-3.6226
X10.6484Y-5.5809
X10.6628Y-6.1957
X10.695Y-3.6367
X10.7093Y-4.2516
X10.8774Y-6.2098
X10.9239Y-4.2656
X10.9382Y-4.8805
X11.1463Y-3.3803
X11.1528Y-4.8946
X11.1671Y-5.5094
X11.3609Y-3.3943
X11.3752Y-4.0092
X11.3817Y-5.5235
X11.5898Y-4.0233
X11.6041Y-4.6381
X11.8187Y-4.6522
X11.833Y-5.267
X12.0476Y-5.2811
T3
X2.3958Y-5.4872
X2.6247Y-4.8582
X2.8536Y-4.2293
X3.0617Y-5.7295
X3.0825Y-3.6004
X3.2906Y-5.1006
X3.5195Y-4.4717
X3.566Y-6.4159
X3.7484Y-3.8428
X3.795Y-5.7869
X4.0239Y-5.158
X4.2528Y-4.5291
X4.2656Y-6.5658
X4.4817Y-3.9002
X4.4945Y-5.9368
X4.7235Y-5.3079
X4.8979Y-6.9006
X4.9524Y-4.679
X5.1268Y-6.2717
X5.1813Y-4.05
X5.3557Y-5.6428
X5.5772Y-7.3364
X5.5846Y-5.0138
X5.7591Y-6.6066
X5.8135Y-4.3849
X5.988Y-5.9776
X6.2169Y-5.3487
X6.3154Y-7.7776
X6.4458Y-4.7198
X7.8631Y-4.7198
X7.9936Y-7.7776
X8.092Y-5.3487
X8.3209Y-5.9776
X8.4954Y-4.3849
X8.5499Y-6.6066
X8.7243Y-5.0138
X8.7317Y-7.3364
X8.9532Y-5.6428
X9.1276Y-4.05
X9.1821Y-6.2717
X9.3566Y-4.679
X9.411Y-6.9006
X9.5855Y-5.3079
X9.8144Y-5.9368
X9.8272Y-3.9002
X10.0433Y-6.5658
X10.0561Y-4.5291
X10.2851Y-5.158
X10.514Y-5.7869
X10.5605Y-3.8428
X10.7429Y-6.4159
X10.7894Y-4.4717
X11.0183Y-5.1006
X11.2264Y-3.6004
X11.2472Y-5.7295
X11.4553Y-4.2293
X11.6842Y-4.8582
X11.9131Y-5.4872
T0
M30
