%TF.GenerationSoftware,KiCad,Pcbnew,7.0.1-0*%
%TF.CreationDate,2023-04-16T11:56:45-05:00*%
%TF.ProjectId,tutorial,7475746f-7269-4616-9c2e-6b696361645f,v1.0.0*%
%TF.SameCoordinates,Original*%
%TF.FileFunction,Soldermask,Bot*%
%TF.FilePolarity,Negative*%
%FSLAX46Y46*%
G04 Gerber Fmt 4.6, Leading zero omitted, Abs format (unit mm)*
G04 Created by KiCad (PCBNEW 7.0.1-0) date 2023-04-16 11:56:45*
%MOMM*%
%LPD*%
G01*
G04 APERTURE LIST*
G04 Aperture macros list*
%AMRoundRect*
0 Rectangle with rounded corners*
0 $1 Rounding radius*
0 $2 $3 $4 $5 $6 $7 $8 $9 X,Y pos of 4 corners*
0 Add a 4 corners polygon primitive as box body*
4,1,4,$2,$3,$4,$5,$6,$7,$8,$9,$2,$3,0*
0 Add four circle primitives for the rounded corners*
1,1,$1+$1,$2,$3*
1,1,$1+$1,$4,$5*
1,1,$1+$1,$6,$7*
1,1,$1+$1,$8,$9*
0 Add four rect primitives between the rounded corners*
20,1,$1+$1,$2,$3,$4,$5,0*
20,1,$1+$1,$4,$5,$6,$7,0*
20,1,$1+$1,$6,$7,$8,$9,0*
20,1,$1+$1,$8,$9,$2,$3,0*%
G04 Aperture macros list end*
%ADD10C,1.801800*%
%ADD11C,3.100000*%
%ADD12C,3.529000*%
%ADD13RoundRect,0.050000X-0.776974X-1.666227X1.666227X-0.776974X0.776974X1.666227X-1.666227X0.776974X0*%
%ADD14RoundRect,0.050000X-0.531331X-1.139443X1.139443X-0.531331X0.531331X1.139443X-1.139443X0.531331X0*%
%ADD15RoundRect,0.050000X-0.217650X-0.717725X0.628074X-0.409907X0.217650X0.717725X-0.628074X0.409907X0*%
%ADD16C,2.005000*%
%ADD17RoundRect,0.050000X-1.139443X-0.531331X0.531331X-1.139443X1.139443X0.531331X-0.531331X1.139443X0*%
%ADD18RoundRect,0.050000X-0.628074X-0.409907X0.217650X-0.717725X0.628074X0.409907X-0.217650X0.717725X0*%
%ADD19RoundRect,0.050000X-1.666227X-0.776974X0.776974X-1.666227X1.666227X0.776974X-0.776974X1.666227X0*%
%ADD20C,0.800000*%
%ADD21C,4.500000*%
%ADD22RoundRect,0.050000X-0.109575X-1.252452X1.252452X-0.109575X0.109575X1.252452X-1.252452X0.109575X0*%
%ADD23RoundRect,0.050000X0.040953X-0.748881X0.730393X-0.170372X-0.040953X0.748881X-0.730393X0.170372X0*%
%ADD24RoundRect,0.050000X-0.850000X-0.850000X0.850000X-0.850000X0.850000X0.850000X-0.850000X0.850000X0*%
%ADD25O,1.800000X1.800000*%
%ADD26RoundRect,0.050000X-0.876300X0.876300X-0.876300X-0.876300X0.876300X-0.876300X0.876300X0.876300X0*%
%ADD27C,1.852600*%
%ADD28RoundRect,0.050000X-0.160234X-1.831482X1.831482X-0.160234X0.160234X1.831482X-1.831482X0.160234X0*%
%ADD29RoundRect,0.050000X-1.252452X-0.109575X0.109575X-1.252452X1.252452X0.109575X-0.109575X1.252452X0*%
%ADD30RoundRect,0.050000X-0.730393X-0.170372X-0.040953X-0.748881X0.730393X0.170372X0.040953X0.748881X0*%
%ADD31RoundRect,0.050000X-1.831482X-0.160234X0.160234X-1.831482X1.831482X0.160234X-0.160234X1.831482X0*%
%ADD32RoundRect,0.050000X-0.319248X-1.810547X1.810547X-0.319248X0.319248X1.810547X-1.810547X0.319248X0*%
%ADD33RoundRect,0.050000X-0.218317X-1.238136X1.238136X-0.218317X0.218317X1.238136X-1.238136X0.218317X0*%
%ADD34RoundRect,0.050000X-0.024473X-0.749601X0.712764X-0.233382X0.024473X0.749601X-0.712764X0.233382X0*%
%ADD35RoundRect,0.050000X-1.810547X-0.319248X0.319248X-1.810547X1.810547X0.319248X-0.319248X1.810547X0*%
%ADD36RoundRect,0.050000X-1.238136X-0.218317X0.218317X-1.238136X1.238136X0.218317X-0.218317X1.238136X0*%
%ADD37RoundRect,0.050000X-0.712764X-0.233382X0.024473X-0.749601X0.712764X0.233382X-0.024473X0.749601X0*%
G04 APERTURE END LIST*
D10*
%TO.C,S56*%
X194555021Y-121763538D03*
D11*
X197688310Y-114291256D03*
D12*
X199723330Y-119882427D03*
D11*
X203139218Y-114648479D03*
D10*
X204891639Y-118001316D03*
D13*
X194610817Y-115411372D03*
X206216711Y-113528363D03*
%TD*%
D10*
%TO.C,S38*%
X267700746Y-164844313D03*
D11*
X270834035Y-157372031D03*
D12*
X272869055Y-162963202D03*
D11*
X276284943Y-157729254D03*
D10*
X278037364Y-161082091D03*
D13*
X267756542Y-158492147D03*
X279362436Y-156609138D03*
%TD*%
D14*
%TO.C,D35*%
X277994812Y-135557314D03*
D15*
X280024548Y-134818550D03*
X283125534Y-133689884D03*
D16*
X285155270Y-132951120D03*
%TD*%
D17*
%TO.C,D10*%
X91101621Y-150383792D03*
D18*
X93131357Y-151122556D03*
X96232343Y-152251222D03*
D16*
X98262079Y-152989986D03*
%TD*%
D10*
%TO.C,S17*%
X120621847Y-116964891D03*
D11*
X127825176Y-113254831D03*
D12*
X125790156Y-118846002D03*
D11*
X131771195Y-117032255D03*
D10*
X130958465Y-120727113D03*
D19*
X124747683Y-112134715D03*
X134848688Y-118152371D03*
%TD*%
D20*
%TO.C,_6*%
X294330321Y-147809110D03*
X294385406Y-146547457D03*
X295183494Y-148740185D03*
X295316481Y-145694284D03*
D21*
X295880814Y-147244777D03*
D20*
X296445147Y-148795270D03*
X296578134Y-145749369D03*
X297376222Y-147942097D03*
X297431307Y-146680444D03*
%TD*%
D17*
%TO.C,D25*%
X146804315Y-155227335D03*
D18*
X148834051Y-155966099D03*
X151935037Y-157094765D03*
D16*
X153964773Y-157833529D03*
%TD*%
D10*
%TO.C,S14*%
X103178821Y-164889222D03*
D11*
X110382150Y-161179162D03*
D12*
X108347130Y-166770333D03*
D11*
X114328169Y-164956586D03*
D10*
X113515439Y-168651444D03*
D19*
X107304657Y-160059046D03*
X117405662Y-166076702D03*
%TD*%
D14*
%TO.C,D39*%
X265184580Y-152989986D03*
D15*
X267214316Y-152251222D03*
X270315302Y-151122556D03*
D16*
X272345038Y-150383792D03*
%TD*%
D14*
%TO.C,D41*%
X253555893Y-121040438D03*
D15*
X255585629Y-120301674D03*
X258686615Y-119173008D03*
D16*
X260716351Y-118434244D03*
%TD*%
D10*
%TO.C,S33*%
X279982408Y-93330951D03*
D11*
X283115697Y-85858669D03*
D12*
X285150717Y-91449840D03*
D11*
X288566605Y-86215892D03*
D10*
X290319026Y-89568729D03*
D13*
X280038204Y-86978785D03*
X291644098Y-85095776D03*
%TD*%
D10*
%TO.C,S22*%
X136681256Y-125470494D03*
D11*
X143884585Y-121760434D03*
D12*
X141849565Y-127351605D03*
D11*
X147830604Y-125537858D03*
D10*
X147017874Y-129232716D03*
D19*
X140807092Y-120640318D03*
X150908097Y-126657974D03*
%TD*%
D10*
%TO.C,S43*%
X249931219Y-168651445D03*
D11*
X253064508Y-161179163D03*
D12*
X255099528Y-166770334D03*
D11*
X258515416Y-161536386D03*
D10*
X260267837Y-164889223D03*
D13*
X249987015Y-162299279D03*
X261592909Y-160416270D03*
%TD*%
D14*
%TO.C,D43*%
X253229407Y-172771892D03*
D15*
X255259143Y-172033128D03*
X258360129Y-170904462D03*
D16*
X260389865Y-170165698D03*
%TD*%
D10*
%TO.C,S8*%
X90042102Y-95725088D03*
D11*
X97245431Y-92015028D03*
D12*
X95210411Y-97606199D03*
D11*
X101191450Y-95792452D03*
D10*
X100378720Y-99487310D03*
D19*
X94167938Y-90894912D03*
X104268943Y-96912568D03*
%TD*%
D22*
%TO.C,D29*%
X160705522Y-203831244D03*
D23*
X162360178Y-202442823D03*
X164888124Y-200321623D03*
D16*
X166542780Y-198933202D03*
%TD*%
D10*
%TO.C,S19*%
X119238229Y-173394819D03*
D11*
X126441558Y-169684759D03*
D12*
X124406538Y-175275930D03*
D11*
X130387577Y-173462183D03*
D10*
X129574847Y-177157041D03*
D19*
X123364065Y-168564643D03*
X133465070Y-174582299D03*
%TD*%
D20*
%TO.C,_1*%
X83458379Y-98756116D03*
X84311552Y-97825041D03*
X83513464Y-100017769D03*
X85573205Y-97769956D03*
D21*
X85008872Y-99320449D03*
D20*
X84444539Y-100870942D03*
X86504280Y-98623129D03*
X85706192Y-100815857D03*
X86559365Y-99884782D03*
%TD*%
D10*
%TO.C,S16*%
X114807495Y-132939666D03*
D11*
X122010824Y-129229606D03*
D12*
X119975804Y-134820777D03*
D11*
X125956843Y-133007030D03*
D10*
X125144113Y-136701888D03*
D19*
X118933331Y-128109490D03*
X129034336Y-134127146D03*
%TD*%
D10*
%TO.C,S26*%
X152740678Y-133976084D03*
D11*
X159944007Y-130266024D03*
D12*
X157908987Y-135857195D03*
D11*
X163890026Y-134043448D03*
D10*
X163077296Y-137738306D03*
D19*
X156866514Y-129145908D03*
X166967519Y-135163564D03*
%TD*%
D14*
%TO.C,D36*%
X272180461Y-119582539D03*
D15*
X274210197Y-118843775D03*
X277311183Y-117715109D03*
D16*
X279340919Y-116976345D03*
%TD*%
D17*
%TO.C,D17*%
X120499832Y-122241369D03*
D18*
X122529568Y-122980133D03*
X125630554Y-124108799D03*
D16*
X127660290Y-124847563D03*
%TD*%
D17*
%TO.C,D16*%
X114685479Y-138216148D03*
D18*
X116715215Y-138954912D03*
X119816201Y-140083578D03*
D16*
X121845937Y-140822342D03*
%TD*%
D17*
%TO.C,D26*%
X152618658Y-139252562D03*
D18*
X154648394Y-139991326D03*
X157749380Y-141119992D03*
D16*
X159779116Y-141858756D03*
%TD*%
D17*
%TO.C,D22*%
X136559249Y-130746969D03*
D18*
X138588985Y-131485733D03*
X141689971Y-132614399D03*
D16*
X143719707Y-133353163D03*
%TD*%
D17*
%TO.C,D1*%
X55562585Y-142769522D03*
D18*
X57592321Y-143508286D03*
X60693307Y-144636952D03*
D16*
X62723043Y-145375716D03*
%TD*%
D14*
%TO.C,D30*%
X300723614Y-145375720D03*
D15*
X302753350Y-144636956D03*
X305854336Y-143508290D03*
D16*
X307884072Y-142769526D03*
%TD*%
D17*
%TO.C,D21*%
X130744898Y-146721741D03*
D18*
X132774634Y-147460505D03*
X135875620Y-148589171D03*
D16*
X137905356Y-149327935D03*
%TD*%
D24*
%TO.C,OLED1*%
X185523336Y-169231975D03*
D25*
X182983336Y-169231975D03*
X180443336Y-169231975D03*
X177903336Y-169231975D03*
%TD*%
D14*
%TO.C,D50*%
X225541303Y-149327940D03*
D15*
X227571039Y-148589176D03*
X230672025Y-147460510D03*
D16*
X232701761Y-146721746D03*
%TD*%
D14*
%TO.C,D34*%
X283809152Y-151532094D03*
D15*
X285838888Y-150793330D03*
X288939874Y-149664664D03*
D16*
X290969610Y-148925900D03*
%TD*%
D14*
%TO.C,D37*%
X266366125Y-103607768D03*
D15*
X268395861Y-102869004D03*
X271496847Y-101740338D03*
D16*
X273526583Y-101001574D03*
%TD*%
D10*
%TO.C,S39*%
X261886400Y-148869539D03*
D11*
X265019689Y-141397257D03*
D12*
X267054709Y-146988428D03*
D11*
X270470597Y-141754480D03*
D10*
X272223018Y-145107317D03*
D13*
X261942196Y-142517373D03*
X273548090Y-140634364D03*
%TD*%
D17*
%TO.C,D2*%
X61376932Y-126794752D03*
D18*
X63406668Y-127533516D03*
X66507654Y-128662182D03*
D16*
X68537390Y-129400946D03*
%TD*%
D26*
%TO.C,MCU1*%
X174103327Y-137861977D03*
D27*
X174103327Y-140401977D03*
X174103327Y-142941977D03*
X174103327Y-145481977D03*
X174103327Y-148021977D03*
X174103327Y-150561977D03*
X174103327Y-153101977D03*
X174103327Y-155641977D03*
X174103327Y-158181977D03*
X174103327Y-160721977D03*
X174103327Y-163261977D03*
X174103327Y-165801977D03*
X189343327Y-137861977D03*
X189343327Y-140401977D03*
X189343327Y-142941977D03*
X189343327Y-145481977D03*
X189343327Y-148021977D03*
X189343327Y-150561977D03*
X189343327Y-153101977D03*
X189343327Y-155641977D03*
X189343327Y-158181977D03*
X189343327Y-160721977D03*
X189343327Y-163261977D03*
X189343327Y-165801977D03*
%TD*%
D17*
%TO.C,D15*%
X108871139Y-154190930D03*
D18*
X110900875Y-154929694D03*
X114001861Y-156058360D03*
D16*
X116031597Y-156797124D03*
%TD*%
D10*
%TO.C,S32*%
X285796746Y-109305722D03*
D11*
X288930035Y-101833440D03*
D12*
X290965055Y-107424611D03*
D11*
X294380943Y-102190663D03*
D10*
X296133364Y-105543500D03*
D13*
X285852542Y-102953556D03*
X297458436Y-101070547D03*
%TD*%
D17*
%TO.C,D3*%
X67191269Y-110819979D03*
D18*
X69221005Y-111558743D03*
X72321991Y-112687409D03*
D16*
X74351727Y-113426173D03*
%TD*%
D20*
%TO.C,_4*%
X129278271Y-183380934D03*
X130131444Y-182449859D03*
X129333356Y-184642587D03*
X131393097Y-182394774D03*
D21*
X130828764Y-183945267D03*
D20*
X130264431Y-185495760D03*
X132324172Y-183247947D03*
X131526084Y-185440675D03*
X132379257Y-184509600D03*
%TD*%
D10*
%TO.C,S36*%
X268882282Y-115462087D03*
D11*
X272015571Y-107989805D03*
D12*
X274050591Y-113580976D03*
D11*
X277466479Y-108347028D03*
D10*
X279218900Y-111699865D03*
D13*
X268938078Y-109109921D03*
X280543972Y-107226912D03*
%TD*%
D10*
%TO.C,S15*%
X108993157Y-148914447D03*
D11*
X116196486Y-145204387D03*
D12*
X114161466Y-150795558D03*
D11*
X120142505Y-148981811D03*
D10*
X119329775Y-152676669D03*
D19*
X113118993Y-144084271D03*
X123219998Y-150101927D03*
%TD*%
D10*
%TO.C,S4*%
X73127633Y-89568725D03*
D11*
X80330962Y-85858665D03*
D12*
X78295942Y-91449836D03*
D11*
X84276981Y-89636089D03*
D10*
X83464251Y-93330947D03*
D19*
X77253469Y-84738549D03*
X87354474Y-90756205D03*
%TD*%
D14*
%TO.C,D32*%
X289094933Y-113426174D03*
D15*
X291124669Y-112687410D03*
X294225655Y-111558744D03*
D16*
X296255391Y-110819980D03*
%TD*%
D10*
%TO.C,S52*%
X210614440Y-113257937D03*
D11*
X213747729Y-105785655D03*
D12*
X215782749Y-111376826D03*
D11*
X219198637Y-106142878D03*
D10*
X220951058Y-109495715D03*
D13*
X210670236Y-106905771D03*
X222276130Y-105022762D03*
%TD*%
D10*
%TO.C,S10*%
X91223636Y-145107318D03*
D11*
X98426965Y-141397258D03*
D12*
X96391945Y-146988429D03*
D11*
X102372984Y-145174682D03*
D10*
X101560254Y-148869540D03*
D19*
X95349472Y-140277142D03*
X105450477Y-146294798D03*
%TD*%
D10*
%TO.C,S50*%
X222243120Y-145207490D03*
D11*
X225376409Y-137735208D03*
D12*
X227411429Y-143326379D03*
D11*
X230827317Y-138092431D03*
D10*
X232579738Y-141445268D03*
D13*
X222298916Y-138855324D03*
X233904810Y-136972315D03*
%TD*%
D10*
%TO.C,S7*%
X84227759Y-111699858D03*
D11*
X91431088Y-107989798D03*
D12*
X89396068Y-113580969D03*
D11*
X95377107Y-111767222D03*
D10*
X94564377Y-115462080D03*
D19*
X88353595Y-106869682D03*
X98454600Y-112887338D03*
%TD*%
D10*
%TO.C,S9*%
X85409298Y-161082090D03*
D11*
X92612627Y-157372030D03*
D12*
X90577607Y-162963201D03*
D11*
X96558646Y-161149454D03*
D10*
X95745916Y-164844312D03*
D19*
X89535134Y-156251914D03*
X99636139Y-162269570D03*
%TD*%
D17*
%TO.C,D12*%
X102730301Y-118434242D03*
D18*
X104760037Y-119173006D03*
X107861023Y-120301672D03*
D16*
X109890759Y-121040436D03*
%TD*%
D17*
%TO.C,D19*%
X119116222Y-178671295D03*
D18*
X121145958Y-179410059D03*
X124246944Y-180538725D03*
D16*
X126276680Y-181277489D03*
%TD*%
D10*
%TO.C,S20*%
X125052577Y-157420044D03*
D11*
X132255906Y-153709984D03*
D12*
X130220886Y-159301155D03*
D11*
X136201925Y-157487408D03*
D10*
X135389195Y-161182266D03*
D19*
X129178413Y-152589868D03*
X139279418Y-158607524D03*
%TD*%
D14*
%TO.C,D38*%
X270998924Y-168964758D03*
D15*
X273028660Y-168225994D03*
X276129646Y-167097328D03*
D16*
X278159382Y-166358564D03*
%TD*%
D10*
%TO.C,S55*%
X200369366Y-137738303D03*
D11*
X203502655Y-130266021D03*
D12*
X205537675Y-135857192D03*
D11*
X208953563Y-130623244D03*
D10*
X210705984Y-133976081D03*
D13*
X200425162Y-131386137D03*
X212031056Y-129503128D03*
%TD*%
D14*
%TO.C,D40*%
X259370240Y-137015215D03*
D15*
X261399976Y-136276451D03*
X264500962Y-135147785D03*
D16*
X266530698Y-134409021D03*
%TD*%
D14*
%TO.C,D56*%
X197853202Y-125883985D03*
D15*
X199882938Y-125145221D03*
X202983924Y-124016555D03*
D16*
X205013660Y-123277791D03*
%TD*%
D10*
%TO.C,S11*%
X97037982Y-129132539D03*
D11*
X104241311Y-125422479D03*
D12*
X102206291Y-131013650D03*
D11*
X108187330Y-129199903D03*
D10*
X107374600Y-132894761D03*
D19*
X101163818Y-124302363D03*
X111264823Y-130320019D03*
%TD*%
D14*
%TO.C,D33*%
X283280592Y-97451393D03*
D15*
X285310328Y-96712629D03*
X288411314Y-95583963D03*
D16*
X290441050Y-94845199D03*
%TD*%
D14*
%TO.C,D46*%
X235786378Y-124847566D03*
D15*
X237816114Y-124108802D03*
X240917100Y-122980136D03*
D16*
X242946836Y-122241372D03*
%TD*%
D14*
%TO.C,D47*%
X229972042Y-108872787D03*
D15*
X232001778Y-108134023D03*
X235102764Y-107005357D03*
D16*
X237132500Y-106266593D03*
%TD*%
D17*
%TO.C,D20*%
X124930549Y-162696516D03*
D18*
X126960285Y-163435280D03*
X130061271Y-164563946D03*
D16*
X132091007Y-165302710D03*
%TD*%
D14*
%TO.C,D31*%
X294909266Y-129400941D03*
D15*
X296939002Y-128662177D03*
X300039988Y-127533511D03*
D16*
X302069724Y-126794747D03*
%TD*%
D14*
%TO.C,D45*%
X241600724Y-140822343D03*
D15*
X243630460Y-140083579D03*
X246731446Y-138954913D03*
D16*
X248761182Y-138216149D03*
%TD*%
D17*
%TO.C,D18*%
X126314167Y-106266604D03*
D18*
X128343903Y-107005368D03*
X131444889Y-108134034D03*
D16*
X133474625Y-108872798D03*
%TD*%
D10*
%TO.C,S37*%
X263067941Y-99487312D03*
D11*
X266201230Y-92015030D03*
D12*
X268236250Y-97606201D03*
D11*
X271652138Y-92372253D03*
D10*
X273404559Y-95725090D03*
D13*
X263123737Y-93135146D03*
X274729631Y-91252137D03*
%TD*%
D10*
%TO.C,S25*%
X146926337Y-149950862D03*
D11*
X154129666Y-146240802D03*
D12*
X152094646Y-151831973D03*
D11*
X158075685Y-150018226D03*
D10*
X157262955Y-153713084D03*
D19*
X151052173Y-145120686D03*
X161153178Y-151138342D03*
%TD*%
D10*
%TO.C,S42*%
X244443370Y-100945206D03*
D11*
X247576659Y-93472924D03*
D12*
X249611679Y-99064095D03*
D11*
X253027567Y-93830147D03*
D10*
X254779988Y-97182984D03*
D13*
X244499166Y-94593040D03*
X256105060Y-92710031D03*
%TD*%
D10*
%TO.C,S29*%
X156196965Y-201087325D03*
D11*
X156585623Y-192994029D03*
D12*
X160410209Y-197551993D03*
D11*
X161829978Y-191465388D03*
D10*
X164623453Y-194016661D03*
D28*
X154076827Y-195099158D03*
X164338773Y-189360259D03*
%TD*%
D14*
%TO.C,D42*%
X247741558Y-105065661D03*
D15*
X249771294Y-104326897D03*
X252872280Y-103198231D03*
D16*
X254902016Y-102459467D03*
%TD*%
D10*
%TO.C,S24*%
X141111994Y-165925629D03*
D11*
X148315323Y-162215569D03*
D12*
X146280303Y-167806740D03*
D11*
X152261342Y-165992993D03*
D10*
X151448612Y-169687851D03*
D19*
X145237830Y-161095453D03*
X155338835Y-167113109D03*
%TD*%
D10*
%TO.C,S47*%
X226673852Y-104752339D03*
D11*
X229807141Y-97280057D03*
D12*
X231842161Y-102871228D03*
D11*
X235258049Y-97637280D03*
D10*
X237010470Y-100990117D03*
D13*
X226729648Y-98400173D03*
X238335542Y-96517164D03*
%TD*%
D10*
%TO.C,S5*%
X72599074Y-143649412D03*
D11*
X79802403Y-139939352D03*
D12*
X77767383Y-145530523D03*
D11*
X83748422Y-143716776D03*
D10*
X82935692Y-147411634D03*
D19*
X76724910Y-138819236D03*
X86825915Y-144836892D03*
%TD*%
D10*
%TO.C,S48*%
X233871802Y-177157036D03*
D11*
X237005091Y-169684754D03*
D12*
X239040111Y-175275925D03*
D11*
X242455999Y-170041977D03*
D10*
X244208420Y-173394814D03*
D13*
X233927598Y-170804870D03*
X245533492Y-168921861D03*
%TD*%
D29*
%TO.C,D58*%
X196903874Y-198933199D03*
D30*
X198558530Y-200321620D03*
X201086476Y-202442820D03*
D16*
X202741132Y-203831241D03*
%TD*%
D10*
%TO.C,S58*%
X198823198Y-194016669D03*
D11*
X206861028Y-192994037D03*
D12*
X203036442Y-197552001D03*
D11*
X209277118Y-197893272D03*
D10*
X207249686Y-201087333D03*
D31*
X204352233Y-190888907D03*
X211785913Y-199998402D03*
%TD*%
D10*
%TO.C,S40*%
X256072051Y-132894764D03*
D11*
X259205340Y-125422482D03*
D12*
X261240360Y-131013653D03*
D11*
X264656248Y-125779705D03*
D10*
X266408669Y-129132542D03*
D13*
X256127847Y-126542598D03*
X267733741Y-124659589D03*
%TD*%
D10*
%TO.C,S13*%
X108666666Y-97182984D03*
D11*
X115869995Y-93472924D03*
D12*
X113834975Y-99064095D03*
D11*
X119816014Y-97250348D03*
D10*
X119003284Y-100945206D03*
D19*
X112792502Y-92352808D03*
X122893507Y-98370464D03*
%TD*%
D10*
%TO.C,S21*%
X130866917Y-141445265D03*
D11*
X138070246Y-137735205D03*
D12*
X136035226Y-143326376D03*
D11*
X142016265Y-141512629D03*
D10*
X141203535Y-145207487D03*
D19*
X134992753Y-136615089D03*
X145093758Y-142632745D03*
%TD*%
D10*
%TO.C,S1*%
X55684600Y-137493053D03*
D11*
X62887929Y-133782993D03*
D12*
X60852909Y-139374164D03*
D11*
X66833948Y-137560417D03*
D10*
X66021218Y-141255275D03*
D19*
X59810436Y-132662877D03*
X69911441Y-138680533D03*
%TD*%
D17*
%TO.C,D11*%
X96915963Y-134409021D03*
D18*
X98945699Y-135147785D03*
X102046685Y-136276451D03*
D16*
X104076421Y-137015215D03*
%TD*%
D20*
%TO.C,_5*%
X276887287Y-99884786D03*
X276942372Y-98623133D03*
X277740460Y-100815861D03*
X277873447Y-97769960D03*
D21*
X278437780Y-99320453D03*
D20*
X279002113Y-100870946D03*
X279135100Y-97825045D03*
X279933188Y-100017773D03*
X279988273Y-98756120D03*
%TD*%
D17*
%TO.C,D24*%
X140989973Y-171202106D03*
D18*
X143019709Y-171940870D03*
X146120695Y-173069536D03*
D16*
X148150431Y-173808300D03*
%TD*%
D14*
%TO.C,D44*%
X247415058Y-156797116D03*
D15*
X249444794Y-156058352D03*
X252545780Y-154929686D03*
D16*
X254575516Y-154190922D03*
%TD*%
D17*
%TO.C,D5*%
X72477055Y-148925898D03*
D18*
X74506791Y-149664662D03*
X77607777Y-150793328D03*
D16*
X79637513Y-151532092D03*
%TD*%
D10*
%TO.C,S30*%
X297425432Y-141255276D03*
D11*
X300558721Y-133782994D03*
D12*
X302593741Y-139374165D03*
D11*
X306009629Y-134140217D03*
D10*
X307762050Y-137493054D03*
D13*
X297481228Y-134903110D03*
X309087122Y-133020101D03*
%TD*%
D17*
%TO.C,D7*%
X84105741Y-116976347D03*
D18*
X86135477Y-117715111D03*
X89236463Y-118843777D03*
D16*
X91266199Y-119582541D03*
%TD*%
D10*
%TO.C,S2*%
X61498949Y-121518283D03*
D11*
X68702278Y-117808223D03*
D12*
X66667258Y-123399394D03*
D11*
X72648297Y-121585647D03*
D10*
X71835567Y-125280505D03*
D19*
X65624785Y-116688107D03*
X75725790Y-122705763D03*
%TD*%
D10*
%TO.C,S41*%
X250257713Y-116919989D03*
D11*
X253391002Y-109447707D03*
D12*
X255426022Y-115038878D03*
D11*
X258841910Y-109804930D03*
D10*
X260594331Y-113157767D03*
D13*
X250313509Y-110567823D03*
X261919403Y-108684814D03*
%TD*%
D10*
%TO.C,S45*%
X238302538Y-136701889D03*
D11*
X241435827Y-129229607D03*
D12*
X243470847Y-134820778D03*
D11*
X246886735Y-129586830D03*
D10*
X248639156Y-132939667D03*
D13*
X238358334Y-130349723D03*
X249964228Y-128466714D03*
%TD*%
D20*
%TO.C,_3*%
X152244917Y-120280582D03*
X153098090Y-119349507D03*
X152300002Y-121542235D03*
X154359743Y-119294422D03*
D21*
X153795410Y-120844915D03*
D20*
X153231077Y-122395408D03*
X155290818Y-120147595D03*
X154492730Y-122340323D03*
X155345903Y-121409248D03*
%TD*%
D10*
%TO.C,S27*%
X158555017Y-118001299D03*
D11*
X165758346Y-114291239D03*
D12*
X163723326Y-119882410D03*
D11*
X169704365Y-118068663D03*
D10*
X168891635Y-121763521D03*
D19*
X162680853Y-113171123D03*
X172781858Y-119188779D03*
%TD*%
D10*
%TO.C,S49*%
X228057467Y-161182258D03*
D11*
X231190756Y-153709976D03*
D12*
X233225776Y-159301147D03*
D11*
X236641664Y-154067199D03*
D10*
X238394085Y-157420036D03*
D13*
X228113263Y-154830092D03*
X239719157Y-152947083D03*
%TD*%
D14*
%TO.C,D54*%
X209481888Y-157833532D03*
D15*
X211511624Y-157094768D03*
X214612610Y-155966102D03*
D16*
X216642346Y-155227338D03*
%TD*%
D10*
%TO.C,S51*%
X216428774Y-129232710D03*
D11*
X219562063Y-121760428D03*
D12*
X221597083Y-127351599D03*
D11*
X225012971Y-122117651D03*
D10*
X226765392Y-125470488D03*
D13*
X216484570Y-122880544D03*
X228090464Y-120997535D03*
%TD*%
D14*
%TO.C,D49*%
X231355647Y-165302714D03*
D15*
X233385383Y-164563950D03*
X236486369Y-163435284D03*
D16*
X238516105Y-162696520D03*
%TD*%
D10*
%TO.C,S6*%
X78413417Y-127674638D03*
D11*
X85616746Y-123964578D03*
D12*
X83581726Y-129555749D03*
D11*
X89562765Y-127742002D03*
D10*
X88750035Y-131436860D03*
D19*
X82539253Y-122844462D03*
X92640258Y-128862118D03*
%TD*%
D10*
%TO.C,S53*%
X211998047Y-169687849D03*
D11*
X215131336Y-162215567D03*
D12*
X217166356Y-167806738D03*
D11*
X220582244Y-162572790D03*
D10*
X222334665Y-165925627D03*
D13*
X212053843Y-163335683D03*
X223659737Y-161452674D03*
%TD*%
D14*
%TO.C,D53*%
X215296226Y-173808310D03*
D15*
X217325962Y-173069546D03*
X220426948Y-171940880D03*
D16*
X222456684Y-171202116D03*
%TD*%
D17*
%TO.C,D23*%
X142373579Y-114772194D03*
D18*
X144403315Y-115510958D03*
X147504301Y-116639624D03*
D16*
X149534037Y-117378388D03*
%TD*%
D17*
%TO.C,D4*%
X73005611Y-94845207D03*
D18*
X75035347Y-95583971D03*
X78136333Y-96712637D03*
D16*
X80166069Y-97451401D03*
%TD*%
D14*
%TO.C,D52*%
X213912617Y-117378388D03*
D15*
X215942353Y-116639624D03*
X219043339Y-115510958D03*
D16*
X221073075Y-114772194D03*
%TD*%
D14*
%TO.C,D55*%
X203667551Y-141858750D03*
D15*
X205697287Y-141119986D03*
X208798273Y-139991320D03*
D16*
X210828009Y-139252556D03*
%TD*%
D17*
%TO.C,D13*%
X108544647Y-102459466D03*
D18*
X110574383Y-103198230D03*
X113675369Y-104326896D03*
D16*
X115705105Y-105065660D03*
%TD*%
D13*
%TO.C,S54*%
X217845394Y-145477899D03*
X206239500Y-147360908D03*
D10*
X216520322Y-149950852D03*
D11*
X214767901Y-146598015D03*
D12*
X211352013Y-151831963D03*
D11*
X209316993Y-146240792D03*
D10*
X206183704Y-153713074D03*
%TD*%
%TO.C,S23*%
X142495600Y-109495715D03*
D11*
X149698929Y-105785655D03*
D12*
X147663909Y-111376826D03*
D11*
X153644948Y-109563079D03*
D10*
X152832218Y-113257937D03*
D19*
X146621436Y-104665539D03*
X156722441Y-110683195D03*
%TD*%
D20*
%TO.C,_2*%
X66015359Y-146680444D03*
X66868532Y-145749369D03*
X66070444Y-147942097D03*
X68130185Y-145694284D03*
D21*
X67565852Y-147244777D03*
D20*
X67001519Y-148795270D03*
X69061260Y-146547457D03*
X68263172Y-148740185D03*
X69116345Y-147809110D03*
%TD*%
D10*
%TO.C,S57*%
X217280021Y-189499608D03*
D11*
X218372577Y-181470983D03*
D12*
X221785357Y-186344938D03*
D11*
X223730206Y-180405236D03*
D10*
X226290693Y-183190268D03*
D32*
X215689854Y-183349446D03*
X226412929Y-178526773D03*
%TD*%
D17*
%TO.C,D14*%
X103056796Y-170165693D03*
D18*
X105086532Y-170904457D03*
X108187518Y-172033123D03*
D16*
X110217254Y-172771887D03*
%TD*%
D14*
%TO.C,D48*%
X237169982Y-181277479D03*
D15*
X239199718Y-180538715D03*
X242300704Y-179410049D03*
D16*
X244330440Y-178671285D03*
%TD*%
D33*
%TO.C,D57*%
X221532266Y-192626029D03*
D34*
X223301634Y-191387104D03*
X226004836Y-189494302D03*
D16*
X227774204Y-188255377D03*
%TD*%
D10*
%TO.C,S12*%
X102852334Y-113157763D03*
D11*
X110055663Y-109447703D03*
D12*
X108020643Y-115038874D03*
D11*
X114001682Y-113225127D03*
D10*
X113188952Y-116919985D03*
D19*
X106978170Y-108327587D03*
X117079175Y-114345243D03*
%TD*%
D20*
%TO.C,_7*%
X208100762Y-121409253D03*
X208155847Y-120147600D03*
X208953935Y-122340328D03*
X209086922Y-119294427D03*
D21*
X209651255Y-120844920D03*
D20*
X210215588Y-122395413D03*
X210348575Y-119349512D03*
X211146663Y-121542240D03*
X211201748Y-120280587D03*
%TD*%
D10*
%TO.C,S34*%
X280510963Y-147411636D03*
D11*
X283644252Y-139939354D03*
D12*
X285679272Y-145530525D03*
D11*
X289095160Y-140296577D03*
D10*
X290847581Y-143649414D03*
D13*
X280566759Y-141059470D03*
X292172653Y-139176461D03*
%TD*%
D10*
%TO.C,S28*%
X137155967Y-183190267D03*
D11*
X145074083Y-181470982D03*
D12*
X141661303Y-186344937D03*
D11*
X147907975Y-186140999D03*
D10*
X146166639Y-189499607D03*
D35*
X142391360Y-179592520D03*
X150590698Y-188019462D03*
%TD*%
D17*
%TO.C,D6*%
X78291401Y-132951114D03*
D18*
X80321137Y-133689878D03*
X83422123Y-134818544D03*
D16*
X85451859Y-135557308D03*
%TD*%
D10*
%TO.C,S35*%
X274696628Y-131436863D03*
D11*
X277829917Y-123964581D03*
D12*
X279864937Y-129555752D03*
D11*
X283280825Y-124321804D03*
D10*
X285033246Y-127674641D03*
D13*
X274752424Y-125084697D03*
X286358318Y-123201688D03*
%TD*%
D10*
%TO.C,S44*%
X244116882Y-152676666D03*
D11*
X247250171Y-145204384D03*
D12*
X249285191Y-150795555D03*
D11*
X252701079Y-145561607D03*
D10*
X254453500Y-148914444D03*
D13*
X244172678Y-146324500D03*
X255778572Y-144441491D03*
%TD*%
D10*
%TO.C,S31*%
X291611092Y-125280504D03*
D11*
X294744381Y-117808222D03*
D12*
X296779401Y-123399393D03*
D11*
X300195289Y-118165445D03*
D10*
X301947710Y-121518282D03*
D13*
X291666888Y-118928338D03*
X303272782Y-117045329D03*
%TD*%
D14*
%TO.C,D51*%
X219726960Y-133353157D03*
D15*
X221756696Y-132614393D03*
X224857682Y-131485727D03*
D16*
X226887418Y-130746963D03*
%TD*%
D10*
%TO.C,S18*%
X126436185Y-100990117D03*
D11*
X133639514Y-97280057D03*
D12*
X131604494Y-102871228D03*
D11*
X137585533Y-101057481D03*
D10*
X136772803Y-104752339D03*
D19*
X130562021Y-96159941D03*
X140663026Y-102177597D03*
%TD*%
D20*
%TO.C,_8*%
X231067409Y-184509613D03*
X231122494Y-183247960D03*
X231920582Y-185440688D03*
X232053569Y-182394787D03*
D21*
X232617902Y-183945280D03*
D20*
X233182235Y-185495773D03*
X233315222Y-182449872D03*
X234113310Y-184642600D03*
X234168395Y-183380947D03*
%TD*%
D17*
%TO.C,D27*%
X158432998Y-123277788D03*
D18*
X160462734Y-124016552D03*
X163563720Y-125145218D03*
D16*
X165593456Y-125883982D03*
%TD*%
D36*
%TO.C,D28*%
X135672453Y-188255376D03*
D37*
X137441821Y-189494301D03*
X140145023Y-191387103D03*
D16*
X141914391Y-192626028D03*
%TD*%
D17*
%TO.C,D9*%
X85287277Y-166358561D03*
D18*
X87317013Y-167097325D03*
X90417999Y-168225991D03*
D16*
X92447735Y-168964755D03*
%TD*%
D10*
%TO.C,S3*%
X67313296Y-105543501D03*
D11*
X74516625Y-101833441D03*
D12*
X72481605Y-107424612D03*
D11*
X78462644Y-105610865D03*
D10*
X77649914Y-109305723D03*
D19*
X71439132Y-100713325D03*
X81540137Y-106730981D03*
%TD*%
D17*
%TO.C,D8*%
X89920077Y-101001572D03*
D18*
X91949813Y-101740336D03*
X95050799Y-102869002D03*
D16*
X97080535Y-103607766D03*
%TD*%
D10*
%TO.C,S46*%
X232488203Y-120727118D03*
D11*
X235621492Y-113254836D03*
D12*
X237656512Y-118846007D03*
D11*
X241072400Y-113612059D03*
D10*
X242824821Y-116964896D03*
D13*
X232543999Y-114374952D03*
X244149893Y-112491943D03*
%TD*%
M02*
