%TF.GenerationSoftware,KiCad,Pcbnew,7.0.1-0*%
%TF.CreationDate,2023-04-16T11:56:45-05:00*%
%TF.ProjectId,tutorial,7475746f-7269-4616-9c2e-6b696361645f,v1.0.0*%
%TF.SameCoordinates,Original*%
%TF.FileFunction,Profile,NP*%
%FSLAX46Y46*%
G04 Gerber Fmt 4.6, Leading zero omitted, Abs format (unit mm)*
G04 Created by KiCad (PCBNEW 7.0.1-0) date 2023-04-16 11:56:45*
%MOMM*%
%LPD*%
G01*
G04 APERTURE LIST*
%TA.AperFunction,Profile*%
%ADD10C,0.150000*%
%TD*%
G04 APERTURE END LIST*
D10*
X174966711Y-199697116D02*
X160640646Y-211718121D01*
X177055556Y-115414270D02*
G75*
G03*
X176112253Y-112962812I-1879433J684025D01*
G01*
X202806015Y-211718124D02*
X188479948Y-199697128D01*
X158171349Y-211798126D02*
G75*
G03*
X160640647Y-211718130I1183722J1612011D01*
G01*
X218044214Y-96719403D02*
X238457671Y-89289505D01*
X73253314Y-78185666D02*
X124723937Y-89213274D01*
X73253322Y-78185631D02*
G75*
G03*
X70954939Y-79457245I-419015J-1955567D01*
G01*
X145654474Y-96831378D02*
X176112250Y-112962813D01*
X126384450Y-188541316D02*
X76928968Y-169177074D01*
X124988982Y-89289516D02*
X145402435Y-96719401D01*
X292491672Y-79457265D02*
G75*
G03*
X290193352Y-78185665I-1879369J-683996D01*
G01*
X286517690Y-169177074D02*
G75*
G03*
X287031741Y-168881369I-729391J1862625D01*
G01*
X145654476Y-96831375D02*
G75*
G03*
X145402435Y-96719402I-935544J-1766173D01*
G01*
X187334407Y-112962814D02*
X217792182Y-96831372D01*
X174693111Y-129752644D02*
X188753543Y-129752647D01*
X172813747Y-127068612D02*
G75*
G03*
X174693111Y-129752644I1879434J-684000D01*
G01*
X188753543Y-129752613D02*
G75*
G03*
X190632934Y-127068602I65J1999951D01*
G01*
X315392387Y-146374772D02*
G75*
G03*
X316028549Y-144124129I-1243212J1566633D01*
G01*
X126838974Y-188791564D02*
G75*
G03*
X126384450Y-188541317I-1183530J-1611747D01*
G01*
X292491722Y-79457247D02*
X316028549Y-144124129D01*
X76414915Y-168881359D02*
X48054249Y-146374797D01*
X237062209Y-188541299D02*
G75*
G03*
X236607688Y-188791548I729113J-1862162D01*
G01*
X47418115Y-144124138D02*
X70954937Y-79457244D01*
X124988983Y-89289512D02*
G75*
G03*
X124723937Y-89213274I-683921J-1878849D01*
G01*
X176252287Y-199229190D02*
G75*
G03*
X174966711Y-199697116I39J-2000059D01*
G01*
X236607688Y-188791548D02*
X205275309Y-211798125D01*
X187194378Y-199229211D02*
X176252287Y-199229217D01*
X187334434Y-112962865D02*
G75*
G03*
X186391098Y-115414269I936154J-1767452D01*
G01*
X218044216Y-96719409D02*
G75*
G03*
X217792182Y-96831373I684124J-1879638D01*
G01*
X76414907Y-168881369D02*
G75*
G03*
X76928968Y-169177074I1243092J1566340D01*
G01*
X188479974Y-199697097D02*
G75*
G03*
X187194378Y-199229211I-1285634J-1532356D01*
G01*
X238722721Y-89213282D02*
X290193350Y-78185669D01*
X238722718Y-89213270D02*
G75*
G03*
X238457671Y-89289505I419264J-1956515D01*
G01*
X47418121Y-144124140D02*
G75*
G03*
X48054249Y-146374797I1879436J-684020D01*
G01*
X286517688Y-169177070D02*
X237062212Y-188541306D01*
X190632934Y-127068602D02*
X186391098Y-115414269D01*
X158171353Y-211798121D02*
X126838979Y-188791557D01*
X315392407Y-146374798D02*
X287031745Y-168881367D01*
X202806005Y-211718136D02*
G75*
G03*
X205275303Y-211798120I1285575J1532245D01*
G01*
X177055558Y-115414271D02*
X172813730Y-127068606D01*
M02*
