%TF.GenerationSoftware,KiCad,Pcbnew,7.0.1-0*%
%TF.CreationDate,2023-04-16T11:56:44-05:00*%
%TF.ProjectId,tutorial,7475746f-7269-4616-9c2e-6b696361645f,v1.0.0*%
%TF.SameCoordinates,Original*%
%TF.FileFunction,Paste,Bot*%
%TF.FilePolarity,Positive*%
%FSLAX46Y46*%
G04 Gerber Fmt 4.6, Leading zero omitted, Abs format (unit mm)*
G04 Created by KiCad (PCBNEW 7.0.1-0) date 2023-04-16 11:56:44*
%MOMM*%
%LPD*%
G01*
G04 APERTURE LIST*
G04 Aperture macros list*
%AMRotRect*
0 Rectangle, with rotation*
0 The origin of the aperture is its center*
0 $1 length*
0 $2 width*
0 $3 Rotation angle, in degrees counterclockwise*
0 Add horizontal line*
21,1,$1,$2,0,0,$3*%
G04 Aperture macros list end*
%ADD10RotRect,2.600000X2.600000X20.000000*%
%ADD11RotRect,0.900000X1.200000X20.000000*%
%ADD12RotRect,0.900000X1.200000X340.000000*%
%ADD13RotRect,2.600000X2.600000X340.000000*%
%ADD14RotRect,0.900000X1.200000X40.000000*%
%ADD15RotRect,2.600000X2.600000X40.000000*%
%ADD16RotRect,0.900000X1.200000X320.000000*%
%ADD17RotRect,2.600000X2.600000X320.000000*%
%ADD18RotRect,2.600000X2.600000X35.000000*%
%ADD19RotRect,0.900000X1.200000X35.000000*%
%ADD20RotRect,2.600000X2.600000X325.000000*%
%ADD21RotRect,0.900000X1.200000X325.000000*%
G04 APERTURE END LIST*
D10*
%TO.C,S56*%
X194610817Y-115411372D03*
X206216711Y-113528363D03*
%TD*%
%TO.C,S38*%
X267756542Y-158492147D03*
X279362436Y-156609138D03*
%TD*%
D11*
%TO.C,D35*%
X280024548Y-134818550D03*
X283125534Y-133689884D03*
%TD*%
D12*
%TO.C,D10*%
X93131357Y-151122556D03*
X96232343Y-152251222D03*
%TD*%
D13*
%TO.C,S17*%
X124747683Y-112134715D03*
X134848688Y-118152371D03*
%TD*%
D12*
%TO.C,D25*%
X148834051Y-155966099D03*
X151935037Y-157094765D03*
%TD*%
D13*
%TO.C,S14*%
X107304657Y-160059046D03*
X117405662Y-166076702D03*
%TD*%
D11*
%TO.C,D39*%
X267214316Y-152251222D03*
X270315302Y-151122556D03*
%TD*%
%TO.C,D41*%
X255585629Y-120301674D03*
X258686615Y-119173008D03*
%TD*%
D10*
%TO.C,S33*%
X280038204Y-86978785D03*
X291644098Y-85095776D03*
%TD*%
D13*
%TO.C,S22*%
X140807092Y-120640318D03*
X150908097Y-126657974D03*
%TD*%
D10*
%TO.C,S43*%
X249987015Y-162299279D03*
X261592909Y-160416270D03*
%TD*%
D11*
%TO.C,D43*%
X255259143Y-172033128D03*
X258360129Y-170904462D03*
%TD*%
D13*
%TO.C,S8*%
X94167938Y-90894912D03*
X104268943Y-96912568D03*
%TD*%
D14*
%TO.C,D29*%
X162360178Y-202442823D03*
X164888124Y-200321623D03*
%TD*%
D13*
%TO.C,S19*%
X123364065Y-168564643D03*
X133465070Y-174582299D03*
%TD*%
%TO.C,S16*%
X118933331Y-128109490D03*
X129034336Y-134127146D03*
%TD*%
%TO.C,S26*%
X156866514Y-129145908D03*
X166967519Y-135163564D03*
%TD*%
D11*
%TO.C,D36*%
X274210197Y-118843775D03*
X277311183Y-117715109D03*
%TD*%
D12*
%TO.C,D17*%
X122529568Y-122980133D03*
X125630554Y-124108799D03*
%TD*%
%TO.C,D16*%
X116715215Y-138954912D03*
X119816201Y-140083578D03*
%TD*%
%TO.C,D26*%
X154648394Y-139991326D03*
X157749380Y-141119992D03*
%TD*%
%TO.C,D22*%
X138588985Y-131485733D03*
X141689971Y-132614399D03*
%TD*%
%TO.C,D1*%
X57592321Y-143508286D03*
X60693307Y-144636952D03*
%TD*%
D11*
%TO.C,D30*%
X302753350Y-144636956D03*
X305854336Y-143508290D03*
%TD*%
D12*
%TO.C,D21*%
X132774634Y-147460505D03*
X135875620Y-148589171D03*
%TD*%
D11*
%TO.C,D50*%
X227571039Y-148589176D03*
X230672025Y-147460510D03*
%TD*%
%TO.C,D34*%
X285838888Y-150793330D03*
X288939874Y-149664664D03*
%TD*%
%TO.C,D37*%
X268395861Y-102869004D03*
X271496847Y-101740338D03*
%TD*%
D10*
%TO.C,S39*%
X261942196Y-142517373D03*
X273548090Y-140634364D03*
%TD*%
D12*
%TO.C,D2*%
X63406668Y-127533516D03*
X66507654Y-128662182D03*
%TD*%
%TO.C,D15*%
X110900875Y-154929694D03*
X114001861Y-156058360D03*
%TD*%
D10*
%TO.C,S32*%
X285852542Y-102953556D03*
X297458436Y-101070547D03*
%TD*%
D12*
%TO.C,D3*%
X69221005Y-111558743D03*
X72321991Y-112687409D03*
%TD*%
D10*
%TO.C,S36*%
X268938078Y-109109921D03*
X280543972Y-107226912D03*
%TD*%
D13*
%TO.C,S15*%
X113118993Y-144084271D03*
X123219998Y-150101927D03*
%TD*%
%TO.C,S4*%
X77253469Y-84738549D03*
X87354474Y-90756205D03*
%TD*%
D11*
%TO.C,D32*%
X291124669Y-112687410D03*
X294225655Y-111558744D03*
%TD*%
D10*
%TO.C,S52*%
X210670236Y-106905771D03*
X222276130Y-105022762D03*
%TD*%
D13*
%TO.C,S10*%
X95349472Y-140277142D03*
X105450477Y-146294798D03*
%TD*%
D10*
%TO.C,S50*%
X222298916Y-138855324D03*
X233904810Y-136972315D03*
%TD*%
D13*
%TO.C,S7*%
X88353595Y-106869682D03*
X98454600Y-112887338D03*
%TD*%
%TO.C,S9*%
X89535134Y-156251914D03*
X99636139Y-162269570D03*
%TD*%
D12*
%TO.C,D12*%
X104760037Y-119173006D03*
X107861023Y-120301672D03*
%TD*%
%TO.C,D19*%
X121145958Y-179410059D03*
X124246944Y-180538725D03*
%TD*%
D13*
%TO.C,S20*%
X129178413Y-152589868D03*
X139279418Y-158607524D03*
%TD*%
D11*
%TO.C,D38*%
X273028660Y-168225994D03*
X276129646Y-167097328D03*
%TD*%
D10*
%TO.C,S55*%
X200425162Y-131386137D03*
X212031056Y-129503128D03*
%TD*%
D11*
%TO.C,D40*%
X261399976Y-136276451D03*
X264500962Y-135147785D03*
%TD*%
%TO.C,D56*%
X199882938Y-125145221D03*
X202983924Y-124016555D03*
%TD*%
D13*
%TO.C,S11*%
X101163818Y-124302363D03*
X111264823Y-130320019D03*
%TD*%
D11*
%TO.C,D33*%
X285310328Y-96712629D03*
X288411314Y-95583963D03*
%TD*%
%TO.C,D46*%
X237816114Y-124108802D03*
X240917100Y-122980136D03*
%TD*%
%TO.C,D47*%
X232001778Y-108134023D03*
X235102764Y-107005357D03*
%TD*%
D12*
%TO.C,D20*%
X126960285Y-163435280D03*
X130061271Y-164563946D03*
%TD*%
D11*
%TO.C,D31*%
X296939002Y-128662177D03*
X300039988Y-127533511D03*
%TD*%
%TO.C,D45*%
X243630460Y-140083579D03*
X246731446Y-138954913D03*
%TD*%
D12*
%TO.C,D18*%
X128343903Y-107005368D03*
X131444889Y-108134034D03*
%TD*%
D10*
%TO.C,S37*%
X263123737Y-93135146D03*
X274729631Y-91252137D03*
%TD*%
D13*
%TO.C,S25*%
X151052173Y-145120686D03*
X161153178Y-151138342D03*
%TD*%
D10*
%TO.C,S42*%
X244499166Y-94593040D03*
X256105060Y-92710031D03*
%TD*%
D15*
%TO.C,S29*%
X154076827Y-195099158D03*
X164338773Y-189360259D03*
%TD*%
D11*
%TO.C,D42*%
X249771294Y-104326897D03*
X252872280Y-103198231D03*
%TD*%
D13*
%TO.C,S24*%
X145237830Y-161095453D03*
X155338835Y-167113109D03*
%TD*%
D10*
%TO.C,S47*%
X226729648Y-98400173D03*
X238335542Y-96517164D03*
%TD*%
D13*
%TO.C,S5*%
X76724910Y-138819236D03*
X86825915Y-144836892D03*
%TD*%
D10*
%TO.C,S48*%
X233927598Y-170804870D03*
X245533492Y-168921861D03*
%TD*%
D16*
%TO.C,D58*%
X198558530Y-200321620D03*
X201086476Y-202442820D03*
%TD*%
D17*
%TO.C,S58*%
X204352233Y-190888907D03*
X211785913Y-199998402D03*
%TD*%
D10*
%TO.C,S40*%
X256127847Y-126542598D03*
X267733741Y-124659589D03*
%TD*%
D13*
%TO.C,S13*%
X112792502Y-92352808D03*
X122893507Y-98370464D03*
%TD*%
%TO.C,S21*%
X134992753Y-136615089D03*
X145093758Y-142632745D03*
%TD*%
%TO.C,S1*%
X59810436Y-132662877D03*
X69911441Y-138680533D03*
%TD*%
D12*
%TO.C,D11*%
X98945699Y-135147785D03*
X102046685Y-136276451D03*
%TD*%
%TO.C,D24*%
X143019709Y-171940870D03*
X146120695Y-173069536D03*
%TD*%
D11*
%TO.C,D44*%
X249444794Y-156058352D03*
X252545780Y-154929686D03*
%TD*%
D12*
%TO.C,D5*%
X74506791Y-149664662D03*
X77607777Y-150793328D03*
%TD*%
D10*
%TO.C,S30*%
X297481228Y-134903110D03*
X309087122Y-133020101D03*
%TD*%
D12*
%TO.C,D7*%
X86135477Y-117715111D03*
X89236463Y-118843777D03*
%TD*%
D13*
%TO.C,S2*%
X65624785Y-116688107D03*
X75725790Y-122705763D03*
%TD*%
D10*
%TO.C,S41*%
X250313509Y-110567823D03*
X261919403Y-108684814D03*
%TD*%
%TO.C,S45*%
X238358334Y-130349723D03*
X249964228Y-128466714D03*
%TD*%
D13*
%TO.C,S27*%
X162680853Y-113171123D03*
X172781858Y-119188779D03*
%TD*%
D10*
%TO.C,S49*%
X228113263Y-154830092D03*
X239719157Y-152947083D03*
%TD*%
D11*
%TO.C,D54*%
X211511624Y-157094768D03*
X214612610Y-155966102D03*
%TD*%
D10*
%TO.C,S51*%
X216484570Y-122880544D03*
X228090464Y-120997535D03*
%TD*%
D11*
%TO.C,D49*%
X233385383Y-164563950D03*
X236486369Y-163435284D03*
%TD*%
D13*
%TO.C,S6*%
X82539253Y-122844462D03*
X92640258Y-128862118D03*
%TD*%
D10*
%TO.C,S53*%
X212053843Y-163335683D03*
X223659737Y-161452674D03*
%TD*%
D11*
%TO.C,D53*%
X217325962Y-173069546D03*
X220426948Y-171940880D03*
%TD*%
D12*
%TO.C,D23*%
X144403315Y-115510958D03*
X147504301Y-116639624D03*
%TD*%
%TO.C,D4*%
X75035347Y-95583971D03*
X78136333Y-96712637D03*
%TD*%
D11*
%TO.C,D52*%
X215942353Y-116639624D03*
X219043339Y-115510958D03*
%TD*%
%TO.C,D55*%
X205697287Y-141119986D03*
X208798273Y-139991320D03*
%TD*%
D12*
%TO.C,D13*%
X110574383Y-103198230D03*
X113675369Y-104326896D03*
%TD*%
D10*
%TO.C,S54*%
X217845394Y-145477899D03*
X206239500Y-147360908D03*
%TD*%
D13*
%TO.C,S23*%
X146621436Y-104665539D03*
X156722441Y-110683195D03*
%TD*%
D18*
%TO.C,S57*%
X215689854Y-183349446D03*
X226412929Y-178526773D03*
%TD*%
D12*
%TO.C,D14*%
X105086532Y-170904457D03*
X108187518Y-172033123D03*
%TD*%
D11*
%TO.C,D48*%
X239199718Y-180538715D03*
X242300704Y-179410049D03*
%TD*%
D19*
%TO.C,D57*%
X223301634Y-191387104D03*
X226004836Y-189494302D03*
%TD*%
D13*
%TO.C,S12*%
X106978170Y-108327587D03*
X117079175Y-114345243D03*
%TD*%
D10*
%TO.C,S34*%
X280566759Y-141059470D03*
X292172653Y-139176461D03*
%TD*%
D20*
%TO.C,S28*%
X142391360Y-179592520D03*
X150590698Y-188019462D03*
%TD*%
D12*
%TO.C,D6*%
X80321137Y-133689878D03*
X83422123Y-134818544D03*
%TD*%
D10*
%TO.C,S35*%
X274752424Y-125084697D03*
X286358318Y-123201688D03*
%TD*%
%TO.C,S44*%
X244172678Y-146324500D03*
X255778572Y-144441491D03*
%TD*%
%TO.C,S31*%
X291666888Y-118928338D03*
X303272782Y-117045329D03*
%TD*%
D11*
%TO.C,D51*%
X221756696Y-132614393D03*
X224857682Y-131485727D03*
%TD*%
D13*
%TO.C,S18*%
X130562021Y-96159941D03*
X140663026Y-102177597D03*
%TD*%
D12*
%TO.C,D27*%
X160462734Y-124016552D03*
X163563720Y-125145218D03*
%TD*%
D21*
%TO.C,D28*%
X137441821Y-189494301D03*
X140145023Y-191387103D03*
%TD*%
D12*
%TO.C,D9*%
X87317013Y-167097325D03*
X90417999Y-168225991D03*
%TD*%
D13*
%TO.C,S3*%
X71439132Y-100713325D03*
X81540137Y-106730981D03*
%TD*%
D12*
%TO.C,D8*%
X91949813Y-101740336D03*
X95050799Y-102869002D03*
%TD*%
D10*
%TO.C,S46*%
X232543999Y-114374952D03*
X244149893Y-112491943D03*
%TD*%
M02*
