%TF.GenerationSoftware,KiCad,Pcbnew,7.0.1-0*%
%TF.CreationDate,2023-04-16T11:56:44-05:00*%
%TF.ProjectId,tutorial,7475746f-7269-4616-9c2e-6b696361645f,v1.0.0*%
%TF.SameCoordinates,Original*%
%TF.FileFunction,Paste,Top*%
%TF.FilePolarity,Positive*%
%FSLAX46Y46*%
G04 Gerber Fmt 4.6, Leading zero omitted, Abs format (unit mm)*
G04 Created by KiCad (PCBNEW 7.0.1-0) date 2023-04-16 11:56:44*
%MOMM*%
%LPD*%
G01*
G04 APERTURE LIST*
G04 Aperture macros list*
%AMRotRect*
0 Rectangle, with rotation*
0 The origin of the aperture is its center*
0 $1 length*
0 $2 width*
0 $3 Rotation angle, in degrees counterclockwise*
0 Add horizontal line*
21,1,$1,$2,0,0,$3*%
G04 Aperture macros list end*
%ADD10R,1.100000X1.800000*%
%ADD11RotRect,0.900000X1.200000X20.000000*%
%ADD12RotRect,0.900000X1.200000X340.000000*%
%ADD13RotRect,0.900000X1.200000X40.000000*%
%ADD14RotRect,0.900000X1.200000X320.000000*%
%ADD15RotRect,0.900000X1.200000X35.000000*%
%ADD16RotRect,0.900000X1.200000X325.000000*%
G04 APERTURE END LIST*
D10*
%TO.C,B1*%
X183573329Y-173175926D03*
X183573329Y-179375926D03*
X179873329Y-173175926D03*
X179873329Y-179375926D03*
%TD*%
D11*
%TO.C,D35*%
X280024548Y-134818550D03*
X283125534Y-133689884D03*
%TD*%
D12*
%TO.C,D10*%
X93131357Y-151122556D03*
X96232343Y-152251222D03*
%TD*%
%TO.C,D25*%
X148834051Y-155966099D03*
X151935037Y-157094765D03*
%TD*%
D11*
%TO.C,D39*%
X267214316Y-152251222D03*
X270315302Y-151122556D03*
%TD*%
%TO.C,D41*%
X255585629Y-120301674D03*
X258686615Y-119173008D03*
%TD*%
%TO.C,D43*%
X255259143Y-172033128D03*
X258360129Y-170904462D03*
%TD*%
D13*
%TO.C,D29*%
X162360178Y-202442823D03*
X164888124Y-200321623D03*
%TD*%
D11*
%TO.C,D36*%
X274210197Y-118843775D03*
X277311183Y-117715109D03*
%TD*%
D12*
%TO.C,D17*%
X122529568Y-122980133D03*
X125630554Y-124108799D03*
%TD*%
%TO.C,D16*%
X116715215Y-138954912D03*
X119816201Y-140083578D03*
%TD*%
%TO.C,D26*%
X154648394Y-139991326D03*
X157749380Y-141119992D03*
%TD*%
%TO.C,D22*%
X138588985Y-131485733D03*
X141689971Y-132614399D03*
%TD*%
%TO.C,D1*%
X57592321Y-143508286D03*
X60693307Y-144636952D03*
%TD*%
D11*
%TO.C,D30*%
X302753350Y-144636956D03*
X305854336Y-143508290D03*
%TD*%
D12*
%TO.C,D21*%
X132774634Y-147460505D03*
X135875620Y-148589171D03*
%TD*%
D11*
%TO.C,D50*%
X227571039Y-148589176D03*
X230672025Y-147460510D03*
%TD*%
%TO.C,D34*%
X285838888Y-150793330D03*
X288939874Y-149664664D03*
%TD*%
%TO.C,D37*%
X268395861Y-102869004D03*
X271496847Y-101740338D03*
%TD*%
D12*
%TO.C,D2*%
X63406668Y-127533516D03*
X66507654Y-128662182D03*
%TD*%
%TO.C,D15*%
X110900875Y-154929694D03*
X114001861Y-156058360D03*
%TD*%
%TO.C,D3*%
X69221005Y-111558743D03*
X72321991Y-112687409D03*
%TD*%
D11*
%TO.C,D32*%
X291124669Y-112687410D03*
X294225655Y-111558744D03*
%TD*%
D12*
%TO.C,D12*%
X104760037Y-119173006D03*
X107861023Y-120301672D03*
%TD*%
%TO.C,D19*%
X121145958Y-179410059D03*
X124246944Y-180538725D03*
%TD*%
D11*
%TO.C,D38*%
X273028660Y-168225994D03*
X276129646Y-167097328D03*
%TD*%
%TO.C,D40*%
X261399976Y-136276451D03*
X264500962Y-135147785D03*
%TD*%
%TO.C,D56*%
X199882938Y-125145221D03*
X202983924Y-124016555D03*
%TD*%
%TO.C,D33*%
X285310328Y-96712629D03*
X288411314Y-95583963D03*
%TD*%
%TO.C,D46*%
X237816114Y-124108802D03*
X240917100Y-122980136D03*
%TD*%
%TO.C,D47*%
X232001778Y-108134023D03*
X235102764Y-107005357D03*
%TD*%
D12*
%TO.C,D20*%
X126960285Y-163435280D03*
X130061271Y-164563946D03*
%TD*%
D11*
%TO.C,D31*%
X296939002Y-128662177D03*
X300039988Y-127533511D03*
%TD*%
%TO.C,D45*%
X243630460Y-140083579D03*
X246731446Y-138954913D03*
%TD*%
D12*
%TO.C,D18*%
X128343903Y-107005368D03*
X131444889Y-108134034D03*
%TD*%
D11*
%TO.C,D42*%
X249771294Y-104326897D03*
X252872280Y-103198231D03*
%TD*%
D14*
%TO.C,D58*%
X198558530Y-200321620D03*
X201086476Y-202442820D03*
%TD*%
D12*
%TO.C,D11*%
X98945699Y-135147785D03*
X102046685Y-136276451D03*
%TD*%
%TO.C,D24*%
X143019709Y-171940870D03*
X146120695Y-173069536D03*
%TD*%
D11*
%TO.C,D44*%
X249444794Y-156058352D03*
X252545780Y-154929686D03*
%TD*%
D12*
%TO.C,D5*%
X74506791Y-149664662D03*
X77607777Y-150793328D03*
%TD*%
%TO.C,D7*%
X86135477Y-117715111D03*
X89236463Y-118843777D03*
%TD*%
D11*
%TO.C,D54*%
X211511624Y-157094768D03*
X214612610Y-155966102D03*
%TD*%
%TO.C,D49*%
X233385383Y-164563950D03*
X236486369Y-163435284D03*
%TD*%
%TO.C,D53*%
X217325962Y-173069546D03*
X220426948Y-171940880D03*
%TD*%
D12*
%TO.C,D23*%
X144403315Y-115510958D03*
X147504301Y-116639624D03*
%TD*%
%TO.C,D4*%
X75035347Y-95583971D03*
X78136333Y-96712637D03*
%TD*%
D11*
%TO.C,D52*%
X215942353Y-116639624D03*
X219043339Y-115510958D03*
%TD*%
%TO.C,D55*%
X205697287Y-141119986D03*
X208798273Y-139991320D03*
%TD*%
D12*
%TO.C,D13*%
X110574383Y-103198230D03*
X113675369Y-104326896D03*
%TD*%
%TO.C,D14*%
X105086532Y-170904457D03*
X108187518Y-172033123D03*
%TD*%
D11*
%TO.C,D48*%
X239199718Y-180538715D03*
X242300704Y-179410049D03*
%TD*%
D15*
%TO.C,D57*%
X223301634Y-191387104D03*
X226004836Y-189494302D03*
%TD*%
D12*
%TO.C,D6*%
X80321137Y-133689878D03*
X83422123Y-134818544D03*
%TD*%
D11*
%TO.C,D51*%
X221756696Y-132614393D03*
X224857682Y-131485727D03*
%TD*%
D12*
%TO.C,D27*%
X160462734Y-124016552D03*
X163563720Y-125145218D03*
%TD*%
D16*
%TO.C,D28*%
X137441821Y-189494301D03*
X140145023Y-191387103D03*
%TD*%
D12*
%TO.C,D9*%
X87317013Y-167097325D03*
X90417999Y-168225991D03*
%TD*%
%TO.C,D8*%
X91949813Y-101740336D03*
X95050799Y-102869002D03*
%TD*%
M02*
