M48
; DRILL file {KiCad 7.0.1-0} date 2023 April 16, Sunday 11:58:17
; FORMAT={-:-/ absolute / inch / decimal}
; #@! TF.CreationDate,2023-04-16T11:58:17-05:00
; #@! TF.GenerationSoftware,Kicad,Pcbnew,7.0.1-0
; #@! TF.FileFunction,Plated,1,2,PTH
FMAT,2
INCH
; #@! TA.AperFunction,Plated,PTH,ViaDrill
T1C0.0157
; #@! TA.AperFunction,Plated,PTH,ComponentDrill
T2C0.0157
; #@! TA.AperFunction,Plated,PTH,ComponentDrill
T3C0.0390
; #@! TA.AperFunction,Plated,PTH,ComponentDrill
T4C0.0394
; #@! TA.AperFunction,Plated,PTH,ComponentDrill
T5C0.0430
; #@! TA.AperFunction,Plated,PTH,ComponentDrill
T6C0.0866
%
G90
G05
T1
X2.9406Y-3.646
X3.5957Y-3.9179
X4.111Y-4.0217
X7.6306Y-4.9599
X8.2407Y-4.6042
X8.8968Y-4.3351
T2
X2.599Y-5.7748
X2.6012Y-5.8245
X2.6326Y-5.7382
X2.6379Y-5.8581
X2.6823Y-5.736
X2.6875Y-5.8559
X2.7189Y-5.7696
X2.7211Y-5.8193
X3.2858Y-3.888
X3.2879Y-3.9377
X3.3194Y-3.8514
X3.3246Y-3.9713
X3.369Y-3.8492
X3.3743Y-3.9691
X3.4057Y-3.8828
X3.4078Y-3.9325
X5.0897Y-7.2197
X5.0919Y-7.2694
X5.1233Y-7.1831
X5.1285Y-7.303
X5.173Y-7.1809
X5.1782Y-7.3008
X5.2096Y-7.2145
X5.2118Y-7.2642
X5.9939Y-4.7355
X5.9961Y-4.7851
X6.0275Y-4.6988
X6.0327Y-4.8187
X6.0772Y-4.6966
X6.0824Y-4.8165
X6.1138Y-4.7302
X6.116Y-4.7799
X8.1929Y-4.7799
X8.1951Y-4.7302
X8.2265Y-4.8165
X8.2318Y-4.6966
X8.2762Y-4.8187
X8.2814Y-4.6988
X8.3129Y-4.7851
X8.315Y-4.7355
X9.0971Y-7.2642
X9.0993Y-7.2145
X9.1307Y-7.3008
X9.136Y-7.1809
X9.1804Y-7.303
X9.1856Y-7.1831
X9.2171Y-7.2694
X9.2192Y-7.2197
X10.9011Y-3.9325
X10.9032Y-3.8828
X10.9347Y-3.9691
X10.9399Y-3.8492
X10.9843Y-3.9713
X10.9896Y-3.8514
X11.021Y-3.9377
X11.0232Y-3.888
X11.5878Y-5.8193
X11.59Y-5.7696
X11.6214Y-5.8559
X11.6266Y-5.736
X11.6711Y-5.8581
X11.6763Y-5.7382
X11.7077Y-5.8245
X11.7099Y-5.7748
T3
X2.1875Y-5.6208
X2.4164Y-4.9919
X2.4694Y-5.7235
X2.6453Y-4.363
X2.6983Y-5.0945
X2.8534Y-5.8632
X2.8742Y-3.7341
X2.9272Y-4.4656
X3.0823Y-5.2343
X3.1353Y-5.9658
X3.1561Y-3.8367
X3.3112Y-4.6054
X3.3578Y-6.5495
X3.3642Y-5.3369
X3.5402Y-3.9764
X3.5867Y-5.9206
X3.5932Y-4.708
X3.6397Y-6.6522
X3.8156Y-5.2917
X3.8221Y-4.079
X3.8686Y-6.0232
X4.0445Y-4.6628
X4.0574Y-6.6994
X4.0975Y-5.3943
X4.2734Y-4.0338
X4.2863Y-6.0705
X4.3264Y-4.7654
X4.3393Y-6.802
X4.5152Y-5.4416
X4.5553Y-4.1364
X4.5682Y-6.1731
X4.6896Y-7.0343
X4.7441Y-4.8127
X4.7971Y-5.5442
X4.9185Y-6.4054
X4.9715Y-7.1369
X4.973Y-4.1837
X5.026Y-4.9153
X5.1474Y-5.7764
X5.2004Y-6.508
X5.2549Y-4.2863
X5.3414Y-7.4116
X5.3763Y-5.1475
X5.4293Y-5.8791
X5.5508Y-6.7402
X5.5872Y-7.5837
X5.6053Y-4.5186
X5.6583Y-5.2501
X5.7797Y-6.1113
X5.8327Y-6.8428
X5.8872Y-4.6212
X6.0086Y-5.4824
X6.0616Y-6.2139
X6.2375Y-4.8535
X6.2905Y-5.585
X6.327Y-8.0249
X6.5194Y-4.9561
X6.5568Y-7.832
X7.7521Y-7.832
X7.7895Y-4.9561
X7.9819Y-8.0249
X8.0184Y-5.585
X8.0714Y-4.8535
X8.2473Y-6.2139
X8.3003Y-5.4824
X8.4218Y-4.6212
X8.4762Y-6.8428
X8.5292Y-6.1113
X8.6507Y-5.2501
X8.7037Y-4.5186
X8.7217Y-7.5837
X8.7581Y-6.7402
X8.8796Y-5.8791
X8.9326Y-5.1475
X8.9675Y-7.4116
X9.054Y-4.2863
X9.1085Y-6.508
X9.1615Y-5.7764
X9.2829Y-4.9153
X9.3359Y-4.1837
X9.3374Y-7.1369
X9.3904Y-6.4054
X9.5118Y-5.5442
X9.5648Y-4.8127
X9.6193Y-7.0343
X9.7408Y-6.1731
X9.7536Y-4.1364
X9.7937Y-5.4416
X9.9697Y-6.802
X9.9825Y-4.7654
X10.0227Y-6.0705
X10.0355Y-4.0338
X10.2114Y-5.3943
X10.2516Y-6.6994
X10.2644Y-4.6628
X10.4403Y-6.0232
X10.4869Y-4.079
X10.4933Y-5.2917
X10.6692Y-6.6522
X10.7158Y-4.708
X10.7222Y-5.9206
X10.7688Y-3.9764
X10.9447Y-5.3369
X10.9512Y-6.5495
X10.9977Y-4.6054
X11.1528Y-3.8367
X11.1736Y-5.9658
X11.2266Y-5.2343
X11.3817Y-4.4656
X11.4347Y-3.7341
X11.4555Y-5.8632
X11.6106Y-5.0945
X11.6636Y-4.363
X11.8395Y-5.7235
X11.8925Y-4.9919
X12.1214Y-5.6208
T4
X7.0041Y-6.6627
X7.1041Y-6.6627
X7.2041Y-6.6627
X7.3041Y-6.6627
T5
X6.8545Y-5.4276
X6.8545Y-5.5276
X6.8545Y-5.6276
X6.8545Y-5.7276
X6.8545Y-5.8276
X6.8545Y-5.9276
X6.8545Y-6.0276
X6.8545Y-6.1276
X6.8545Y-6.2276
X6.8545Y-6.3276
X6.8545Y-6.4276
X6.8545Y-6.5276
X7.4545Y-5.4276
X7.4545Y-5.5276
X7.4545Y-5.6276
X7.4545Y-5.7276
X7.4545Y-5.8276
X7.4545Y-5.9276
X7.4545Y-6.0276
X7.4545Y-6.1276
X7.4545Y-6.2276
X7.4545Y-6.3276
X7.4545Y-6.4276
X7.4545Y-6.5276
T6
X2.6601Y-5.797
X3.3468Y-3.9103
X5.1507Y-7.2419
X6.0549Y-4.7577
X8.254Y-4.7577
X9.1582Y-7.2419
X10.9621Y-3.9103
X11.6489Y-5.797
T0
M30
