%TF.GenerationSoftware,KiCad,Pcbnew,7.0.1-0*%
%TF.CreationDate,2023-04-16T11:56:44-05:00*%
%TF.ProjectId,tutorial,7475746f-7269-4616-9c2e-6b696361645f,v1.0.0*%
%TF.SameCoordinates,Original*%
%TF.FileFunction,Copper,L2,Bot*%
%TF.FilePolarity,Positive*%
%FSLAX46Y46*%
G04 Gerber Fmt 4.6, Leading zero omitted, Abs format (unit mm)*
G04 Created by KiCad (PCBNEW 7.0.1-0) date 2023-04-16 11:56:44*
%MOMM*%
%LPD*%
G01*
G04 APERTURE LIST*
G04 Aperture macros list*
%AMRotRect*
0 Rectangle, with rotation*
0 The origin of the aperture is its center*
0 $1 length*
0 $2 width*
0 $3 Rotation angle, in degrees counterclockwise*
0 Add horizontal line*
21,1,$1,$2,0,0,$3*%
G04 Aperture macros list end*
%TA.AperFunction,SMDPad,CuDef*%
%ADD10RotRect,2.600000X2.600000X20.000000*%
%TD*%
%TA.AperFunction,ComponentPad*%
%ADD11RotRect,1.778000X1.778000X20.000000*%
%TD*%
%TA.AperFunction,SMDPad,CuDef*%
%ADD12RotRect,0.900000X1.200000X20.000000*%
%TD*%
%TA.AperFunction,ComponentPad*%
%ADD13C,1.905000*%
%TD*%
%TA.AperFunction,ComponentPad*%
%ADD14RotRect,1.778000X1.778000X340.000000*%
%TD*%
%TA.AperFunction,SMDPad,CuDef*%
%ADD15RotRect,0.900000X1.200000X340.000000*%
%TD*%
%TA.AperFunction,SMDPad,CuDef*%
%ADD16RotRect,2.600000X2.600000X340.000000*%
%TD*%
%TA.AperFunction,ComponentPad*%
%ADD17C,0.700000*%
%TD*%
%TA.AperFunction,ComponentPad*%
%ADD18C,4.400000*%
%TD*%
%TA.AperFunction,ComponentPad*%
%ADD19RotRect,1.778000X1.778000X40.000000*%
%TD*%
%TA.AperFunction,SMDPad,CuDef*%
%ADD20RotRect,0.900000X1.200000X40.000000*%
%TD*%
%TA.AperFunction,ComponentPad*%
%ADD21R,1.700000X1.700000*%
%TD*%
%TA.AperFunction,ComponentPad*%
%ADD22O,1.700000X1.700000*%
%TD*%
%TA.AperFunction,ComponentPad*%
%ADD23R,1.752600X1.752600*%
%TD*%
%TA.AperFunction,ComponentPad*%
%ADD24C,1.752600*%
%TD*%
%TA.AperFunction,SMDPad,CuDef*%
%ADD25RotRect,2.600000X2.600000X40.000000*%
%TD*%
%TA.AperFunction,ComponentPad*%
%ADD26RotRect,1.778000X1.778000X320.000000*%
%TD*%
%TA.AperFunction,SMDPad,CuDef*%
%ADD27RotRect,0.900000X1.200000X320.000000*%
%TD*%
%TA.AperFunction,SMDPad,CuDef*%
%ADD28RotRect,2.600000X2.600000X320.000000*%
%TD*%
%TA.AperFunction,SMDPad,CuDef*%
%ADD29RotRect,2.600000X2.600000X35.000000*%
%TD*%
%TA.AperFunction,ComponentPad*%
%ADD30RotRect,1.778000X1.778000X35.000000*%
%TD*%
%TA.AperFunction,SMDPad,CuDef*%
%ADD31RotRect,0.900000X1.200000X35.000000*%
%TD*%
%TA.AperFunction,SMDPad,CuDef*%
%ADD32RotRect,2.600000X2.600000X325.000000*%
%TD*%
%TA.AperFunction,ComponentPad*%
%ADD33RotRect,1.778000X1.778000X325.000000*%
%TD*%
%TA.AperFunction,SMDPad,CuDef*%
%ADD34RotRect,0.900000X1.200000X325.000000*%
%TD*%
%TA.AperFunction,ViaPad*%
%ADD35C,0.800000*%
%TD*%
%TA.AperFunction,Conductor*%
%ADD36C,0.250000*%
%TD*%
G04 APERTURE END LIST*
D10*
%TO.P,S56,1*%
%TO.N,P9*%
X194610817Y-115411372D03*
%TO.P,S56,2*%
%TO.N,mirror_inner_num*%
X206216711Y-113528363D03*
%TD*%
%TO.P,S38,1*%
%TO.N,P16*%
X267756542Y-158492147D03*
%TO.P,S38,2*%
%TO.N,mirror_ring_mod*%
X279362436Y-156609138D03*
%TD*%
D11*
%TO.P,D35,1*%
%TO.N,P4*%
X277994812Y-135557314D03*
D12*
X280024548Y-134818550D03*
%TO.P,D35,2*%
%TO.N,mirror_pinky_home*%
X283125534Y-133689884D03*
D13*
X285155270Y-132951120D03*
%TD*%
D14*
%TO.P,D10,1*%
%TO.N,P18*%
X91101621Y-150383792D03*
D15*
X93131357Y-151122556D03*
%TO.P,D10,2*%
%TO.N,ring_bottom*%
X96232343Y-152251222D03*
D13*
X98262079Y-152989986D03*
%TD*%
D16*
%TO.P,S17,1*%
%TO.N,P7*%
X124747683Y-112134715D03*
%TO.P,S17,2*%
%TO.N,middle_top*%
X134848688Y-118152371D03*
%TD*%
D17*
%TO.P,_6,1*%
%TO.N,N/C*%
X294330321Y-147809110D03*
X294385406Y-146547457D03*
X295183494Y-148740185D03*
X295316481Y-145694284D03*
D18*
X295880814Y-147244777D03*
D17*
X296445147Y-148795270D03*
X296578134Y-145749369D03*
X297376222Y-147942097D03*
X297431307Y-146680444D03*
%TD*%
D14*
%TO.P,D25,1*%
%TO.N,P19*%
X146804315Y-155227335D03*
D15*
X148834051Y-155966099D03*
%TO.P,D25,2*%
%TO.N,inner_home*%
X151935037Y-157094765D03*
D13*
X153964773Y-157833529D03*
%TD*%
D16*
%TO.P,S14,1*%
%TO.N,P10*%
X107304657Y-160059046D03*
%TO.P,S14,2*%
%TO.N,middle_mod*%
X117405662Y-166076702D03*
%TD*%
D11*
%TO.P,D39,1*%
%TO.N,P5*%
X265184580Y-152989986D03*
D12*
X267214316Y-152251222D03*
%TO.P,D39,2*%
%TO.N,mirror_ring_bottom*%
X270315302Y-151122556D03*
D13*
X272345038Y-150383792D03*
%TD*%
D11*
%TO.P,D41,1*%
%TO.N,P0*%
X253555893Y-121040438D03*
D12*
X255585629Y-120301674D03*
%TO.P,D41,2*%
%TO.N,mirror_ring_top*%
X258686615Y-119173008D03*
D13*
X260716351Y-118434244D03*
%TD*%
D10*
%TO.P,S33,1*%
%TO.N,P14*%
X280038204Y-86978785D03*
%TO.P,S33,2*%
%TO.N,mirror_outer_num*%
X291644098Y-85095776D03*
%TD*%
D16*
%TO.P,S22,1*%
%TO.N,P8*%
X140807092Y-120640318D03*
%TO.P,S22,2*%
%TO.N,index_top*%
X150908097Y-126657974D03*
%TD*%
D10*
%TO.P,S43,1*%
%TO.N,P10*%
X249987015Y-162299279D03*
%TO.P,S43,2*%
%TO.N,mirror_middle_mod*%
X261592909Y-160416270D03*
%TD*%
D11*
%TO.P,D43,1*%
%TO.N,P6*%
X253229407Y-172771892D03*
D12*
X255259143Y-172033128D03*
%TO.P,D43,2*%
%TO.N,mirror_middle_mod*%
X258360129Y-170904462D03*
D13*
X260389865Y-170165698D03*
%TD*%
D16*
%TO.P,S8,1*%
%TO.N,P16*%
X94167938Y-90894912D03*
%TO.P,S8,2*%
%TO.N,pinky_num*%
X104268943Y-96912568D03*
%TD*%
D19*
%TO.P,D29,1*%
%TO.N,P15*%
X160705522Y-203831244D03*
D20*
X162360178Y-202442823D03*
%TO.P,D29,2*%
%TO.N,space_cluster*%
X164888124Y-200321623D03*
D13*
X166542780Y-198933202D03*
%TD*%
D16*
%TO.P,S19,1*%
%TO.N,P7*%
X123364065Y-168564643D03*
%TO.P,S19,2*%
%TO.N,index_mod*%
X133465070Y-174582299D03*
%TD*%
D17*
%TO.P,_1,1*%
%TO.N,N/C*%
X83458379Y-98756116D03*
X84311552Y-97825041D03*
X83513464Y-100017769D03*
X85573205Y-97769956D03*
D18*
X85008872Y-99320449D03*
D17*
X84444539Y-100870942D03*
X86504280Y-98623129D03*
X85706192Y-100815857D03*
X86559365Y-99884782D03*
%TD*%
D16*
%TO.P,S16,1*%
%TO.N,P7*%
X118933331Y-128109490D03*
%TO.P,S16,2*%
%TO.N,middle_home*%
X129034336Y-134127146D03*
%TD*%
%TO.P,S26,1*%
%TO.N,P9*%
X156866514Y-129145908D03*
%TO.P,S26,2*%
%TO.N,inner_top*%
X166967519Y-135163564D03*
%TD*%
D11*
%TO.P,D36,1*%
%TO.N,P0*%
X272180461Y-119582539D03*
D12*
X274210197Y-118843775D03*
%TO.P,D36,2*%
%TO.N,mirror_pinky_top*%
X277311183Y-117715109D03*
D13*
X279340919Y-116976345D03*
%TD*%
D14*
%TO.P,D17,1*%
%TO.N,P20*%
X120499832Y-122241369D03*
D15*
X122529568Y-122980133D03*
%TO.P,D17,2*%
%TO.N,middle_top*%
X125630554Y-124108799D03*
D13*
X127660290Y-124847563D03*
%TD*%
D14*
%TO.P,D16,1*%
%TO.N,P19*%
X114685479Y-138216148D03*
D15*
X116715215Y-138954912D03*
%TO.P,D16,2*%
%TO.N,middle_home*%
X119816201Y-140083578D03*
D13*
X121845937Y-140822342D03*
%TD*%
D14*
%TO.P,D26,1*%
%TO.N,P20*%
X152618658Y-139252562D03*
D15*
X154648394Y-139991326D03*
%TO.P,D26,2*%
%TO.N,inner_top*%
X157749380Y-141119992D03*
D13*
X159779116Y-141858756D03*
%TD*%
D14*
%TO.P,D22,1*%
%TO.N,P20*%
X136559249Y-130746969D03*
D15*
X138588985Y-131485733D03*
%TO.P,D22,2*%
%TO.N,index_top*%
X141689971Y-132614399D03*
D13*
X143719707Y-133353163D03*
%TD*%
D14*
%TO.P,D1,1*%
%TO.N,P18*%
X55562585Y-142769522D03*
D15*
X57592321Y-143508286D03*
%TO.P,D1,2*%
%TO.N,outer_bottom*%
X60693307Y-144636952D03*
D13*
X62723043Y-145375716D03*
%TD*%
D11*
%TO.P,D30,1*%
%TO.N,P5*%
X300723614Y-145375720D03*
D12*
X302753350Y-144636956D03*
%TO.P,D30,2*%
%TO.N,mirror_outer_bottom*%
X305854336Y-143508290D03*
D13*
X307884072Y-142769526D03*
%TD*%
D14*
%TO.P,D21,1*%
%TO.N,P19*%
X130744898Y-146721741D03*
D15*
X132774634Y-147460505D03*
%TO.P,D21,2*%
%TO.N,index_home*%
X135875620Y-148589171D03*
D13*
X137905356Y-149327935D03*
%TD*%
D21*
%TO.P,OLED1,1*%
%TO.N,GND*%
X185523336Y-169231975D03*
D22*
%TO.P,OLED1,2*%
%TO.N,VCC*%
X182983336Y-169231975D03*
%TO.P,OLED1,3*%
%TO.N,P3*%
X180443336Y-169231975D03*
%TO.P,OLED1,4*%
%TO.N,P2*%
X177903336Y-169231975D03*
%TD*%
D11*
%TO.P,D50,1*%
%TO.N,P4*%
X225541303Y-149327940D03*
D12*
X227571039Y-148589176D03*
%TO.P,D50,2*%
%TO.N,mirror_index_home*%
X230672025Y-147460510D03*
D13*
X232701761Y-146721746D03*
%TD*%
D11*
%TO.P,D34,1*%
%TO.N,P5*%
X283809152Y-151532094D03*
D12*
X285838888Y-150793330D03*
%TO.P,D34,2*%
%TO.N,mirror_pinky_bottom*%
X288939874Y-149664664D03*
D13*
X290969610Y-148925900D03*
%TD*%
D11*
%TO.P,D37,1*%
%TO.N,P1*%
X266366125Y-103607768D03*
D12*
X268395861Y-102869004D03*
%TO.P,D37,2*%
%TO.N,mirror_pinky_num*%
X271496847Y-101740338D03*
D13*
X273526583Y-101001574D03*
%TD*%
D10*
%TO.P,S39,1*%
%TO.N,P10*%
X261942196Y-142517373D03*
%TO.P,S39,2*%
%TO.N,mirror_ring_bottom*%
X273548090Y-140634364D03*
%TD*%
D14*
%TO.P,D2,1*%
%TO.N,P19*%
X61376932Y-126794752D03*
D15*
X63406668Y-127533516D03*
%TO.P,D2,2*%
%TO.N,outer_home*%
X66507654Y-128662182D03*
D13*
X68537390Y-129400946D03*
%TD*%
D23*
%TO.P,MCU1,1*%
%TO.N,RAW*%
X174103327Y-137861977D03*
D24*
%TO.P,MCU1,2*%
%TO.N,GND*%
X174103327Y-140401977D03*
%TO.P,MCU1,3*%
%TO.N,RST*%
X174103327Y-142941977D03*
%TO.P,MCU1,4*%
%TO.N,VCC*%
X174103327Y-145481977D03*
%TO.P,MCU1,5*%
%TO.N,P21*%
X174103327Y-148021977D03*
%TO.P,MCU1,6*%
%TO.N,P20*%
X174103327Y-150561977D03*
%TO.P,MCU1,7*%
%TO.N,P19*%
X174103327Y-153101977D03*
%TO.P,MCU1,8*%
%TO.N,P18*%
X174103327Y-155641977D03*
%TO.P,MCU1,9*%
%TO.N,P15*%
X174103327Y-158181977D03*
%TO.P,MCU1,10*%
%TO.N,P14*%
X174103327Y-160721977D03*
%TO.P,MCU1,11*%
%TO.N,P16*%
X174103327Y-163261977D03*
%TO.P,MCU1,12*%
%TO.N,P10*%
X174103327Y-165801977D03*
%TO.P,MCU1,13*%
%TO.N,P1*%
X189343327Y-137861977D03*
%TO.P,MCU1,14*%
%TO.N,P0*%
X189343327Y-140401977D03*
%TO.P,MCU1,15*%
%TO.N,GND*%
X189343327Y-142941977D03*
%TO.P,MCU1,16*%
X189343327Y-145481977D03*
%TO.P,MCU1,17*%
%TO.N,P2*%
X189343327Y-148021977D03*
%TO.P,MCU1,18*%
%TO.N,P3*%
X189343327Y-150561977D03*
%TO.P,MCU1,19*%
%TO.N,P4*%
X189343327Y-153101977D03*
%TO.P,MCU1,20*%
%TO.N,P5*%
X189343327Y-155641977D03*
%TO.P,MCU1,21*%
%TO.N,P6*%
X189343327Y-158181977D03*
%TO.P,MCU1,22*%
%TO.N,P7*%
X189343327Y-160721977D03*
%TO.P,MCU1,23*%
%TO.N,P8*%
X189343327Y-163261977D03*
%TO.P,MCU1,24*%
%TO.N,P9*%
X189343327Y-165801977D03*
%TD*%
D14*
%TO.P,D15,1*%
%TO.N,P18*%
X108871139Y-154190930D03*
D15*
X110900875Y-154929694D03*
%TO.P,D15,2*%
%TO.N,middle_bottom*%
X114001861Y-156058360D03*
D13*
X116031597Y-156797124D03*
%TD*%
D10*
%TO.P,S32,1*%
%TO.N,P14*%
X285852542Y-102953556D03*
%TO.P,S32,2*%
%TO.N,mirror_outer_top*%
X297458436Y-101070547D03*
%TD*%
D14*
%TO.P,D3,1*%
%TO.N,P20*%
X67191269Y-110819979D03*
D15*
X69221005Y-111558743D03*
%TO.P,D3,2*%
%TO.N,outer_top*%
X72321991Y-112687409D03*
D13*
X74351727Y-113426173D03*
%TD*%
D17*
%TO.P,_4,1*%
%TO.N,N/C*%
X129278271Y-183380934D03*
X130131444Y-182449859D03*
X129333356Y-184642587D03*
X131393097Y-182394774D03*
D18*
X130828764Y-183945267D03*
D17*
X130264431Y-185495760D03*
X132324172Y-183247947D03*
X131526084Y-185440675D03*
X132379257Y-184509600D03*
%TD*%
D10*
%TO.P,S36,1*%
%TO.N,P16*%
X268938078Y-109109921D03*
%TO.P,S36,2*%
%TO.N,mirror_pinky_top*%
X280543972Y-107226912D03*
%TD*%
D16*
%TO.P,S15,1*%
%TO.N,P7*%
X113118993Y-144084271D03*
%TO.P,S15,2*%
%TO.N,middle_bottom*%
X123219998Y-150101927D03*
%TD*%
%TO.P,S4,1*%
%TO.N,P14*%
X77253469Y-84738549D03*
%TO.P,S4,2*%
%TO.N,outer_num*%
X87354474Y-90756205D03*
%TD*%
D11*
%TO.P,D32,1*%
%TO.N,P0*%
X289094933Y-113426174D03*
D12*
X291124669Y-112687410D03*
%TO.P,D32,2*%
%TO.N,mirror_outer_top*%
X294225655Y-111558744D03*
D13*
X296255391Y-110819980D03*
%TD*%
D10*
%TO.P,S52,1*%
%TO.N,P8*%
X210670236Y-106905771D03*
%TO.P,S52,2*%
%TO.N,mirror_index_num*%
X222276130Y-105022762D03*
%TD*%
D16*
%TO.P,S10,1*%
%TO.N,P10*%
X95349472Y-140277142D03*
%TO.P,S10,2*%
%TO.N,ring_bottom*%
X105450477Y-146294798D03*
%TD*%
D10*
%TO.P,S50,1*%
%TO.N,P8*%
X222298916Y-138855324D03*
%TO.P,S50,2*%
%TO.N,mirror_index_home*%
X233904810Y-136972315D03*
%TD*%
D16*
%TO.P,S7,1*%
%TO.N,P16*%
X88353595Y-106869682D03*
%TO.P,S7,2*%
%TO.N,pinky_top*%
X98454600Y-112887338D03*
%TD*%
%TO.P,S9,1*%
%TO.N,P16*%
X89535134Y-156251914D03*
%TO.P,S9,2*%
%TO.N,ring_mod*%
X99636139Y-162269570D03*
%TD*%
D14*
%TO.P,D12,1*%
%TO.N,P20*%
X102730301Y-118434242D03*
D15*
X104760037Y-119173006D03*
%TO.P,D12,2*%
%TO.N,ring_top*%
X107861023Y-120301672D03*
D13*
X109890759Y-121040436D03*
%TD*%
D14*
%TO.P,D19,1*%
%TO.N,P15*%
X119116222Y-178671295D03*
D15*
X121145958Y-179410059D03*
%TO.P,D19,2*%
%TO.N,index_mod*%
X124246944Y-180538725D03*
D13*
X126276680Y-181277489D03*
%TD*%
D16*
%TO.P,S20,1*%
%TO.N,P8*%
X129178413Y-152589868D03*
%TO.P,S20,2*%
%TO.N,index_bottom*%
X139279418Y-158607524D03*
%TD*%
D11*
%TO.P,D38,1*%
%TO.N,P6*%
X270998924Y-168964758D03*
D12*
X273028660Y-168225994D03*
%TO.P,D38,2*%
%TO.N,mirror_ring_mod*%
X276129646Y-167097328D03*
D13*
X278159382Y-166358564D03*
%TD*%
D10*
%TO.P,S55,1*%
%TO.N,P9*%
X200425162Y-131386137D03*
%TO.P,S55,2*%
%TO.N,mirror_inner_top*%
X212031056Y-129503128D03*
%TD*%
D11*
%TO.P,D40,1*%
%TO.N,P4*%
X259370240Y-137015215D03*
D12*
X261399976Y-136276451D03*
%TO.P,D40,2*%
%TO.N,mirror_ring_home*%
X264500962Y-135147785D03*
D13*
X266530698Y-134409021D03*
%TD*%
D11*
%TO.P,D56,1*%
%TO.N,P1*%
X197853202Y-125883985D03*
D12*
X199882938Y-125145221D03*
%TO.P,D56,2*%
%TO.N,mirror_inner_num*%
X202983924Y-124016555D03*
D13*
X205013660Y-123277791D03*
%TD*%
D16*
%TO.P,S11,1*%
%TO.N,P10*%
X101163818Y-124302363D03*
%TO.P,S11,2*%
%TO.N,ring_home*%
X111264823Y-130320019D03*
%TD*%
D11*
%TO.P,D33,1*%
%TO.N,P1*%
X283280592Y-97451393D03*
D12*
X285310328Y-96712629D03*
%TO.P,D33,2*%
%TO.N,mirror_outer_num*%
X288411314Y-95583963D03*
D13*
X290441050Y-94845199D03*
%TD*%
D11*
%TO.P,D46,1*%
%TO.N,P0*%
X235786378Y-124847566D03*
D12*
X237816114Y-124108802D03*
%TO.P,D46,2*%
%TO.N,mirror_middle_top*%
X240917100Y-122980136D03*
D13*
X242946836Y-122241372D03*
%TD*%
D11*
%TO.P,D47,1*%
%TO.N,P1*%
X229972042Y-108872787D03*
D12*
X232001778Y-108134023D03*
%TO.P,D47,2*%
%TO.N,mirror_middle_num*%
X235102764Y-107005357D03*
D13*
X237132500Y-106266593D03*
%TD*%
D14*
%TO.P,D20,1*%
%TO.N,P18*%
X124930549Y-162696516D03*
D15*
X126960285Y-163435280D03*
%TO.P,D20,2*%
%TO.N,index_bottom*%
X130061271Y-164563946D03*
D13*
X132091007Y-165302710D03*
%TD*%
D11*
%TO.P,D31,1*%
%TO.N,P4*%
X294909266Y-129400941D03*
D12*
X296939002Y-128662177D03*
%TO.P,D31,2*%
%TO.N,mirror_outer_home*%
X300039988Y-127533511D03*
D13*
X302069724Y-126794747D03*
%TD*%
D11*
%TO.P,D45,1*%
%TO.N,P4*%
X241600724Y-140822343D03*
D12*
X243630460Y-140083579D03*
%TO.P,D45,2*%
%TO.N,mirror_middle_home*%
X246731446Y-138954913D03*
D13*
X248761182Y-138216149D03*
%TD*%
D14*
%TO.P,D18,1*%
%TO.N,P21*%
X126314167Y-106266604D03*
D15*
X128343903Y-107005368D03*
%TO.P,D18,2*%
%TO.N,middle_num*%
X131444889Y-108134034D03*
D13*
X133474625Y-108872798D03*
%TD*%
D10*
%TO.P,S37,1*%
%TO.N,P16*%
X263123737Y-93135146D03*
%TO.P,S37,2*%
%TO.N,mirror_pinky_num*%
X274729631Y-91252137D03*
%TD*%
D16*
%TO.P,S25,1*%
%TO.N,P9*%
X151052173Y-145120686D03*
%TO.P,S25,2*%
%TO.N,inner_home*%
X161153178Y-151138342D03*
%TD*%
D10*
%TO.P,S42,1*%
%TO.N,P10*%
X244499166Y-94593040D03*
%TO.P,S42,2*%
%TO.N,mirror_ring_num*%
X256105060Y-92710031D03*
%TD*%
D25*
%TO.P,S29,1*%
%TO.N,P9*%
X154076827Y-195099158D03*
%TO.P,S29,2*%
%TO.N,space_cluster*%
X164338773Y-189360259D03*
%TD*%
D11*
%TO.P,D42,1*%
%TO.N,P1*%
X247741558Y-105065661D03*
D12*
X249771294Y-104326897D03*
%TO.P,D42,2*%
%TO.N,mirror_ring_num*%
X252872280Y-103198231D03*
D13*
X254902016Y-102459467D03*
%TD*%
D16*
%TO.P,S24,1*%
%TO.N,P9*%
X145237830Y-161095453D03*
%TO.P,S24,2*%
%TO.N,inner_bottom*%
X155338835Y-167113109D03*
%TD*%
D10*
%TO.P,S47,1*%
%TO.N,P7*%
X226729648Y-98400173D03*
%TO.P,S47,2*%
%TO.N,mirror_middle_num*%
X238335542Y-96517164D03*
%TD*%
D16*
%TO.P,S5,1*%
%TO.N,P16*%
X76724910Y-138819236D03*
%TO.P,S5,2*%
%TO.N,pinky_bottom*%
X86825915Y-144836892D03*
%TD*%
D10*
%TO.P,S48,1*%
%TO.N,P7*%
X233927598Y-170804870D03*
%TO.P,S48,2*%
%TO.N,mirror_index_mod*%
X245533492Y-168921861D03*
%TD*%
D26*
%TO.P,D58,1*%
%TO.N,P6*%
X196903874Y-198933199D03*
D27*
X198558530Y-200321620D03*
%TO.P,D58,2*%
%TO.N,mirror_space_cluster*%
X201086476Y-202442820D03*
D13*
X202741132Y-203831241D03*
%TD*%
D28*
%TO.P,S58,1*%
%TO.N,P9*%
X204352233Y-190888907D03*
%TO.P,S58,2*%
%TO.N,mirror_space_cluster*%
X211785913Y-199998402D03*
%TD*%
D10*
%TO.P,S40,1*%
%TO.N,P10*%
X256127847Y-126542598D03*
%TO.P,S40,2*%
%TO.N,mirror_ring_home*%
X267733741Y-124659589D03*
%TD*%
D16*
%TO.P,S13,1*%
%TO.N,P10*%
X112792502Y-92352808D03*
%TO.P,S13,2*%
%TO.N,ring_num*%
X122893507Y-98370464D03*
%TD*%
%TO.P,S21,1*%
%TO.N,P8*%
X134992753Y-136615089D03*
%TO.P,S21,2*%
%TO.N,index_home*%
X145093758Y-142632745D03*
%TD*%
%TO.P,S1,1*%
%TO.N,P14*%
X59810436Y-132662877D03*
%TO.P,S1,2*%
%TO.N,outer_bottom*%
X69911441Y-138680533D03*
%TD*%
D14*
%TO.P,D11,1*%
%TO.N,P19*%
X96915963Y-134409021D03*
D15*
X98945699Y-135147785D03*
%TO.P,D11,2*%
%TO.N,ring_home*%
X102046685Y-136276451D03*
D13*
X104076421Y-137015215D03*
%TD*%
D17*
%TO.P,_5,1*%
%TO.N,N/C*%
X276887287Y-99884786D03*
X276942372Y-98623133D03*
X277740460Y-100815861D03*
X277873447Y-97769960D03*
D18*
X278437780Y-99320453D03*
D17*
X279002113Y-100870946D03*
X279135100Y-97825045D03*
X279933188Y-100017773D03*
X279988273Y-98756120D03*
%TD*%
D14*
%TO.P,D24,1*%
%TO.N,P18*%
X140989973Y-171202106D03*
D15*
X143019709Y-171940870D03*
%TO.P,D24,2*%
%TO.N,inner_bottom*%
X146120695Y-173069536D03*
D13*
X148150431Y-173808300D03*
%TD*%
D11*
%TO.P,D44,1*%
%TO.N,P5*%
X247415058Y-156797116D03*
D12*
X249444794Y-156058352D03*
%TO.P,D44,2*%
%TO.N,mirror_middle_bottom*%
X252545780Y-154929686D03*
D13*
X254575516Y-154190922D03*
%TD*%
D14*
%TO.P,D5,1*%
%TO.N,P18*%
X72477055Y-148925898D03*
D15*
X74506791Y-149664662D03*
%TO.P,D5,2*%
%TO.N,pinky_bottom*%
X77607777Y-150793328D03*
D13*
X79637513Y-151532092D03*
%TD*%
D10*
%TO.P,S30,1*%
%TO.N,P14*%
X297481228Y-134903110D03*
%TO.P,S30,2*%
%TO.N,mirror_outer_bottom*%
X309087122Y-133020101D03*
%TD*%
D14*
%TO.P,D7,1*%
%TO.N,P20*%
X84105741Y-116976347D03*
D15*
X86135477Y-117715111D03*
%TO.P,D7,2*%
%TO.N,pinky_top*%
X89236463Y-118843777D03*
D13*
X91266199Y-119582541D03*
%TD*%
D16*
%TO.P,S2,1*%
%TO.N,P14*%
X65624785Y-116688107D03*
%TO.P,S2,2*%
%TO.N,outer_home*%
X75725790Y-122705763D03*
%TD*%
D10*
%TO.P,S41,1*%
%TO.N,P10*%
X250313509Y-110567823D03*
%TO.P,S41,2*%
%TO.N,mirror_ring_top*%
X261919403Y-108684814D03*
%TD*%
%TO.P,S45,1*%
%TO.N,P7*%
X238358334Y-130349723D03*
%TO.P,S45,2*%
%TO.N,mirror_middle_home*%
X249964228Y-128466714D03*
%TD*%
D17*
%TO.P,_3,1*%
%TO.N,N/C*%
X152244917Y-120280582D03*
X153098090Y-119349507D03*
X152300002Y-121542235D03*
X154359743Y-119294422D03*
D18*
X153795410Y-120844915D03*
D17*
X153231077Y-122395408D03*
X155290818Y-120147595D03*
X154492730Y-122340323D03*
X155345903Y-121409248D03*
%TD*%
D16*
%TO.P,S27,1*%
%TO.N,P9*%
X162680853Y-113171123D03*
%TO.P,S27,2*%
%TO.N,inner_num*%
X172781858Y-119188779D03*
%TD*%
D10*
%TO.P,S49,1*%
%TO.N,P8*%
X228113263Y-154830092D03*
%TO.P,S49,2*%
%TO.N,mirror_index_bottom*%
X239719157Y-152947083D03*
%TD*%
D11*
%TO.P,D54,1*%
%TO.N,P4*%
X209481888Y-157833532D03*
D12*
X211511624Y-157094768D03*
%TO.P,D54,2*%
%TO.N,mirror_inner_home*%
X214612610Y-155966102D03*
D13*
X216642346Y-155227338D03*
%TD*%
D10*
%TO.P,S51,1*%
%TO.N,P8*%
X216484570Y-122880544D03*
%TO.P,S51,2*%
%TO.N,mirror_index_top*%
X228090464Y-120997535D03*
%TD*%
D11*
%TO.P,D49,1*%
%TO.N,P5*%
X231355647Y-165302714D03*
D12*
X233385383Y-164563950D03*
%TO.P,D49,2*%
%TO.N,mirror_index_bottom*%
X236486369Y-163435284D03*
D13*
X238516105Y-162696520D03*
%TD*%
D16*
%TO.P,S6,1*%
%TO.N,P16*%
X82539253Y-122844462D03*
%TO.P,S6,2*%
%TO.N,pinky_home*%
X92640258Y-128862118D03*
%TD*%
D10*
%TO.P,S53,1*%
%TO.N,P9*%
X212053843Y-163335683D03*
%TO.P,S53,2*%
%TO.N,mirror_inner_bottom*%
X223659737Y-161452674D03*
%TD*%
D11*
%TO.P,D53,1*%
%TO.N,P5*%
X215296226Y-173808310D03*
D12*
X217325962Y-173069546D03*
%TO.P,D53,2*%
%TO.N,mirror_inner_bottom*%
X220426948Y-171940880D03*
D13*
X222456684Y-171202116D03*
%TD*%
D14*
%TO.P,D23,1*%
%TO.N,P21*%
X142373579Y-114772194D03*
D15*
X144403315Y-115510958D03*
%TO.P,D23,2*%
%TO.N,index_num*%
X147504301Y-116639624D03*
D13*
X149534037Y-117378388D03*
%TD*%
D14*
%TO.P,D4,1*%
%TO.N,P21*%
X73005611Y-94845207D03*
D15*
X75035347Y-95583971D03*
%TO.P,D4,2*%
%TO.N,outer_num*%
X78136333Y-96712637D03*
D13*
X80166069Y-97451401D03*
%TD*%
D11*
%TO.P,D52,1*%
%TO.N,P1*%
X213912617Y-117378388D03*
D12*
X215942353Y-116639624D03*
%TO.P,D52,2*%
%TO.N,mirror_index_num*%
X219043339Y-115510958D03*
D13*
X221073075Y-114772194D03*
%TD*%
D11*
%TO.P,D55,1*%
%TO.N,P0*%
X203667551Y-141858750D03*
D12*
X205697287Y-141119986D03*
%TO.P,D55,2*%
%TO.N,mirror_inner_top*%
X208798273Y-139991320D03*
D13*
X210828009Y-139252556D03*
%TD*%
D14*
%TO.P,D13,1*%
%TO.N,P21*%
X108544647Y-102459466D03*
D15*
X110574383Y-103198230D03*
%TO.P,D13,2*%
%TO.N,ring_num*%
X113675369Y-104326896D03*
D13*
X115705105Y-105065660D03*
%TD*%
D10*
%TO.P,S54,2*%
%TO.N,mirror_inner_home*%
X217845394Y-145477899D03*
%TO.P,S54,1*%
%TO.N,P9*%
X206239500Y-147360908D03*
%TD*%
D16*
%TO.P,S23,1*%
%TO.N,P8*%
X146621436Y-104665539D03*
%TO.P,S23,2*%
%TO.N,index_num*%
X156722441Y-110683195D03*
%TD*%
D17*
%TO.P,_2,1*%
%TO.N,N/C*%
X66015359Y-146680444D03*
X66868532Y-145749369D03*
X66070444Y-147942097D03*
X68130185Y-145694284D03*
D18*
X67565852Y-147244777D03*
D17*
X67001519Y-148795270D03*
X69061260Y-146547457D03*
X68263172Y-148740185D03*
X69116345Y-147809110D03*
%TD*%
D29*
%TO.P,S57,1*%
%TO.N,P8*%
X215689854Y-183349446D03*
%TO.P,S57,2*%
%TO.N,mirror_layer_cluster*%
X226412929Y-178526773D03*
%TD*%
D14*
%TO.P,D14,1*%
%TO.N,P15*%
X103056796Y-170165693D03*
D15*
X105086532Y-170904457D03*
%TO.P,D14,2*%
%TO.N,middle_mod*%
X108187518Y-172033123D03*
D13*
X110217254Y-172771887D03*
%TD*%
D11*
%TO.P,D48,1*%
%TO.N,P6*%
X237169982Y-181277479D03*
D12*
X239199718Y-180538715D03*
%TO.P,D48,2*%
%TO.N,mirror_index_mod*%
X242300704Y-179410049D03*
D13*
X244330440Y-178671285D03*
%TD*%
D30*
%TO.P,D57,1*%
%TO.N,P6*%
X221532266Y-192626029D03*
D31*
X223301634Y-191387104D03*
%TO.P,D57,2*%
%TO.N,mirror_layer_cluster*%
X226004836Y-189494302D03*
D13*
X227774204Y-188255377D03*
%TD*%
D16*
%TO.P,S12,1*%
%TO.N,P10*%
X106978170Y-108327587D03*
%TO.P,S12,2*%
%TO.N,ring_top*%
X117079175Y-114345243D03*
%TD*%
D17*
%TO.P,_7,1*%
%TO.N,N/C*%
X208100762Y-121409253D03*
X208155847Y-120147600D03*
X208953935Y-122340328D03*
X209086922Y-119294427D03*
D18*
X209651255Y-120844920D03*
D17*
X210215588Y-122395413D03*
X210348575Y-119349512D03*
X211146663Y-121542240D03*
X211201748Y-120280587D03*
%TD*%
D10*
%TO.P,S34,1*%
%TO.N,P16*%
X280566759Y-141059470D03*
%TO.P,S34,2*%
%TO.N,mirror_pinky_bottom*%
X292172653Y-139176461D03*
%TD*%
D32*
%TO.P,S28,1*%
%TO.N,P8*%
X142391360Y-179592520D03*
%TO.P,S28,2*%
%TO.N,layer_cluster*%
X150590698Y-188019462D03*
%TD*%
D14*
%TO.P,D6,1*%
%TO.N,P19*%
X78291401Y-132951114D03*
D15*
X80321137Y-133689878D03*
%TO.P,D6,2*%
%TO.N,pinky_home*%
X83422123Y-134818544D03*
D13*
X85451859Y-135557308D03*
%TD*%
D10*
%TO.P,S35,1*%
%TO.N,P16*%
X274752424Y-125084697D03*
%TO.P,S35,2*%
%TO.N,mirror_pinky_home*%
X286358318Y-123201688D03*
%TD*%
%TO.P,S44,1*%
%TO.N,P7*%
X244172678Y-146324500D03*
%TO.P,S44,2*%
%TO.N,mirror_middle_bottom*%
X255778572Y-144441491D03*
%TD*%
%TO.P,S31,1*%
%TO.N,P14*%
X291666888Y-118928338D03*
%TO.P,S31,2*%
%TO.N,mirror_outer_home*%
X303272782Y-117045329D03*
%TD*%
D11*
%TO.P,D51,1*%
%TO.N,P0*%
X219726960Y-133353157D03*
D12*
X221756696Y-132614393D03*
%TO.P,D51,2*%
%TO.N,mirror_index_top*%
X224857682Y-131485727D03*
D13*
X226887418Y-130746963D03*
%TD*%
D16*
%TO.P,S18,1*%
%TO.N,P7*%
X130562021Y-96159941D03*
%TO.P,S18,2*%
%TO.N,middle_num*%
X140663026Y-102177597D03*
%TD*%
D17*
%TO.P,_8,1*%
%TO.N,N/C*%
X231067409Y-184509613D03*
X231122494Y-183247960D03*
X231920582Y-185440688D03*
X232053569Y-182394787D03*
D18*
X232617902Y-183945280D03*
D17*
X233182235Y-185495773D03*
X233315222Y-182449872D03*
X234113310Y-184642600D03*
X234168395Y-183380947D03*
%TD*%
D14*
%TO.P,D27,1*%
%TO.N,P21*%
X158432998Y-123277788D03*
D15*
X160462734Y-124016552D03*
%TO.P,D27,2*%
%TO.N,inner_num*%
X163563720Y-125145218D03*
D13*
X165593456Y-125883982D03*
%TD*%
D33*
%TO.P,D28,1*%
%TO.N,P15*%
X135672453Y-188255376D03*
D34*
X137441821Y-189494301D03*
%TO.P,D28,2*%
%TO.N,layer_cluster*%
X140145023Y-191387103D03*
D13*
X141914391Y-192626028D03*
%TD*%
D14*
%TO.P,D9,1*%
%TO.N,P15*%
X85287277Y-166358561D03*
D15*
X87317013Y-167097325D03*
%TO.P,D9,2*%
%TO.N,ring_mod*%
X90417999Y-168225991D03*
D13*
X92447735Y-168964755D03*
%TD*%
D16*
%TO.P,S3,1*%
%TO.N,P14*%
X71439132Y-100713325D03*
%TO.P,S3,2*%
%TO.N,outer_top*%
X81540137Y-106730981D03*
%TD*%
D14*
%TO.P,D8,1*%
%TO.N,P21*%
X89920077Y-101001572D03*
D15*
X91949813Y-101740336D03*
%TO.P,D8,2*%
%TO.N,pinky_num*%
X95050799Y-102869002D03*
D13*
X97080535Y-103607766D03*
%TD*%
D10*
%TO.P,S46,1*%
%TO.N,P7*%
X232543999Y-114374952D03*
%TO.P,S46,2*%
%TO.N,mirror_middle_top*%
X244149893Y-112491943D03*
%TD*%
D35*
%TO.N,P9*%
X193818378Y-125981688D03*
%TO.N,P8*%
X209312704Y-116947936D03*
%TO.N,P7*%
X225979376Y-110110766D03*
%TO.N,P14*%
X74690239Y-92607708D03*
%TO.N,P16*%
X91331087Y-99515822D03*
%TO.N,P10*%
X104419076Y-102151107D03*
%TD*%
D36*
%TO.N,ring_num*%
X115705105Y-105065660D02*
X121427947Y-102397056D01*
X121427947Y-102397056D02*
X122893507Y-98370465D01*
%TO.N,pinky_home*%
X83422123Y-134818543D02*
X85451859Y-135557308D01*
%TO.N,P19*%
X78291401Y-132951113D02*
X80321137Y-133689878D01*
%TO.N,outer_home*%
X66507654Y-128662182D02*
X68537389Y-129400947D01*
%TO.N,P19*%
X61376932Y-126794753D02*
X63406668Y-127533517D01*
%TO.N,P8*%
X203908173Y-208461211D02*
X203361214Y-208844197D01*
%TO.N,P9*%
X191323686Y-116607790D02*
X194610815Y-115411371D01*
X193818378Y-125981688D02*
X190808601Y-117712393D01*
X190808601Y-117712393D02*
X191323686Y-116607790D01*
%TO.N,P7*%
X225979376Y-110110766D02*
X223038004Y-102029407D01*
X223038004Y-102029407D02*
X224321655Y-99276610D01*
X224321655Y-99276610D02*
X226729648Y-98400173D01*
%TO.N,P8*%
X209312704Y-116947936D02*
X206875980Y-110253097D01*
X207980326Y-107884817D02*
X210670236Y-106905771D01*
X206875980Y-110253097D02*
X207980326Y-107884817D01*
%TO.N,P1*%
X197853201Y-125883983D02*
X198654968Y-128086819D01*
X198654968Y-128086819D02*
X198249972Y-128955330D01*
%TO.N,P0*%
X203667551Y-141858748D02*
X203391970Y-141101601D01*
X203391970Y-141101601D02*
X201891620Y-140401975D01*
%TO.N,P4*%
X209481886Y-157833533D02*
X207481572Y-158561589D01*
X207481572Y-158561589D02*
X207049972Y-158360331D01*
%TO.N,P5*%
X215296224Y-173808309D02*
X213610686Y-174421794D01*
X213610686Y-174421794D02*
X213049972Y-174160332D01*
%TO.N,P6*%
X189343330Y-158181975D02*
X196903874Y-165742520D01*
X196903874Y-165742520D02*
X196903874Y-198933199D01*
%TO.N,P5*%
X194531618Y-155641972D02*
X213049972Y-174160332D01*
X189343329Y-155641971D02*
X194531618Y-155641972D01*
%TO.N,P4*%
X201791618Y-153101974D02*
X207049972Y-158360331D01*
X189343327Y-153101975D02*
X201791618Y-153101974D01*
%TO.N,P0*%
X189343328Y-140401974D02*
X201891620Y-140401975D01*
%TO.N,P1*%
X189343328Y-137861974D02*
X198249972Y-128955330D01*
%TO.N,P9*%
X204352236Y-190888906D02*
X219168823Y-173231188D01*
X219168823Y-173231188D02*
X219153549Y-173056635D01*
X160840934Y-207848777D02*
X162105546Y-206787642D01*
X162105546Y-206787642D02*
X171604494Y-198817075D01*
X200496987Y-200455377D02*
X200103070Y-195952865D01*
X188734723Y-196224410D02*
X196403213Y-202659037D01*
X171604494Y-198817075D02*
X174197165Y-196224409D01*
X174197165Y-196224409D02*
X188734723Y-196224410D01*
X196403213Y-202659037D02*
X198825735Y-202447091D01*
X200103070Y-195952865D02*
X204352235Y-190888907D01*
X198825735Y-202447091D02*
X200496987Y-200455377D01*
X200425165Y-131386140D02*
X199847055Y-129797798D01*
X199847055Y-129797798D02*
X201727794Y-125764529D01*
X201727794Y-125764529D02*
X200906948Y-123509268D01*
X200906948Y-123509268D02*
X196873675Y-121628518D01*
X196873675Y-121628518D02*
X194610817Y-115411368D01*
X207542139Y-141739305D02*
X206789694Y-139671982D01*
X202756427Y-137791238D02*
X200425165Y-131386140D01*
X206239500Y-147360905D02*
X205661395Y-145772575D01*
X205661395Y-145772575D02*
X207542139Y-141739305D01*
X206789694Y-139671982D02*
X202756427Y-137791238D01*
X212053842Y-163335685D02*
X211544141Y-161935284D01*
X211544141Y-161935284D02*
X213424885Y-157902016D01*
X213424885Y-157902016D02*
X212535630Y-155458816D01*
X212535630Y-155458816D02*
X208502361Y-153578071D01*
X208502361Y-153578071D02*
X206239500Y-147360905D01*
X219153549Y-173056635D02*
X218674720Y-171741064D01*
X218674720Y-171741064D02*
X214385110Y-169740786D01*
X214385110Y-169740786D02*
X212053842Y-163335685D01*
%TO.N,P10*%
X104419076Y-102151107D02*
X107634064Y-93317995D01*
X111057859Y-91721453D02*
X112792499Y-92352809D01*
X107634064Y-93317995D02*
X111057859Y-91721453D01*
%TO.N,P16*%
X91331087Y-99515822D02*
X91162093Y-99153401D01*
X91162093Y-99153401D02*
X94167938Y-90894912D01*
%TO.N,P14*%
X74521241Y-92245291D02*
X77253471Y-84738549D01*
X74690239Y-92607708D02*
X74521241Y-92245291D01*
%TO.N,P15*%
X167673565Y-201528083D02*
X171161732Y-198601168D01*
X171161734Y-161123573D02*
X171161732Y-198601168D01*
X174103324Y-158181976D02*
X171161734Y-161123573D01*
%TO.N,P18*%
X141913119Y-173181787D02*
X151559927Y-176692940D01*
X174103328Y-155641978D02*
X172610892Y-155641976D01*
X172610892Y-155641976D02*
X151559927Y-176692940D01*
%TO.N,P19*%
X174103329Y-153101975D02*
X166680218Y-153101977D01*
X166680218Y-153101977D02*
X158207775Y-161574422D01*
%TO.N,P20*%
X174103326Y-150561976D02*
X168864912Y-150561975D01*
X168864912Y-150561975D02*
X163834178Y-145531242D01*
%TO.N,P21*%
X174103327Y-148021981D02*
X169648522Y-143567169D01*
X169648522Y-143567169D02*
X169648523Y-129556470D01*
%TO.N,P15*%
X160705518Y-203831241D02*
X163651097Y-204903341D01*
X163651097Y-204903341D02*
X167673565Y-201528083D01*
%TO.N,P18*%
X140989973Y-171202105D02*
X141913119Y-173181787D01*
%TO.N,P19*%
X150067701Y-158611681D02*
X158207775Y-161574422D01*
X148834051Y-155966099D02*
X150067701Y-158611681D01*
%TO.N,P20*%
X155882045Y-142636902D02*
X163834178Y-145531242D01*
X154648393Y-139991322D02*
X155882045Y-142636902D01*
%TO.N,P21*%
X161696390Y-126662128D02*
X169648523Y-129556470D01*
X160462732Y-124016554D02*
X161696390Y-126662128D01*
%TO.N,VCC*%
X182983335Y-169231974D02*
X182983333Y-154361980D01*
X182983333Y-154361980D02*
X174103329Y-145481975D01*
%TO.N,GND*%
X189343331Y-142941978D02*
X176643330Y-142941977D01*
X176643330Y-142941977D02*
X174103328Y-140401976D01*
X189343326Y-145481975D02*
X189343331Y-142941978D01*
X185523333Y-169231971D02*
X185523335Y-149301972D01*
X185523335Y-149301972D02*
X189343326Y-145481975D01*
%TO.N,P8*%
X142391360Y-179592522D02*
X137107327Y-180524240D01*
X131974761Y-187854304D02*
X132072995Y-188411393D01*
X132224270Y-188591681D02*
X160304329Y-208253545D01*
X160987404Y-208313310D02*
X172506579Y-198647568D01*
X190434756Y-198238334D02*
X189312615Y-197296750D01*
X199140480Y-205543308D02*
X190434756Y-198238334D01*
X137107327Y-180524240D02*
X131974761Y-187854304D01*
X132072995Y-188411393D02*
X132224270Y-188591681D01*
X172506579Y-198647568D02*
X174430833Y-196723315D01*
X160304329Y-208253545D02*
X160987404Y-208313310D01*
X174430833Y-196723315D02*
X188195365Y-196723311D01*
X188195365Y-196723311D02*
X188588253Y-196688939D01*
X188588253Y-196688939D02*
X190434756Y-198238334D01*
%TO.N,P7*%
X160206375Y-208734312D02*
X160355913Y-208747390D01*
X118638014Y-170768440D02*
X115069097Y-180573951D01*
X173408678Y-198478052D02*
X174713414Y-197173314D01*
X127203405Y-185682198D02*
X127268225Y-185670763D01*
X115069097Y-180573951D02*
X115457588Y-181407062D01*
X123364062Y-168564640D02*
X118638014Y-170768440D01*
X115457588Y-181407062D02*
X127203405Y-185682198D01*
X127268225Y-185670763D02*
X127573599Y-185884595D01*
X127573599Y-185884595D02*
X160206375Y-208734312D01*
X160355913Y-208747390D02*
X161093275Y-208811901D01*
X161093275Y-208811901D02*
X173408678Y-198478052D01*
X174713414Y-197173314D02*
X188215004Y-197173311D01*
X188215004Y-197173311D02*
X188441790Y-197153471D01*
%TO.N,P10*%
X202862242Y-209841103D02*
X189795930Y-198877164D01*
X107304649Y-160059041D02*
X102578598Y-162262837D01*
X162820099Y-207950363D02*
X174157556Y-198437102D01*
X98017823Y-174793468D02*
X98436198Y-175690669D01*
X189795930Y-198877164D02*
X189423545Y-198564694D01*
X102578598Y-162262837D02*
X98017823Y-174793468D01*
X98436198Y-175690669D02*
X127162803Y-186146293D01*
X127162803Y-186146293D02*
X160333249Y-209372491D01*
X160333249Y-209372491D02*
X161050483Y-209435242D01*
X161050483Y-209435242D02*
X161127001Y-209371026D01*
X161127001Y-209371026D02*
X162820099Y-207950363D01*
X174157556Y-198437102D02*
X174971347Y-197623313D01*
X174971347Y-197623313D02*
X188301648Y-197623315D01*
X188301648Y-197623315D02*
X189795930Y-198877164D01*
%TO.N,P16*%
X202715778Y-210305634D02*
X188932773Y-198740323D01*
X188932773Y-198740323D02*
X188148856Y-198082539D01*
X176332273Y-198073311D02*
X176339868Y-198080901D01*
X176339868Y-198080901D02*
X188146908Y-198080909D01*
X188146908Y-198080909D02*
X188932773Y-198740323D01*
%TO.N,P14*%
X202754471Y-210925532D02*
X188178367Y-198694735D01*
X77737045Y-169114552D02*
X126601061Y-186899600D01*
X160826414Y-210798120D02*
X175437650Y-198537846D01*
X59810439Y-132662883D02*
X55084391Y-134866673D01*
X51925895Y-143544558D02*
X52882170Y-145595299D01*
X55084391Y-134866673D02*
X54388440Y-136778771D01*
X188178367Y-198694735D02*
X188002392Y-198547075D01*
X54388440Y-136778771D02*
X51925895Y-143544558D01*
X52882170Y-145595299D02*
X80885013Y-155787503D01*
X81602217Y-157325558D02*
X77497973Y-168601867D01*
X77497973Y-168601867D02*
X77737045Y-169114552D01*
X80885013Y-155787503D02*
X81602217Y-157325558D01*
X126601061Y-186899600D02*
X160718166Y-210788660D01*
X175524454Y-198545442D02*
X188000443Y-198545441D01*
X160718166Y-210788660D02*
X160826414Y-210798120D01*
X175437650Y-198537846D02*
X175524454Y-198545442D01*
X188000443Y-198545441D02*
X188178367Y-198694735D01*
%TO.N,P16*%
X175229274Y-198073315D02*
X176332273Y-198073311D01*
X174906439Y-198396146D02*
X175229274Y-198073315D01*
%TO.N,P8*%
X189028694Y-197058510D02*
X188588256Y-196688943D01*
X202970703Y-208757245D02*
X199140480Y-205543308D01*
X203361214Y-208844197D02*
X203101419Y-208866927D01*
X211843006Y-202905188D02*
X203908173Y-208461211D01*
X203101419Y-208866927D02*
X202970703Y-208757245D01*
X189312615Y-197296750D02*
X189028694Y-197058510D01*
%TO.N,P7*%
X200689736Y-207430718D02*
X188441790Y-197153474D01*
X203510674Y-209288901D02*
X203331029Y-209414684D01*
X202620653Y-209050947D02*
X202528244Y-208973407D01*
X203008708Y-209376571D02*
X202620653Y-209050947D01*
X203331029Y-209414684D02*
X203080277Y-209436622D01*
X203080277Y-209436622D02*
X203008708Y-209376571D01*
X200935355Y-207636813D02*
X200689736Y-207430718D01*
X202528244Y-208973407D02*
X200935355Y-207636813D01*
%TO.N,P10*%
X203021233Y-209974505D02*
X202862242Y-209841103D01*
X189423545Y-198564694D02*
X188909815Y-198133623D01*
X203358167Y-209945033D02*
X203021233Y-209974505D01*
X188909815Y-198133623D02*
X188295324Y-197618003D01*
%TO.N,P16*%
X203266142Y-210558813D02*
X202951357Y-210503312D01*
X202951357Y-210503312D02*
X202715778Y-210305634D01*
%TO.N,P8*%
X217085579Y-199234293D02*
X211843006Y-202905188D01*
X220290921Y-196989895D02*
X217085579Y-199234293D01*
X215689855Y-183349450D02*
X214792311Y-188439679D01*
X214792311Y-188439679D02*
X216309303Y-190606172D01*
X216309303Y-190606172D02*
X220439060Y-196504065D01*
X220439060Y-196504065D02*
X220362186Y-196939985D01*
X220362186Y-196939985D02*
X220290921Y-196989895D01*
%TO.N,P7*%
X203674502Y-209174179D02*
X203510674Y-209288901D01*
X234856257Y-187340480D02*
X203674502Y-209174179D01*
X235342369Y-187000105D02*
X234856257Y-187340480D01*
X236345669Y-184848513D02*
X235342369Y-187000105D01*
X235938920Y-183730989D02*
X236345669Y-184848513D01*
%TO.N,P10*%
X252416862Y-157088469D02*
X247757122Y-167081316D01*
X248083609Y-115349859D02*
X251345819Y-124312699D01*
X261942195Y-142517366D02*
X255705786Y-155891397D01*
X247757122Y-167081316D02*
X252478198Y-180052379D01*
X244499169Y-94593044D02*
X242269268Y-99375084D01*
X257160156Y-140287467D02*
X261942195Y-142517366D01*
X245531478Y-108337925D02*
X250313510Y-110567825D01*
X242269268Y-99375084D02*
X245531478Y-108337925D01*
X250313510Y-110567825D02*
X248083609Y-115349859D01*
X252478198Y-180052379D02*
X252298899Y-180436884D01*
X238089871Y-185608556D02*
X238078042Y-185633908D01*
X251345819Y-124312699D02*
X256127849Y-126542596D01*
X238078042Y-185633908D02*
X237388272Y-186116899D01*
X256127849Y-126542596D02*
X253897951Y-131324633D01*
X253897951Y-131324633D02*
X257160156Y-140287467D01*
X255705786Y-155891397D02*
X252416862Y-157088469D01*
X252298899Y-180436884D02*
X238089871Y-185608556D01*
X237388272Y-186116899D02*
X203358167Y-209945033D01*
%TO.N,P16*%
X268938083Y-109109924D02*
X266708183Y-113891965D01*
X269970380Y-122854797D02*
X274752426Y-125084700D01*
X266708183Y-113891965D02*
X269970380Y-122854797D01*
X274752426Y-125084700D02*
X272522524Y-129866744D01*
X275784731Y-138829564D02*
X280566763Y-141059468D01*
X272522524Y-129866744D02*
X275784731Y-138829564D01*
X280566763Y-141059468D02*
X275764768Y-151357381D01*
X275764768Y-151357381D02*
X270126615Y-153409504D01*
X270126615Y-153409504D02*
X265526641Y-163274179D01*
X265526641Y-163274179D02*
X269175007Y-173297998D01*
X269175007Y-173297998D02*
X268346398Y-175074963D01*
X268346398Y-175074963D02*
X238681732Y-185872013D01*
X238876302Y-185801197D02*
X238350235Y-185992674D01*
X238350235Y-185992674D02*
X203266142Y-210558813D01*
%TO.N,P14*%
X203371563Y-211034344D02*
X202754471Y-210925532D01*
X238559808Y-186395273D02*
X203371563Y-211034344D01*
X262473485Y-177691403D02*
X238559808Y-186395273D01*
%TO.N,P7*%
X235254882Y-181851606D02*
X235938920Y-183730989D01*
X231697704Y-175586905D02*
X232211941Y-176999755D01*
X233716824Y-181134397D02*
X235254882Y-181851606D01*
X232211941Y-176999755D02*
X233716824Y-181134397D01*
X233927599Y-170804876D02*
X231697704Y-175586905D01*
%TO.N,P14*%
X284065000Y-155147083D02*
X281554782Y-160530277D01*
X270707546Y-171076247D02*
X268675463Y-175434070D01*
X282717648Y-163725228D02*
X281044166Y-167314028D01*
X298398084Y-144822214D02*
X299560952Y-148017169D01*
X295988052Y-142294029D02*
X296603686Y-143985474D01*
X281044166Y-167314028D02*
X270707546Y-171076247D01*
X266796072Y-176118116D02*
X262473485Y-177691403D01*
X297481224Y-134903108D02*
X295131797Y-139941490D01*
X296603686Y-143985474D02*
X298398084Y-144822214D01*
X299560952Y-148017169D02*
X298724210Y-149811567D01*
X295131797Y-139941490D02*
X295988052Y-142294029D01*
X298724210Y-149811567D02*
X284065000Y-155147083D01*
X281554782Y-160530277D02*
X282717648Y-163725228D01*
X268675463Y-175434070D02*
X266796072Y-176118116D01*
%TO.N,P7*%
X244172673Y-146324506D02*
X241823240Y-151362881D01*
X241823240Y-151362881D02*
X244081779Y-157568159D01*
X244081779Y-157568159D02*
X241212954Y-163720378D01*
X241212954Y-163720378D02*
X236417211Y-165465887D01*
X236417211Y-165465887D02*
X233927599Y-170804876D01*
%TO.N,P14*%
X297481224Y-134903108D02*
X292699195Y-132673215D01*
X292699195Y-132673215D02*
X289436987Y-123710371D01*
X289436987Y-123710371D02*
X291666889Y-118928335D01*
X291666889Y-118928335D02*
X286884856Y-116698434D01*
X286884856Y-116698434D02*
X283622645Y-107735585D01*
X283622645Y-107735585D02*
X285852543Y-102953556D01*
X285852543Y-102953556D02*
X282608565Y-101440864D01*
X282608565Y-101440864D02*
X280613034Y-95958194D01*
X278562292Y-95001916D02*
X277569236Y-92273510D01*
X280613034Y-95958194D02*
X278562292Y-95001916D01*
X277569236Y-92273510D02*
X280038200Y-86978786D01*
%TO.N,P16*%
X268938083Y-109109924D02*
X264156044Y-106880022D01*
X264156044Y-106880022D02*
X260893841Y-97917186D01*
X260893841Y-97917186D02*
X263123744Y-93135144D01*
%TO.N,P7*%
X244172673Y-146324506D02*
X239390643Y-144094604D01*
X239390643Y-144094604D02*
X236128434Y-135131758D01*
X236128434Y-135131758D02*
X238358333Y-130349727D01*
%TO.N,P8*%
X228113265Y-154830089D02*
X223331225Y-152600188D01*
X223331225Y-152600188D02*
X220069016Y-143637356D01*
X220069016Y-143637356D02*
X222298914Y-138855323D01*
%TO.N,P7*%
X238358333Y-130349727D02*
X233576301Y-128119831D01*
X233576301Y-128119831D02*
X230314090Y-119157000D01*
X230314090Y-119157000D02*
X232543997Y-114374953D01*
%TO.N,P8*%
X222298914Y-138855323D02*
X217516886Y-136625427D01*
X217516886Y-136625427D02*
X214254682Y-127662585D01*
X214254682Y-127662585D02*
X216484576Y-122880544D01*
%TO.N,P7*%
X232543997Y-114374953D02*
X227761952Y-112145051D01*
X227761952Y-112145051D02*
X224499751Y-103182212D01*
X224499751Y-103182212D02*
X226729648Y-98400173D01*
%TO.N,P8*%
X210670229Y-106905773D02*
X208201263Y-112200491D01*
X208201263Y-112200491D02*
X209673153Y-116244482D01*
X209673153Y-116244482D02*
X211723896Y-117200755D01*
X211723896Y-117200755D02*
X213240596Y-121367853D01*
X213240596Y-121367853D02*
X216484576Y-122880544D01*
%TO.N,P9*%
X154076830Y-195099156D02*
X150432886Y-200303245D01*
X150432886Y-200303245D02*
X150516280Y-200776171D01*
X150516280Y-200776171D02*
X160585029Y-207826385D01*
X160585029Y-207826385D02*
X160840934Y-207848777D01*
X160840934Y-207848777D02*
X160617914Y-207829263D01*
%TO.N,P16*%
X160900412Y-210148600D02*
X174906439Y-198396146D01*
X160544100Y-210117427D02*
X160900412Y-210148600D01*
X89535136Y-156251913D02*
X84809075Y-158455704D01*
X80966543Y-169012981D02*
X81414801Y-169974268D01*
X84809075Y-158455704D02*
X80966543Y-169012981D01*
X81414801Y-169974268D02*
X123560013Y-185313867D01*
X123560013Y-185313867D02*
X126867941Y-186517863D01*
X126867941Y-186517863D02*
X126871813Y-186539838D01*
X126871813Y-186539838D02*
X160544100Y-210117427D01*
%TO.N,P8*%
X215689853Y-183349446D02*
X216519370Y-178644997D01*
X216519370Y-178644997D02*
X226098476Y-171937634D01*
X226098476Y-171937634D02*
X228499025Y-166789651D01*
X228499025Y-166789651D02*
X225885195Y-159608210D01*
X225885195Y-159608210D02*
X228113251Y-154830090D01*
%TO.N,P6*%
X198558528Y-200321618D02*
X196903876Y-198933197D01*
%TO.N,mirror_space_cluster*%
X202741132Y-203831242D02*
X201086489Y-202442814D01*
X211785912Y-199998394D02*
X209031570Y-203280899D01*
X209031570Y-203280899D02*
X202741132Y-203831242D01*
%TO.N,mirror_layer_cluster*%
X227774201Y-188255372D02*
X228870707Y-182036843D01*
X228870707Y-182036843D02*
X226412920Y-178526775D01*
%TO.N,P6*%
X223301640Y-191387104D02*
X221532267Y-192626027D01*
%TO.N,mirror_layer_cluster*%
X227774201Y-188255372D02*
X226004837Y-189494308D01*
%TO.N,mirror_index_num*%
X222276124Y-105022761D02*
X223741685Y-109049346D01*
X223741685Y-109049346D02*
X221073072Y-114772192D01*
%TO.N,mirror_inner_num*%
X206216706Y-113528356D02*
X207682264Y-117554943D01*
X207682264Y-117554943D02*
X205013660Y-123277785D01*
%TO.N,mirror_inner_top*%
X212031052Y-129503126D02*
X213496614Y-133529718D01*
X213496614Y-133529718D02*
X210828004Y-139252558D01*
%TO.N,mirror_index_top*%
X226887422Y-130746960D02*
X229556019Y-125024125D01*
X229556019Y-125024125D02*
X228090468Y-120997541D01*
%TO.N,mirror_index_home*%
X233904811Y-136972319D02*
X235370368Y-140998898D01*
X235370368Y-140998898D02*
X232701759Y-146721739D01*
%TO.N,mirror_inner_home*%
X216642345Y-155227339D02*
X219310945Y-149504491D01*
X219310945Y-149504491D02*
X217845390Y-145477896D01*
%TO.N,mirror_inner_bottom*%
X222456684Y-171202112D02*
X225125286Y-165479257D01*
X225125286Y-165479257D02*
X223659739Y-161452683D01*
%TO.N,mirror_index_mod*%
X244330447Y-178671290D02*
X246999052Y-172948444D01*
X246999052Y-172948444D02*
X245533493Y-168921861D01*
%TO.N,mirror_index_bottom*%
X238516103Y-162696520D02*
X241184706Y-156973670D01*
X241184706Y-156973670D02*
X239719161Y-152947090D01*
%TO.N,mirror_middle_home*%
X249964230Y-128466717D02*
X251429789Y-132493297D01*
X251429789Y-132493297D02*
X248761172Y-138216146D01*
%TO.N,mirror_middle_top*%
X244149891Y-112491951D02*
X245615442Y-116518521D01*
X245615442Y-116518521D02*
X242946836Y-122241373D01*
%TO.N,mirror_middle_num*%
X238335541Y-96517163D02*
X239801101Y-100543755D01*
X239801101Y-100543755D02*
X237132493Y-106266592D01*
%TO.N,mirror_ring_num*%
X254902006Y-102459471D02*
X257570618Y-96736618D01*
X257570618Y-96736618D02*
X256105063Y-92710037D01*
%TO.N,mirror_ring_top*%
X261919404Y-108684821D02*
X263384964Y-112711399D01*
X263384964Y-112711399D02*
X260716355Y-118434244D01*
%TO.N,mirror_ring_home*%
X267733746Y-124659588D02*
X269199296Y-128686168D01*
X269199296Y-128686168D02*
X266530693Y-134409007D01*
%TO.N,mirror_ring_bottom*%
X273548084Y-140634361D02*
X275013643Y-144660938D01*
X275013643Y-144660938D02*
X272345039Y-150383791D01*
%TO.N,mirror_middle_bottom*%
X255778563Y-144441494D02*
X257244131Y-148468075D01*
X257244131Y-148468075D02*
X254575520Y-154190922D01*
%TO.N,mirror_ring_mod*%
X279362434Y-156609139D02*
X280827987Y-160635714D01*
X280827987Y-160635714D02*
X278159381Y-166358567D01*
%TO.N,mirror_middle_mod*%
X260389866Y-170165695D02*
X263058474Y-164442844D01*
X263058474Y-164442844D02*
X261592919Y-160416264D01*
%TO.N,mirror_pinky_num*%
X273526579Y-101001573D02*
X276195190Y-95278718D01*
X276195190Y-95278718D02*
X274729631Y-91252135D01*
%TO.N,mirror_outer_num*%
X290441040Y-94845206D02*
X293109649Y-89122355D01*
X293109649Y-89122355D02*
X291644099Y-85095772D01*
%TO.N,mirror_outer_top*%
X297458432Y-101070543D02*
X298923991Y-105097136D01*
X298923991Y-105097136D02*
X296255387Y-110819985D01*
%TO.N,mirror_pinky_top*%
X279340925Y-116976347D02*
X282009531Y-111253493D01*
X282009531Y-111253493D02*
X280543976Y-107226918D01*
%TO.N,mirror_outer_home*%
X303272781Y-117045330D02*
X304738336Y-121071899D01*
X304738336Y-121071899D02*
X302069726Y-126794746D01*
%TO.N,mirror_pinky_home*%
X285155262Y-132951118D02*
X287823878Y-127228267D01*
X287823878Y-127228267D02*
X286358316Y-123201687D01*
%TO.N,mirror_pinky_bottom*%
X290969600Y-148925896D02*
X293638217Y-143203045D01*
X293638217Y-143203045D02*
X292172658Y-139176458D01*
%TO.N,mirror_outer_bottom*%
X307884075Y-142769531D02*
X310552680Y-137046681D01*
X310552680Y-137046681D02*
X309087125Y-133020102D01*
X305854340Y-143508289D02*
X307884075Y-142769531D01*
%TO.N,P5*%
X300723622Y-145375725D02*
X302753356Y-144636959D01*
%TO.N,mirror_pinky_bottom*%
X288939869Y-149664659D02*
X290969600Y-148925896D01*
%TO.N,P5*%
X283809143Y-151532085D02*
X285838882Y-150793320D01*
%TO.N,mirror_outer_home*%
X300039985Y-127533518D02*
X302069726Y-126794746D01*
%TO.N,P4*%
X294909271Y-129400943D02*
X296939004Y-128662177D01*
%TO.N,mirror_pinky_home*%
X283125532Y-133689883D02*
X285155262Y-132951118D01*
%TO.N,P4*%
X277994806Y-135557311D02*
X280024541Y-134818548D01*
%TO.N,P0*%
X272180470Y-119582536D02*
X274210202Y-118843772D01*
%TO.N,mirror_pinky_top*%
X279340925Y-116976347D02*
X277311186Y-117715108D01*
%TO.N,P0*%
X291124668Y-112687413D02*
X289094933Y-113426178D01*
%TO.N,mirror_outer_top*%
X296255387Y-110819985D02*
X294225655Y-111558746D01*
%TO.N,mirror_outer_num*%
X288411306Y-95583969D02*
X290441040Y-94845206D01*
%TO.N,P1*%
X283280590Y-97451400D02*
X285310320Y-96712636D01*
%TO.N,mirror_pinky_num*%
X271496841Y-101740332D02*
X273526579Y-101001573D01*
%TO.N,P1*%
X266366122Y-103607762D02*
X268395859Y-102869003D01*
%TO.N,mirror_ring_num*%
X252872275Y-103198228D02*
X254902006Y-102459471D01*
%TO.N,P1*%
X247741555Y-105065665D02*
X249771290Y-104326900D01*
%TO.N,P0*%
X253555895Y-121040437D02*
X255585629Y-120301671D01*
%TO.N,mirror_ring_top*%
X260716355Y-118434244D02*
X258686620Y-119173008D01*
%TO.N,mirror_ring_home*%
X264500958Y-135147779D02*
X266530693Y-134409007D01*
%TO.N,P4*%
X259370236Y-137015212D02*
X261399974Y-136276443D01*
%TO.N,P5*%
X267214320Y-152251221D02*
X265184581Y-152989981D01*
%TO.N,mirror_ring_bottom*%
X272345039Y-150383791D02*
X270315299Y-151122558D01*
%TO.N,mirror_ring_mod*%
X278159381Y-166358567D02*
X276129641Y-167097338D01*
%TO.N,P6*%
X270998921Y-168964758D02*
X273028662Y-168225993D01*
%TO.N,mirror_middle_mod*%
X258360126Y-170904457D02*
X260389866Y-170165695D01*
%TO.N,P6*%
X253229406Y-172771891D02*
X255259145Y-172033127D01*
%TO.N,mirror_middle_bottom*%
X252545789Y-154929686D02*
X254575520Y-154190922D01*
%TO.N,P5*%
X247415063Y-156797113D02*
X249444797Y-156058351D01*
%TO.N,mirror_middle_top*%
X242946836Y-122241373D02*
X240917103Y-122980136D01*
%TO.N,mirror_middle_home*%
X246731438Y-138954908D02*
X248761172Y-138216146D01*
%TO.N,P4*%
X241600718Y-140822336D02*
X243630464Y-140083573D01*
%TO.N,P0*%
X237816112Y-124108808D02*
X235786376Y-124847567D01*
%TO.N,mirror_middle_num*%
X235102756Y-107005359D02*
X237132493Y-106266592D01*
%TO.N,P1*%
X229972041Y-108872787D02*
X232001776Y-108134023D01*
%TO.N,mirror_index_num*%
X219043341Y-115510957D02*
X221073072Y-114772192D01*
%TO.N,P1*%
X213912624Y-117378388D02*
X215942358Y-116639627D01*
%TO.N,mirror_index_top*%
X224857685Y-131485727D02*
X226887422Y-130746960D01*
%TO.N,P0*%
X221756700Y-132614397D02*
X219726958Y-133353160D01*
%TO.N,mirror_index_home*%
X230672027Y-147460506D02*
X232701759Y-146721739D01*
%TO.N,P4*%
X225541306Y-149327936D02*
X227571038Y-148589175D01*
%TO.N,mirror_index_bottom*%
X236486371Y-163435279D02*
X238516103Y-162696520D01*
%TO.N,P5*%
X231355644Y-165302711D02*
X233385379Y-164563947D01*
%TO.N,mirror_index_mod*%
X242300712Y-179410052D02*
X244330447Y-178671290D01*
%TO.N,P6*%
X237169989Y-181277489D02*
X239199725Y-180538718D01*
%TO.N,mirror_inner_bottom*%
X220426949Y-171940878D02*
X222456684Y-171202112D01*
%TO.N,P5*%
X215296229Y-173808302D02*
X217325963Y-173069540D01*
%TO.N,mirror_inner_home*%
X214612610Y-155966111D02*
X216642345Y-155227339D01*
%TO.N,P4*%
X209481886Y-157833525D02*
X211511624Y-157094765D01*
%TO.N,P0*%
X205697280Y-141119995D02*
X203667543Y-141858752D01*
%TO.N,mirror_inner_top*%
X210828004Y-139252558D02*
X208798262Y-139991325D01*
%TO.N,mirror_inner_num*%
X202983930Y-124016551D02*
X205013660Y-123277785D01*
%TO.N,P1*%
X197853202Y-125883976D02*
X199882935Y-125145221D01*
%TO.N,P9*%
X145237833Y-161095456D02*
X140306688Y-163394884D01*
X140306688Y-163394884D02*
X137810881Y-170252061D01*
X137810881Y-170252061D02*
X138886691Y-172559150D01*
X138886691Y-172559150D02*
X149411251Y-176389761D01*
X149411251Y-176389761D02*
X155287299Y-188990972D01*
X155287299Y-188990972D02*
X153508046Y-193879399D01*
X153508046Y-193879399D02*
X154076832Y-195099161D01*
%TO.N,P8*%
X136569134Y-175515749D02*
X135348222Y-168591679D01*
X135348222Y-168591679D02*
X122346691Y-163859498D01*
X121580447Y-162216312D02*
X124247273Y-154889289D01*
X122346691Y-163859498D02*
X121580447Y-162216312D01*
X124247273Y-154889289D02*
X129178409Y-152589865D01*
X142391364Y-179592533D02*
X136569134Y-175515749D01*
%TO.N,space_cluster*%
X164888119Y-200321620D02*
X166542788Y-198933193D01*
%TO.N,P15*%
X160705523Y-203831234D02*
X162360174Y-202442819D01*
%TO.N,space_cluster*%
X164338772Y-189360268D02*
X167093124Y-192642761D01*
X167093124Y-192642761D02*
X166542788Y-198933193D01*
%TO.N,layer_cluster*%
X150590703Y-188019470D02*
X148132924Y-191529540D01*
X148132924Y-191529540D02*
X141914390Y-192626032D01*
X140145025Y-191387112D02*
X141914390Y-192626032D01*
%TO.N,P15*%
X135672456Y-188255376D02*
X137441825Y-189494295D01*
%TO.N,P14*%
X69218092Y-95950298D02*
X72490448Y-86959591D01*
X71439125Y-100713322D02*
X69218092Y-95950298D01*
X66676105Y-102934369D02*
X71439125Y-100713322D01*
X57589416Y-127899855D02*
X60861758Y-118909143D01*
X59810441Y-132662873D02*
X57589416Y-127899855D01*
X65624790Y-116688103D02*
X63403748Y-111925078D01*
X63403748Y-111925078D02*
X66676105Y-102934369D01*
X72490448Y-86959591D02*
X77253471Y-84738554D01*
X60861758Y-118909143D02*
X65624790Y-116688103D01*
%TO.N,outer_bottom*%
X62723042Y-145375725D02*
X60693307Y-144636962D01*
X68445888Y-142707115D02*
X69911452Y-138680535D01*
X62723042Y-145375725D02*
X68445888Y-142707115D01*
%TO.N,outer_home*%
X75725791Y-122705762D02*
X74260240Y-126732334D01*
X74260240Y-126732334D02*
X68537385Y-129400951D01*
%TO.N,outer_top*%
X80074580Y-110757565D02*
X74351725Y-113426178D01*
X81540136Y-106730988D02*
X80074580Y-110757565D01*
X74351725Y-113426178D02*
X72321997Y-112687402D01*
%TO.N,outer_num*%
X85888923Y-94782796D02*
X87354472Y-90756211D01*
X78136332Y-96712634D02*
X80166070Y-97451402D01*
X80166070Y-97451402D02*
X85888923Y-94782796D01*
%TO.N,P16*%
X89404253Y-93117745D02*
X87694151Y-97816209D01*
X74503869Y-134056210D02*
X77776228Y-125065502D01*
X70815634Y-143604804D02*
X71705537Y-141159806D01*
X71652378Y-145399201D02*
X70815634Y-143604804D01*
X94167935Y-90894911D02*
X94167284Y-90896706D01*
X83590576Y-109090721D02*
X88353598Y-106869688D01*
X77776228Y-125065502D02*
X82539251Y-122844464D01*
X86849771Y-103644707D02*
X88353598Y-106869688D01*
X70881969Y-150439681D02*
X70284290Y-149157963D01*
X83147011Y-153926833D02*
X81970339Y-154475520D01*
X89535136Y-156251911D02*
X83147011Y-153926833D01*
X80318213Y-118081431D02*
X83590576Y-109090721D01*
X70284290Y-149157963D02*
X71652378Y-145399201D01*
X87694151Y-97816209D02*
X88411361Y-99354267D01*
X94167284Y-90896706D02*
X89404253Y-93117745D01*
X81970339Y-154475520D02*
X70881969Y-150439681D01*
X71705537Y-141159806D02*
X76724903Y-138819239D01*
X88411361Y-99354267D02*
X86849771Y-103644707D01*
X76724903Y-138819239D02*
X74503869Y-134056210D01*
X82539251Y-122844464D02*
X80318213Y-118081431D01*
%TO.N,pinky_bottom*%
X79637508Y-151532083D02*
X85360359Y-148863473D01*
X79637508Y-151532083D02*
X77607770Y-150793326D01*
X85360359Y-148863473D02*
X86825916Y-144836892D01*
%TO.N,pinky_home*%
X91174698Y-132888698D02*
X92640257Y-128862121D01*
X85451852Y-135557311D02*
X91174698Y-132888698D01*
%TO.N,pinky_top*%
X91266204Y-119582538D02*
X96989037Y-116913929D01*
X89236467Y-118843779D02*
X91266204Y-119582538D01*
X96989037Y-116913929D02*
X98454607Y-112887348D01*
%TO.N,pinky_num*%
X97080545Y-103607759D02*
X102803386Y-100939156D01*
X97080545Y-103607759D02*
X95050804Y-102869004D01*
X102803386Y-100939156D02*
X104268940Y-96912574D01*
%TO.N,ring_mod*%
X98170594Y-166296151D02*
X99636143Y-162269574D01*
X92447740Y-168964757D02*
X98170594Y-166296151D01*
X90417998Y-168225994D02*
X92447740Y-168964757D01*
%TO.N,P10*%
X88948516Y-153377956D02*
X87524893Y-150324979D01*
X96400790Y-126523398D02*
X101163829Y-124302366D01*
X104757127Y-103564564D02*
X108029473Y-94573856D01*
X102215142Y-110548628D02*
X98942782Y-119539336D01*
X93128439Y-135514116D02*
X96400790Y-126523398D01*
X95349478Y-140277136D02*
X93128439Y-135514116D01*
X107304652Y-160059046D02*
X88948516Y-153377956D01*
X87524893Y-150324979D02*
X90330107Y-142617709D01*
X106978160Y-108327580D02*
X102215142Y-110548628D01*
X90330107Y-142617709D02*
X95349478Y-140277136D01*
X98942782Y-119539336D02*
X101163829Y-124302366D01*
X108029473Y-94573856D02*
X112792507Y-92352814D01*
X106978160Y-108327580D02*
X104757127Y-103564564D01*
%TO.N,ring_bottom*%
X98262082Y-152989979D02*
X103984936Y-150321380D01*
X103984936Y-150321380D02*
X105450481Y-146294799D01*
X98262082Y-152989979D02*
X96232343Y-152251212D01*
%TO.N,ring_home*%
X102046684Y-136276450D02*
X104076419Y-137015211D01*
X111264825Y-130320018D02*
X109799266Y-134346602D01*
X109799266Y-134346602D02*
X104076419Y-137015211D01*
%TO.N,ring_top*%
X109890765Y-121040435D02*
X115613612Y-118371833D01*
X115613612Y-118371833D02*
X117079172Y-114345246D01*
X109890765Y-121040435D02*
X107861028Y-120301680D01*
%TO.N,ring_num*%
X115705110Y-105065660D02*
X113675371Y-104326895D01*
%TO.N,middle_mod*%
X110217256Y-172771897D02*
X115940100Y-170103281D01*
X115940100Y-170103281D02*
X117405654Y-166076699D01*
X110217256Y-172771897D02*
X108187515Y-172033125D01*
%TO.N,P7*%
X122526640Y-107371688D02*
X125798995Y-98380982D01*
X120326726Y-162051031D02*
X123364071Y-168564640D01*
X106575080Y-157045853D02*
X120326726Y-162051031D01*
X113118998Y-144084276D02*
X110897959Y-139321243D01*
X108355968Y-146305308D02*
X105379739Y-154482424D01*
X124747681Y-112134719D02*
X122526640Y-107371688D01*
X119984648Y-114355755D02*
X124747681Y-112134719D01*
X114170307Y-130330527D02*
X118933340Y-128109496D01*
X110897959Y-139321243D02*
X114170307Y-130330527D01*
X116712297Y-123346462D02*
X119984648Y-114355755D01*
X105379739Y-154482424D02*
X106575080Y-157045853D01*
X125798995Y-98380982D02*
X130562024Y-96159945D01*
X113118998Y-144084276D02*
X108355968Y-146305308D01*
X118933340Y-128109496D02*
X116712297Y-123346462D01*
%TO.N,middle_bottom*%
X121754451Y-154128510D02*
X123220000Y-150101924D01*
X116031601Y-156797113D02*
X114001863Y-156058346D01*
X116031601Y-156797113D02*
X121754451Y-154128510D01*
%TO.N,middle_home*%
X127568782Y-138153736D02*
X129034344Y-134127153D01*
X121845944Y-140822342D02*
X127568782Y-138153736D01*
X121845944Y-140822342D02*
X119816198Y-140083579D01*
%TO.N,middle_top*%
X125630545Y-124108795D02*
X127660283Y-124847568D01*
X133383129Y-122178952D02*
X134848687Y-118152374D01*
X127660283Y-124847568D02*
X133383129Y-122178952D01*
%TO.N,middle_num*%
X131444885Y-108134025D02*
X133474627Y-108872791D01*
X133474627Y-108872791D02*
X139197465Y-106204187D01*
X139197465Y-106204187D02*
X140663026Y-102177595D01*
%TO.N,index_mod*%
X126276669Y-181277484D02*
X131999523Y-178608887D01*
X131999523Y-178608887D02*
X133465069Y-174582301D01*
X126276669Y-181277484D02*
X124246938Y-180538724D01*
%TO.N,P8*%
X130229073Y-138837918D02*
X126957377Y-147826834D01*
X140807096Y-120640311D02*
X138586058Y-115877279D01*
X138586058Y-115877279D02*
X141858415Y-106886576D01*
X126957377Y-147826834D02*
X129178409Y-152589865D01*
X136044078Y-122861349D02*
X140807096Y-120640311D01*
X134992107Y-136616880D02*
X130229073Y-138837918D01*
X141858415Y-106886576D02*
X146621442Y-104665534D01*
X134992752Y-136615092D02*
X134992107Y-136616880D01*
X132771714Y-131852062D02*
X136044078Y-122861349D01*
X134992752Y-136615092D02*
X132771714Y-131852062D01*
%TO.N,index_bottom*%
X130061282Y-164563947D02*
X132091018Y-165302712D01*
X132091018Y-165302712D02*
X137813865Y-162634108D01*
X137813865Y-162634108D02*
X139279418Y-158607527D01*
%TO.N,index_home*%
X135875620Y-148589177D02*
X137905356Y-149327937D01*
X143628203Y-146659335D02*
X137905356Y-149327937D01*
X145093758Y-142632750D02*
X143628203Y-146659335D01*
%TO.N,index_top*%
X149442556Y-130684560D02*
X150908101Y-126657973D01*
X143719700Y-133353161D02*
X149442556Y-130684560D01*
X143719700Y-133353161D02*
X141689964Y-132614395D01*
%TO.N,index_num*%
X149534039Y-117378386D02*
X147504306Y-116639622D01*
X156722445Y-110683196D02*
X155256899Y-114709783D01*
X155256899Y-114709783D02*
X149534039Y-117378386D01*
%TO.N,P9*%
X155482219Y-126177280D02*
X156866517Y-129145911D01*
X152103483Y-131366948D02*
X156866517Y-129145911D01*
X148831135Y-140357653D02*
X152103483Y-131366948D01*
X145237830Y-161095451D02*
X143016795Y-156332429D01*
X162680856Y-113171136D02*
X160320264Y-119656798D01*
X143016795Y-156332429D02*
X146289146Y-147341717D01*
X157351635Y-121041101D02*
X155482219Y-126177280D01*
X146289146Y-147341717D02*
X151052172Y-145120679D01*
X151052172Y-145120679D02*
X148831135Y-140357653D01*
X160320264Y-119656798D02*
X157351635Y-121041101D01*
%TO.N,inner_bottom*%
X148150423Y-173808308D02*
X146120702Y-173069530D01*
X148150423Y-173808308D02*
X153873275Y-171139689D01*
X153873275Y-171139689D02*
X155338833Y-167113114D01*
%TO.N,inner_home*%
X153964772Y-157833534D02*
X159687628Y-155164924D01*
X153964772Y-157833534D02*
X151935039Y-157094766D01*
X159687628Y-155164924D02*
X161153181Y-151138337D01*
%TO.N,inner_top*%
X159779114Y-141858754D02*
X157749382Y-141119983D01*
X159779114Y-141858754D02*
X165501962Y-139190151D01*
X165501962Y-139190151D02*
X166967517Y-135163562D01*
%TO.N,inner_num*%
X165593460Y-125883979D02*
X171316305Y-123215370D01*
X171316305Y-123215370D02*
X172781865Y-119188784D01*
X165593460Y-125883979D02*
X163563714Y-125145218D01*
%TO.N,P18*%
X91101622Y-150383794D02*
X93131359Y-151122553D01*
X57592324Y-143508292D02*
X55562586Y-142769531D01*
X110900875Y-154929688D02*
X108871140Y-154190916D01*
X126960294Y-163435287D02*
X124930555Y-162696515D01*
X74506797Y-149664659D02*
X72477061Y-148925897D01*
X143019712Y-171940872D02*
X140989972Y-171202103D01*
%TO.N,P19*%
X148834054Y-155966098D02*
X146804315Y-155227338D01*
X116715219Y-138954911D02*
X114685474Y-138216148D01*
X96915965Y-134409019D02*
X98945696Y-135147786D01*
X132774633Y-147460506D02*
X130744900Y-146721746D01*
%TO.N,P20*%
X104760043Y-119173007D02*
X102730306Y-118434243D01*
X84105735Y-116976342D02*
X86135476Y-117715101D01*
X67191262Y-110819979D02*
X69221007Y-111558743D01*
X120499828Y-122241372D02*
X122529559Y-122980133D01*
X138588979Y-131485730D02*
X136559242Y-130746963D01*
X154648396Y-139991323D02*
X152618658Y-139252566D01*
%TO.N,P21*%
X110574385Y-103198233D02*
X108544651Y-102459478D01*
X73005619Y-94845209D02*
X75035353Y-95583966D01*
X128343904Y-107005361D02*
X126314167Y-106266595D01*
X91949816Y-101740330D02*
X89920077Y-101001562D01*
X160462736Y-124016547D02*
X158433000Y-123277783D01*
X144403322Y-115510958D02*
X142373578Y-114772192D01*
%TO.N,P15*%
X85287274Y-166358565D02*
X87317022Y-167097328D01*
X103056802Y-170165694D02*
X105086535Y-170904465D01*
X121145954Y-179410054D02*
X119116218Y-178671294D01*
%TD*%
M02*
