0
SECTION
2
HEADER
9
$INSUNITS
70
4
0
ENDSEC
0
SECTION
2
TABLES
0
TABLE
2
LTYPE
0
LTYPE
72
65
70
64
2
CONTINUOUS
3
______
73
0
40
0
0
ENDTAB
0
TABLE
2
LAYER
0
ENDTAB
0
ENDSEC
0
SECTION
2
ENTITIES
0
LINE
8
0
10
52.1467882
20
-116.9464686
11
75.6836094
21
-52.2795839
0
LINE
8
0
10
77.9819872
20
-51.0080052
11
129.452605
21
-62.0356195
0
LINE
8
0
10
129.7176526
20
-62.1118532
11
150.1311103
21
-69.5417443
0
LINE
8
0
10
150.3831507
20
-69.6537152
11
180.8409286
21
-85.7851538
0
LINE
8
0
10
181.7842332
20
-88.2366083
11
177.5424023
21
-99.890943
0
LINE
8
0
10
179.4217876
20
-102.5749832
11
193.4822198
21
-102.5749832
0
LINE
8
0
10
195.3616051
20
-99.890943
11
191.1197742
21
-88.2366083
0
LINE
8
0
10
192.0630788
20
-85.7851538
11
222.5208567
21
-69.6537152
0
LINE
8
0
10
222.7728971
20
-69.5417443
11
243.1863548
21
-62.1118532
0
LINE
8
0
10
243.4514024
20
-62.0356195
11
294.9220202
21
-51.0080052
0
LINE
8
0
10
297.220398
20
-52.2795839
11
320.7572192
21
-116.9464686
0
LINE
8
0
10
320.1210854
20
-119.1971376
11
291.7604185
21
-141.7037054
0
LINE
8
0
10
291.2463607
20
-141.9994076
11
241.7908819
21
-161.3636466
0
LINE
8
0
10
241.3363618
20
-161.6138915
11
210.0039813
21
-184.6204596
0
LINE
8
0
10
207.5346923
20
-184.5404623
11
193.2086252
21
-172.5194647
0
LINE
8
0
10
191.9230499
20
-172.0515536
11
180.9809575
21
-172.0515536
0
LINE
8
0
10
179.6953822
20
-172.5194647
11
165.3693151
21
-184.5404623
0
LINE
8
0
10
162.9000261
20
-184.6204596
11
131.5676456
21
-161.6138915
0
LINE
8
0
10
131.1131255
20
-161.3636466
11
81.6576467
21
-141.9994076
0
LINE
8
0
10
81.1435889
20
-141.7037054
11
52.782922
21
-119.1971376
0
ARC
8
0
10
77.5629946
20
-52.9636241
40
2
50
77.9071637
51
160.0000019
0
ARC
8
0
10
129.0336124
20
-63.9912384
40
2
50
70.0000019
51
77.9071637
0
ARC
8
0
10
149.4470701
20
-71.4211295
40
2
50
62.0928362
51
70.0000019
0
ARC
8
0
10
179.904848
20
-87.5525681
40
2
50
340.0000019
51
62.0928362
0
ARC
8
0
10
179.4217876
20
-100.5749832
40
2
50
160.0000019
51
270
0
ARC
8
0
10
193.4822198
20
-100.5749832
40
2
50
270
51
19.9999981
0
ARC
8
0
10
192.9991594
20
-87.5525681
40
2
50
117.9071638
51
199.9999981
0
ARC
8
0
10
223.4569373
20
-71.4211295
40
2
50
109.9999981
51
117.9071638
0
ARC
8
0
10
243.870395
20
-63.9912384
40
2
50
102.0928363
51
109.9999981
0
ARC
8
0
10
295.3410128
20
-52.9636241
40
2
50
19.9999981
51
102.0928363
0
ARC
8
0
10
318.8778339
20
-117.6305088
40
2
50
308.43495
51
19.9999981
0
ARC
8
0
10
290.5171671
20
-140.1370766
40
2
50
291.382771
51
308.43495
0
ARC
8
0
10
242.5200755
20
-163.2259776
40
2
50
111.382771
51
126.288889
0
ARC
8
0
10
208.8202675
20
-183.0083735
40
2
50
229.9999988
51
306.288889
0
ARC
8
0
10
191.9230499
20
-174.0515536
40
2
50
49.9999988
51
90
0
ARC
8
0
10
180.9809575
20
-174.0515536
40
2
50
90
51
130.0000012
0
ARC
8
0
10
164.0837399
20
-183.0083735
40
2
50
233.711111
51
310.0000012
0
ARC
8
0
10
130.3839319
20
-163.2259776
40
2
50
53.711111
51
68.617229
0
ARC
8
0
10
82.3868403
20
-140.1370766
40
2
50
231.56505
51
248.617229
0
ARC
8
0
10
54.0261735
20
-117.6305088
40
2
50
160.0000019
51
231.56505
0
ENDSEC
0
EOF