0
SECTION
2
HEADER
9
$INSUNITS
70
4
0
ENDSEC
0
SECTION
2
TABLES
0
TABLE
2
LTYPE
0
LTYPE
72
65
70
64
2
CONTINUOUS
3
______
73
0
40
0
0
ENDTAB
0
TABLE
2
LAYER
0
ENDTAB
0
ENDSEC
0
SECTION
2
ENTITIES
0
LINE
8
0
10
54.5376136
20
-116.9562898
11
70.9822344
21
-122.9416423
0
LINE
8
0
10
70.9822344
20
-122.9416423
11
76.6255668
21
-107.436714
0
LINE
8
0
10
76.6255668
20
-107.436714
11
60.180946
21
-101.4513615
0
LINE
8
0
10
60.180946
20
-101.4513615
11
54.5376136
21
-116.9562898
0
LINE
8
0
10
60.351956
20
-100.9815152
11
76.7965768
21
-106.9668677
0
LINE
8
0
10
76.7965768
20
-106.9668677
11
82.4399092
21
-91.4619394
0
LINE
8
0
10
82.4399092
20
-91.4619394
11
65.9952884
21
-85.4765869
0
LINE
8
0
10
65.9952884
20
-85.4765869
11
60.351956
21
-100.9815152
0
LINE
8
0
10
66.1662985
20
-85.0067407
11
82.6109193
21
-90.9920932
0
LINE
8
0
10
82.6109193
20
-90.9920932
11
88.2542517
21
-75.4871649
0
LINE
8
0
10
88.2542517
20
-75.4871649
11
71.8096309
21
-69.5018124
0
LINE
8
0
10
71.8096309
20
-69.5018124
11
66.1662985
21
-85.0067407
0
LINE
8
0
10
71.9806409
20
-69.0319661
11
88.4252617
21
-75.0173186
0
LINE
8
0
10
88.4252617
20
-75.0173186
11
94.0685941
21
-59.5123903
0
LINE
8
0
10
94.0685941
20
-59.5123903
11
77.6239733
21
-53.5270378
0
LINE
8
0
10
77.6239733
20
-53.5270378
11
71.9806409
21
-69.0319661
0
LINE
8
0
10
71.4520808
20
-123.1126523
11
87.8967016
21
-129.0980048
0
LINE
8
0
10
87.8967016
20
-129.0980048
11
93.540034
21
-113.5930765
0
LINE
8
0
10
93.540034
20
-113.5930765
11
77.0954132
21
-107.607724
0
LINE
8
0
10
77.0954132
20
-107.607724
11
71.4520808
21
-123.1126523
0
LINE
8
0
10
77.2664232
20
-107.1378778
11
93.711044
21
-113.1232303
0
LINE
8
0
10
93.711044
20
-113.1232303
11
99.3543764
21
-97.618302
0
LINE
8
0
10
99.3543764
20
-97.618302
11
82.9097556
21
-91.6329495
0
LINE
8
0
10
82.9097556
20
-91.6329495
11
77.2664232
21
-107.1378778
0
LINE
8
0
10
83.0807656
20
-91.1631032
11
99.5253864
21
-97.1484557
0
LINE
8
0
10
99.5253864
20
-97.1484557
11
105.1687188
21
-81.6435274
0
LINE
8
0
10
105.1687188
20
-81.6435274
11
88.724098
21
-75.6581749
0
LINE
8
0
10
88.724098
20
-75.6581749
11
83.0807656
21
-91.1631032
0
LINE
8
0
10
88.8951081
20
-75.1883287
11
105.3397289
21
-81.1736812
0
LINE
8
0
10
105.3397289
20
-81.1736812
11
110.9830613
21
-65.6687529
0
LINE
8
0
10
110.9830613
20
-65.6687529
11
94.5384405
21
-59.6834004
0
LINE
8
0
10
94.5384405
20
-59.6834004
11
88.8951081
21
-75.1883287
0
LINE
8
0
10
84.2623062
20
-140.5453264
11
100.706927
21
-146.5306789
0
LINE
8
0
10
100.706927
20
-146.5306789
11
106.3502594
21
-131.0257506
0
LINE
8
0
10
106.3502594
20
-131.0257506
11
89.9056386
21
-125.0403981
0
LINE
8
0
10
89.9056386
20
-125.0403981
11
84.2623062
21
-140.5453264
0
LINE
8
0
10
90.0766486
20
-124.5705518
11
106.5212694
21
-130.5559043
0
LINE
8
0
10
106.5212694
20
-130.5559043
11
112.1646018
21
-115.050976
0
LINE
8
0
10
112.1646018
20
-115.050976
11
95.719981
21
-109.0656235
0
LINE
8
0
10
95.719981
20
-109.0656235
11
90.0766486
21
-124.5705518
0
LINE
8
0
10
95.8909911
20
-108.5957773
11
112.3356119
21
-114.5811298
0
LINE
8
0
10
112.3356119
20
-114.5811298
11
117.9789443
21
-99.0762015
0
LINE
8
0
10
117.9789443
20
-99.0762015
11
101.5343235
21
-93.090849
0
LINE
8
0
10
101.5343235
20
-93.090849
11
95.8909911
21
-108.5957773
0
LINE
8
0
10
101.7053335
20
-92.6210027
11
118.1499543
21
-98.6063552
0
LINE
8
0
10
118.1499543
20
-98.6063552
11
123.7932867
21
-83.1014269
0
LINE
8
0
10
123.7932867
20
-83.1014269
11
107.3486659
21
-77.1160744
0
LINE
8
0
10
107.3486659
20
-77.1160744
11
101.7053335
21
-92.6210027
0
LINE
8
0
10
107.519676
20
-76.6462282
11
123.9642968
21
-82.6315807
0
LINE
8
0
10
123.9642968
20
-82.6315807
11
129.6076292
21
-67.1266524
0
LINE
8
0
10
129.6076292
20
-67.1266524
11
113.1630084
21
-61.1412999
0
LINE
8
0
10
113.1630084
20
-61.1412999
11
107.519676
21
-76.6462282
0
LINE
8
0
10
102.0318237
20
-144.3524574
11
118.4764445
21
-150.3378099
0
LINE
8
0
10
118.4764445
20
-150.3378099
11
124.1197769
21
-134.8328816
0
LINE
8
0
10
124.1197769
20
-134.8328816
11
107.6751561
21
-128.8475291
0
LINE
8
0
10
107.6751561
20
-128.8475291
11
102.0318237
21
-144.3524574
0
LINE
8
0
10
107.8461662
20
-128.3776828
11
124.290787
21
-134.3630353
0
LINE
8
0
10
124.290787
20
-134.3630353
11
129.9341194
21
-118.858107
0
LINE
8
0
10
129.9341194
20
-118.858107
11
113.4894986
21
-112.8727545
0
LINE
8
0
10
113.4894986
20
-112.8727545
11
107.8461662
21
-128.3776828
0
LINE
8
0
10
113.6605086
20
-112.4029083
11
130.1051294
21
-118.3882608
0
LINE
8
0
10
130.1051294
20
-118.3882608
11
135.7484618
21
-102.8833325
0
LINE
8
0
10
135.7484618
20
-102.8833325
11
119.303841
21
-96.89798
0
LINE
8
0
10
119.303841
20
-96.89798
11
113.6605086
21
-112.4029083
0
LINE
8
0
10
119.4748511
20
-96.4281337
11
135.9194719
21
-102.4134862
0
LINE
8
0
10
135.9194719
20
-102.4134862
11
141.5628043
21
-86.9085579
0
LINE
8
0
10
141.5628043
20
-86.9085579
11
125.1181835
21
-80.9232054
0
LINE
8
0
10
125.1181835
20
-80.9232054
11
119.4748511
21
-96.4281337
0
LINE
8
0
10
125.2891935
20
-80.4533592
11
141.7338143
21
-86.4387117
0
LINE
8
0
10
141.7338143
20
-86.4387117
11
147.3771467
21
-70.9337834
0
LINE
8
0
10
147.3771467
20
-70.9337834
11
130.9325259
21
-64.9484309
0
LINE
8
0
10
130.9325259
20
-64.9484309
11
125.2891935
21
-80.4533592
0
LINE
8
0
10
118.0912406
20
-152.8580515
11
134.5358614
21
-158.843404
0
LINE
8
0
10
134.5358614
20
-158.843404
11
140.1791938
21
-143.3384757
0
LINE
8
0
10
140.1791938
20
-143.3384757
11
123.734573
21
-137.3531232
0
LINE
8
0
10
123.734573
20
-137.3531232
11
118.0912406
21
-152.8580515
0
LINE
8
0
10
123.905583
20
-136.883277
11
140.3502038
21
-142.8686295
0
LINE
8
0
10
140.3502038
20
-142.8686295
11
145.9935362
21
-127.3637012
0
LINE
8
0
10
145.9935362
20
-127.3637012
11
129.5489154
21
-121.3783487
0
LINE
8
0
10
129.5489154
20
-121.3783487
11
123.905583
21
-136.883277
0
LINE
8
0
10
129.7199254
20
-120.9085024
11
146.1645462
21
-126.8938549
0
LINE
8
0
10
146.1645462
20
-126.8938549
11
151.8078786
21
-111.3889266
0
LINE
8
0
10
151.8078786
20
-111.3889266
11
135.3632578
21
-105.4035741
0
LINE
8
0
10
135.3632578
20
-105.4035741
11
129.7199254
21
-120.9085024
0
LINE
8
0
10
135.5342679
20
-104.9337279
11
151.9788887
21
-110.9190804
0
LINE
8
0
10
151.9788887
20
-110.9190804
11
157.6222211
21
-95.4141521
0
LINE
8
0
10
157.6222211
20
-95.4141521
11
141.1776003
21
-89.4287996
0
LINE
8
0
10
141.1776003
20
-89.4287996
11
135.5342679
21
-104.9337279
0
LINE
8
0
10
141.3486103
20
-88.9589533
11
157.7932311
21
-94.9443058
0
LINE
8
0
10
157.7932311
20
-94.9443058
11
163.4365635
21
-79.4393775
0
LINE
8
0
10
163.4365635
20
-79.4393775
11
146.9919427
21
-73.454025
0
LINE
8
0
10
146.9919427
20
-73.454025
11
141.3486103
21
-88.9589533
0
LINE
8
0
10
139.9649998
20
-145.3888711
11
156.4096206
21
-151.3742236
0
LINE
8
0
10
156.4096206
20
-151.3742236
11
162.052953
21
-135.8692953
0
LINE
8
0
10
162.052953
20
-135.8692953
11
145.6083322
21
-129.8839428
0
LINE
8
0
10
145.6083322
20
-129.8839428
11
139.9649998
21
-145.3888711
0
LINE
8
0
10
145.7793422
20
-129.4140966
11
162.223963
21
-135.3994491
0
LINE
8
0
10
162.223963
20
-135.3994491
11
167.8672954
21
-119.8945208
0
LINE
8
0
10
167.8672954
20
-119.8945208
11
151.4226746
21
-113.9091683
0
LINE
8
0
10
151.4226746
20
-113.9091683
11
145.7793422
21
-129.4140966
0
LINE
8
0
10
151.5936847
20
-113.439322
11
168.0383055
21
-119.4246745
0
LINE
8
0
10
168.0383055
20
-119.4246745
11
173.6816379
21
-103.9197462
0
LINE
8
0
10
173.6816379
20
-103.9197462
11
157.2370171
21
-97.9343937
0
LINE
8
0
10
157.2370171
20
-97.9343937
11
151.5936847
21
-113.439322
0
LINE
8
0
10
157.4080271
20
-97.4645474
11
173.8526479
21
-103.4498999
0
LINE
8
0
10
173.8526479
20
-103.4498999
11
179.4959803
21
-87.9449716
0
LINE
8
0
10
179.4959803
20
-87.9449716
11
163.0513595
21
-81.9596191
0
LINE
8
0
10
163.0513595
20
-81.9596191
11
157.4080271
21
-97.4645474
0
LINE
8
0
10
134.4903929
20
-160.9064938
11
148.8255537
21
-170.9440815
0
LINE
8
0
10
148.8255537
20
-170.9440815
11
158.2895649
21
-157.4280728
0
LINE
8
0
10
158.2895649
20
-157.4280728
11
143.9544041
21
-147.3904851
0
LINE
8
0
10
143.9544041
20
-147.3904851
11
134.4903929
21
-160.9064938
0
LINE
8
0
10
163.7389955
20
-182.3185928
11
177.1447733
21
-171.0698097
0
LINE
8
0
10
177.1447733
20
-171.0698097
11
166.5387777
21
-158.4300764
0
LINE
8
0
10
166.5387777
20
-158.4300764
11
153.1329999
21
-169.6788595
0
LINE
8
0
10
153.1329999
20
-169.6788595
11
163.7389955
21
-182.3185928
0
LINE
8
0
10
301.921773
20
-122.9416423
11
318.3663938
21
-116.9562898
0
LINE
8
0
10
318.3663938
20
-116.9562898
11
312.7230614
21
-101.4513615
0
LINE
8
0
10
312.7230614
20
-101.4513615
11
296.2784406
21
-107.436714
0
LINE
8
0
10
296.2784406
20
-107.436714
11
301.921773
21
-122.9416423
0
LINE
8
0
10
296.1074306
20
-106.9668677
11
312.5520514
21
-100.9815152
0
LINE
8
0
10
312.5520514
20
-100.9815152
11
306.908719
21
-85.4765869
0
LINE
8
0
10
306.908719
20
-85.4765869
11
290.4640982
21
-91.4619394
0
LINE
8
0
10
290.4640982
20
-91.4619394
11
296.1074306
21
-106.9668677
0
LINE
8
0
10
290.2930881
20
-90.9920932
11
306.7377089
21
-85.0067407
0
LINE
8
0
10
306.7377089
20
-85.0067407
11
301.0943765
21
-69.5018124
0
LINE
8
0
10
301.0943765
20
-69.5018124
11
284.6497557
21
-75.4871649
0
LINE
8
0
10
284.6497557
20
-75.4871649
11
290.2930881
21
-90.9920932
0
LINE
8
0
10
284.4787457
20
-75.0173186
11
300.9233665
21
-69.0319661
0
LINE
8
0
10
300.9233665
20
-69.0319661
11
295.2800341
21
-53.5270378
0
LINE
8
0
10
295.2800341
20
-53.5270378
11
278.8354133
21
-59.5123903
0
LINE
8
0
10
278.8354133
20
-59.5123903
11
284.4787457
21
-75.0173186
0
LINE
8
0
10
285.0073058
20
-129.0980048
11
301.4519266
21
-123.1126523
0
LINE
8
0
10
301.4519266
20
-123.1126523
11
295.8085942
21
-107.607724
0
LINE
8
0
10
295.8085942
20
-107.607724
11
279.3639734
21
-113.5930765
0
LINE
8
0
10
279.3639734
20
-113.5930765
11
285.0073058
21
-129.0980048
0
LINE
8
0
10
279.1929634
20
-113.1232303
11
295.6375842
21
-107.1378778
0
LINE
8
0
10
295.6375842
20
-107.1378778
11
289.9942518
21
-91.6329495
0
LINE
8
0
10
289.9942518
20
-91.6329495
11
273.549631
21
-97.618302
0
LINE
8
0
10
273.549631
20
-97.618302
11
279.1929634
21
-113.1232303
0
LINE
8
0
10
273.378621
20
-97.1484557
11
289.8232418
21
-91.1631032
0
LINE
8
0
10
289.8232418
20
-91.1631032
11
284.1799094
21
-75.6581749
0
LINE
8
0
10
284.1799094
20
-75.6581749
11
267.7352886
21
-81.6435274
0
LINE
8
0
10
267.7352886
20
-81.6435274
11
273.378621
21
-97.1484557
0
LINE
8
0
10
267.5642785
20
-81.1736812
11
284.0088993
21
-75.1883287
0
LINE
8
0
10
284.0088993
20
-75.1883287
11
278.3655669
21
-59.6834004
0
LINE
8
0
10
278.3655669
20
-59.6834004
11
261.9209461
21
-65.6687529
0
LINE
8
0
10
261.9209461
20
-65.6687529
11
267.5642785
21
-81.1736812
0
LINE
8
0
10
272.1970804
20
-146.5306789
11
288.6417012
21
-140.5453264
0
LINE
8
0
10
288.6417012
20
-140.5453264
11
282.9983688
21
-125.0403981
0
LINE
8
0
10
282.9983688
20
-125.0403981
11
266.553748
21
-131.0257506
0
LINE
8
0
10
266.553748
20
-131.0257506
11
272.1970804
21
-146.5306789
0
LINE
8
0
10
266.382738
20
-130.5559043
11
282.8273588
21
-124.5705518
0
LINE
8
0
10
282.8273588
20
-124.5705518
11
277.1840264
21
-109.0656235
0
LINE
8
0
10
277.1840264
20
-109.0656235
11
260.7394056
21
-115.050976
0
LINE
8
0
10
260.7394056
20
-115.050976
11
266.382738
21
-130.5559043
0
LINE
8
0
10
260.5683955
20
-114.5811298
11
277.0130163
21
-108.5957773
0
LINE
8
0
10
277.0130163
20
-108.5957773
11
271.3696839
21
-93.090849
0
LINE
8
0
10
271.3696839
20
-93.090849
11
254.9250631
21
-99.0762015
0
LINE
8
0
10
254.9250631
20
-99.0762015
11
260.5683955
21
-114.5811298
0
LINE
8
0
10
254.7540531
20
-98.6063552
11
271.1986739
21
-92.6210027
0
LINE
8
0
10
271.1986739
20
-92.6210027
11
265.5553415
21
-77.1160744
0
LINE
8
0
10
265.5553415
20
-77.1160744
11
249.1107207
21
-83.1014269
0
LINE
8
0
10
249.1107207
20
-83.1014269
11
254.7540531
21
-98.6063552
0
LINE
8
0
10
248.9397106
20
-82.6315807
11
265.3843314
21
-76.6462282
0
LINE
8
0
10
265.3843314
20
-76.6462282
11
259.740999
21
-61.1412999
0
LINE
8
0
10
259.740999
20
-61.1412999
11
243.2963782
21
-67.1266524
0
LINE
8
0
10
243.2963782
20
-67.1266524
11
248.9397106
21
-82.6315807
0
LINE
8
0
10
254.4275629
20
-150.3378099
11
270.8721837
21
-144.3524574
0
LINE
8
0
10
270.8721837
20
-144.3524574
11
265.2288513
21
-128.8475291
0
LINE
8
0
10
265.2288513
20
-128.8475291
11
248.7842305
21
-134.8328816
0
LINE
8
0
10
248.7842305
20
-134.8328816
11
254.4275629
21
-150.3378099
0
LINE
8
0
10
248.6132204
20
-134.3630353
11
265.0578412
21
-128.3776828
0
LINE
8
0
10
265.0578412
20
-128.3776828
11
259.4145088
21
-112.8727545
0
LINE
8
0
10
259.4145088
20
-112.8727545
11
242.969888
21
-118.858107
0
LINE
8
0
10
242.969888
20
-118.858107
11
248.6132204
21
-134.3630353
0
LINE
8
0
10
242.798878
20
-118.3882608
11
259.2434988
21
-112.4029083
0
LINE
8
0
10
259.2434988
20
-112.4029083
11
253.6001664
21
-96.89798
0
LINE
8
0
10
253.6001664
20
-96.89798
11
237.1555456
21
-102.8833325
0
LINE
8
0
10
237.1555456
20
-102.8833325
11
242.798878
21
-118.3882608
0
LINE
8
0
10
236.9845355
20
-102.4134862
11
253.4291563
21
-96.4281337
0
LINE
8
0
10
253.4291563
20
-96.4281337
11
247.7858239
21
-80.9232054
0
LINE
8
0
10
247.7858239
20
-80.9232054
11
231.3412031
21
-86.9085579
0
LINE
8
0
10
231.3412031
20
-86.9085579
11
236.9845355
21
-102.4134862
0
LINE
8
0
10
231.1701931
20
-86.4387117
11
247.6148139
21
-80.4533592
0
LINE
8
0
10
247.6148139
20
-80.4533592
11
241.9714815
21
-64.9484309
0
LINE
8
0
10
241.9714815
20
-64.9484309
11
225.5268607
21
-70.9337834
0
LINE
8
0
10
225.5268607
20
-70.9337834
11
231.1701931
21
-86.4387117
0
LINE
8
0
10
238.368146
20
-158.843404
11
254.8127668
21
-152.8580515
0
LINE
8
0
10
254.8127668
20
-152.8580515
11
249.1694344
21
-137.3531232
0
LINE
8
0
10
249.1694344
20
-137.3531232
11
232.7248136
21
-143.3384757
0
LINE
8
0
10
232.7248136
20
-143.3384757
11
238.368146
21
-158.843404
0
LINE
8
0
10
232.5538036
20
-142.8686295
11
248.9984244
21
-136.883277
0
LINE
8
0
10
248.9984244
20
-136.883277
11
243.355092
21
-121.3783487
0
LINE
8
0
10
243.355092
20
-121.3783487
11
226.9104712
21
-127.3637012
0
LINE
8
0
10
226.9104712
20
-127.3637012
11
232.5538036
21
-142.8686295
0
LINE
8
0
10
226.7394612
20
-126.8938549
11
243.184082
21
-120.9085024
0
LINE
8
0
10
243.184082
20
-120.9085024
11
237.5407496
21
-105.4035741
0
LINE
8
0
10
237.5407496
20
-105.4035741
11
221.0961288
21
-111.3889266
0
LINE
8
0
10
221.0961288
20
-111.3889266
11
226.7394612
21
-126.8938549
0
LINE
8
0
10
220.9251187
20
-110.9190804
11
237.3697395
21
-104.9337279
0
LINE
8
0
10
237.3697395
20
-104.9337279
11
231.7264071
21
-89.4287996
0
LINE
8
0
10
231.7264071
20
-89.4287996
11
215.2817863
21
-95.4141521
0
LINE
8
0
10
215.2817863
20
-95.4141521
11
220.9251187
21
-110.9190804
0
LINE
8
0
10
215.1107763
20
-94.9443058
11
231.5553971
21
-88.9589533
0
LINE
8
0
10
231.5553971
20
-88.9589533
11
225.9120647
21
-73.454025
0
LINE
8
0
10
225.9120647
20
-73.454025
11
209.4674439
21
-79.4393775
0
LINE
8
0
10
209.4674439
20
-79.4393775
11
215.1107763
21
-94.9443058
0
LINE
8
0
10
216.4943868
20
-151.3742236
11
232.9390076
21
-145.3888711
0
LINE
8
0
10
232.9390076
20
-145.3888711
11
227.2956752
21
-129.8839428
0
LINE
8
0
10
227.2956752
20
-129.8839428
11
210.8510544
21
-135.8692953
0
LINE
8
0
10
210.8510544
20
-135.8692953
11
216.4943868
21
-151.3742236
0
LINE
8
0
10
210.6800444
20
-135.3994491
11
227.1246652
21
-129.4140966
0
LINE
8
0
10
227.1246652
20
-129.4140966
11
221.4813328
21
-113.9091683
0
LINE
8
0
10
221.4813328
20
-113.9091683
11
205.036712
21
-119.8945208
0
LINE
8
0
10
205.036712
20
-119.8945208
11
210.6800444
21
-135.3994491
0
LINE
8
0
10
204.8657019
20
-119.4246745
11
221.3103227
21
-113.439322
0
LINE
8
0
10
221.3103227
20
-113.439322
11
215.6669903
21
-97.9343937
0
LINE
8
0
10
215.6669903
20
-97.9343937
11
199.2223695
21
-103.9197462
0
LINE
8
0
10
199.2223695
20
-103.9197462
11
204.8657019
21
-119.4246745
0
LINE
8
0
10
199.0513595
20
-103.4498999
11
215.4959803
21
-97.4645474
0
LINE
8
0
10
215.4959803
20
-97.4645474
11
209.8526479
21
-81.9596191
0
LINE
8
0
10
209.8526479
20
-81.9596191
11
193.4080271
21
-87.9449716
0
LINE
8
0
10
193.4080271
20
-87.9449716
11
199.0513595
21
-103.4498999
0
LINE
8
0
10
224.0784537
20
-170.9440815
11
238.4136145
21
-160.9064938
0
LINE
8
0
10
238.4136145
20
-160.9064938
11
228.9496033
21
-147.3904851
0
LINE
8
0
10
228.9496033
20
-147.3904851
11
214.6144425
21
-157.4280728
0
LINE
8
0
10
214.6144425
20
-157.4280728
11
224.0784537
21
-170.9440815
0
LINE
8
0
10
195.7592341
20
-171.0698097
11
209.1650119
21
-182.3185928
0
LINE
8
0
10
209.1650119
20
-182.3185928
11
219.7710075
21
-169.6788595
0
LINE
8
0
10
219.7710075
20
-169.6788595
11
206.3652297
21
-158.4300764
0
LINE
8
0
10
206.3652297
20
-158.4300764
11
195.7592341
21
-171.0698097
0
ENDSEC
0
EOF