0
SECTION
2
HEADER
9
$INSUNITS
70
4
0
ENDSEC
0
SECTION
2
TABLES
0
TABLE
2
LTYPE
0
LTYPE
72
65
70
64
2
CONTINUOUS
3
______
73
0
40
0
0
ENDTAB
0
TABLE
2
LAYER
0
ENDTAB
0
ENDSEC
0
SECTION
2
ENTITIES
0
LINE
8
0
10
51.6537599
20
-118.3010528
11
85.4826942
21
-130.6137779
0
LINE
8
0
10
51.6537599
20
-118.3010528
11
76.2792102
21
-50.6431841
0
LINE
8
0
10
76.2792102
20
-50.6431841
11
110.1081446
21
-62.9559093
0
LINE
8
0
10
81.3784525
20
-141.8900894
11
102.0516901
21
-149.4145326
0
LINE
8
0
10
102.0516901
20
-149.4145326
11
102.9067405
21
-147.065301
0
LINE
8
0
10
85.4826942
20
-130.6137779
11
81.3784525
21
-141.8900894
0
LINE
8
0
10
128.7327124
20
-64.4138088
11
111.8182453
21
-58.2574462
0
LINE
8
0
10
111.8182453
20
-58.2574462
11
110.1081446
21
-62.9559093
0
LINE
8
0
10
102.9067405
20
-147.065301
11
116.0624372
21
-151.8535831
0
LINE
8
0
10
149.4059501
20
-71.9382519
11
150.2610004
21
-69.5890204
0
LINE
8
0
10
150.2610004
20
-69.5890204
11
129.5877628
21
-62.0645772
0
LINE
8
0
10
129.5877628
20
-62.0645772
11
128.7327124
21
-64.4138088
0
LINE
8
0
10
115.2073869
20
-154.2028145
11
132.1258635
21
-160.3606365
0
LINE
8
0
10
116.0624372
20
-151.8535831
11
115.2073869
21
-154.2028145
0
LINE
8
0
10
165.4653669
20
-80.443846
11
166.3204172
21
-78.0946145
0
LINE
8
0
10
166.3204172
20
-78.0946145
11
149.4059501
21
-71.9382519
0
LINE
8
0
10
157.6100967
20
-154.2055611
11
157.7543837
21
-154.2580773
0
LINE
8
0
10
157.7543837
20
-154.2580773
11
182.379834
21
-86.6002086
0
LINE
8
0
10
182.379834
20
-86.6002086
11
165.4653669
21
-80.443846
0
LINE
8
0
10
131.3567538
20
-161.459039
11
149.3780988
21
-174.0777206
0
LINE
8
0
10
149.3780988
20
-174.0777206
11
151.4290916
21
-171.1485993
0
LINE
8
0
10
156.4832729
20
-163.9304803
11
161.423204
21
-156.8755276
0
LINE
8
0
10
161.423204
20
-156.8755276
11
157.6100967
21
-154.2055611
0
LINE
8
0
10
132.1258635
20
-160.3606365
11
131.3567538
21
-161.459039
0
LINE
8
0
10
163.4616676
20
-185.488465
11
180.3146454
21
-171.3471375
0
LINE
8
0
10
180.3146454
20
-171.3471375
11
166.8161056
21
-155.2602042
0
LINE
8
0
10
166.8161056
20
-155.2602042
11
156.4832729
21
-163.9304803
0
LINE
8
0
10
151.4290916
20
-171.1485993
11
163.4616676
21
-185.488465
0
LINE
8
0
10
287.4213132
20
-130.6137779
11
321.2502475
21
-118.3010528
0
LINE
8
0
10
296.6247972
20
-50.6431841
11
321.2502475
21
-118.3010528
0
LINE
8
0
10
262.7958628
20
-62.9559093
11
296.6247972
21
-50.6431841
0
LINE
8
0
10
270.8523173
20
-149.4145326
11
291.5255549
21
-141.8900894
0
LINE
8
0
10
291.5255549
20
-141.8900894
11
287.4213132
21
-130.6137779
0
LINE
8
0
10
269.9972669
20
-147.065301
11
270.8523173
21
-149.4145326
0
LINE
8
0
10
262.7958628
20
-62.9559093
11
261.0857621
21
-58.2574462
0
LINE
8
0
10
261.0857621
20
-58.2574462
11
244.171295
21
-64.4138088
0
LINE
8
0
10
256.8415702
20
-151.8535831
11
269.9972669
21
-147.065301
0
LINE
8
0
10
244.171295
20
-64.4138088
11
243.3162446
21
-62.0645772
0
LINE
8
0
10
243.3162446
20
-62.0645772
11
222.643007
21
-69.5890204
0
LINE
8
0
10
222.643007
20
-69.5890204
11
223.4980573
21
-71.9382519
0
LINE
8
0
10
240.7781439
20
-160.3606365
11
257.6966205
21
-154.2028145
0
LINE
8
0
10
257.6966205
20
-154.2028145
11
256.8415702
21
-151.8535831
0
LINE
8
0
10
223.4980573
20
-71.9382519
11
206.5835902
21
-78.0946145
0
LINE
8
0
10
206.5835902
20
-78.0946145
11
207.4386405
21
-80.443846
0
LINE
8
0
10
215.1496237
20
-154.2580773
11
215.2939107
21
-154.2055611
0
LINE
8
0
10
190.5241734
20
-86.6002086
11
215.1496237
21
-154.2580773
0
LINE
8
0
10
207.4386405
20
-80.443846
11
190.5241734
21
-86.6002086
0
LINE
8
0
10
223.5259086
20
-174.0777206
11
241.5472536
21
-161.459039
0
LINE
8
0
10
241.5472536
20
-161.459039
11
240.7781439
21
-160.3606365
0
LINE
8
0
10
215.2939107
20
-154.2055611
11
211.4808034
21
-156.8755276
0
LINE
8
0
10
211.4808034
20
-156.8755276
11
216.4207345
21
-163.9304803
0
LINE
8
0
10
221.4749158
20
-171.1485993
11
223.5259086
21
-174.0777206
0
LINE
8
0
10
192.589362
20
-171.3471375
11
209.4423398
21
-185.488465
0
LINE
8
0
10
209.4423398
20
-185.488465
11
221.4749158
21
-171.1485993
0
LINE
8
0
10
216.4207345
20
-163.9304803
11
206.0879018
21
-155.2602042
0
LINE
8
0
10
206.0879018
20
-155.2602042
11
192.589362
21
-171.3471375
0
ENDSEC
0
EOF